<?xml version="1.0" encoding="utf-8"?>
<!-- Generator: Adobe Illustrator 25.2.3, SVG Export Plug-In . SVG Version: 6.00 Build 0)  -->
<svg version="1.1" id="path1153" xmlns="http://www.w3.org/2000/svg" xmlns:xlink="http://www.w3.org/1999/xlink" x="0px" y="0px"
	 viewBox="0 0 340.2 552.8" style="enable-background:new 0 0 340.2 552.8;" xml:space="preserve">
<style type="text/css">
	.st0{display:none;}
	.st1{display:inline;opacity:0.7852;}
	.st2{display:inline;}
	.st3{fill:none;stroke:#000000;stroke-width:2.8346;stroke-miterlimit:11.3386;}
	.st4{fill:none;stroke:#000000;stroke-width:2.126;stroke-miterlimit:11.3386;stroke-dasharray:2.126,2.126;}
	.st5{fill:none;stroke:#000000;stroke-width:2.8346;stroke-miterlimit:11.3386;stroke-dasharray:2.8346,2.8346;}
	.st6{fill:none;stroke:#000000;stroke-width:1.000000e-02;stroke-miterlimit:11.3386;}
</style>
<g id="svg8" inkscape:version="1.0.2 (e86c8708, 2021-01-15)" xmlns:cc="http://creativecommons.org/ns#" xmlns:dc="http://purl.org/dc/elements/1.1/" xmlns:inkscape="http://www.inkscape.org/namespaces/inkscape" xmlns:rdf="http://www.w3.org/1999/02/22-rdf-syntax-ns#" xmlns:sodipodi="http://sodipodi.sourceforge.net/DTD/sodipodi-0.dtd" xmlns:svg="http://www.w3.org/2000/svg" class="st0">
	
		<sodipodi:namedview  bordercolor="#666666" borderopacity="1.0" id="base" inkscape:current-layer="layer2" inkscape:cx="12.689983" inkscape:cy="182.64687" inkscape:document-rotation="0" inkscape:document-units="mm" inkscape:pageopacity="0.0" inkscape:pageshadow="2" inkscape:window-height="847" inkscape:window-maximized="0" inkscape:window-width="1252" inkscape:window-x="0" inkscape:window-y="25" inkscape:zoom="0.73939619" pagecolor="#ffffff" showgrid="true">
		<inkscape:grid  empspacing="0" id="grid837" spacingx="10" spacingy="10" type="xygrid" units="mm"></inkscape:grid>
	</sodipodi:namedview>
	<g id="layer3" inkscape:groupmode="layer" inkscape:label="pictures" class="st1">
	</g>
	<g id="layer4" inkscape:groupmode="layer" inkscape:label="hole" class="st2">
		<g>
			<defs>
				<polygon id="SVGID_1_" points="28.3,28.3 56.7,28.3 56.7,28.3 56.7,56.7 56.7,56.7 28.3,56.7 28.3,56.7 28.3,28.3 				"/>
			</defs>
			<clipPath id="SVGID_2_">
				<use xlink:href="#SVGID_1_"  style="overflow:visible;"/>
			</clipPath>
			<g transform="matrix(1 0 0 1 0 0)" style="clip-path:url(#SVGID_2_);enable-background:new    ;">
				
					<image style="overflow:visible;" width="900" height="520" id="image1165" xlink:href="F19E3F0E.png"  transform="matrix(4.596040e-02 0 0 6.455934e-02 21.0813 26.0336)">
				</image>
			</g>
		</g>
		<g>
			<defs>
				<polygon id="SVGID_3_" points="56.7,28.3 85,28.3 85,28.3 85,56.7 85,56.7 56.7,56.7 56.7,56.7 56.7,28.3 				"/>
			</defs>
			<clipPath id="SVGID_4_">
				<use xlink:href="#SVGID_3_"  style="overflow:visible;"/>
			</clipPath>
			<g transform="matrix(1 0 0 1 0 0)" style="clip-path:url(#SVGID_4_);enable-background:new    ;">
				
					<image style="overflow:visible;" width="900" height="520" id="image1165-3" xlink:href="F19E3F12.png"  transform="matrix(4.596040e-02 0 0 6.455934e-02 49.4277 26.0336)">
				</image>
			</g>
		</g>
	</g>
	<g id="layer2" inkscape:groupmode="layer" inkscape:label="engraved lines" class="st2">
		
			<image style="overflow:visible;enable-background:new    ;" width="686" height="554" id="image1561-6-0" xlink:href="F19E3F15.png"  transform="matrix(4.132136e-02 0 0 5.116689e-02 85.0394 85.0394)">
		</image>
		
			<image style="overflow:visible;enable-background:new    ;" width="686" height="554" id="image1561-4" xlink:href="F19E3F16.png"  transform="matrix(4.132136e-02 0 0 5.116689e-02 113.3858 85.0394)">
		</image>
		
			<image style="overflow:visible;enable-background:new    ;" width="686" height="554" id="image1561-6" xlink:href="F19E3F14.png"  transform="matrix(4.132136e-02 0 0 5.116689e-02 85.0394 28.3465)">
		</image>
		
			<image style="overflow:visible;enable-background:new    ;" width="686" height="554" id="image1561" xlink:href="F19E3F13.png"  transform="matrix(4.132136e-02 0 0 5.116689e-02 113.3858 28.3465)">
		</image>
		<polygon id="rect855" class="st3" points="28.3,28.3 311.8,28.3 311.8,28.3 311.8,425.2 311.8,425.2 28.3,425.2 28.3,425.2 
			28.3,28.3 		"/>
		<path id="path857" class="st4" d="M56.7,28.3v396.9l0,0l0,0"/>
		<path id="path857-3" class="st4" d="M85,28.3v396.9l0,0l0,0"/>
		<path id="path857-0" class="st4" d="M113.4,28.3v396.9l0,0l0,0"/>
		<path id="path857-6" class="st4" d="M141.7,28.3v396.9l0,0l0,0"/>
		<path id="path857-3-2" class="st4" d="M170.1,28.3v396.9l0,0l0,0"/>
		<path id="path857-0-2" class="st4" d="M198.4,28.3v396.9l0,0l0,0"/>
		<path id="path857-5" class="st4" d="M226.8,28.3v396.9l0,0l0,0"/>
		<path id="path857-3-22" class="st4" d="M255.1,28.3v396.9l0,0l0,0"/>
		<path id="path857-0-7" class="st4" d="M283.5,28.3v396.9l0,0l0,0"/>
		<path id="path971" class="st5" d="M28.3,59.7h283.5l0,0l0,0l0,0"/>
		<path id="path971-5" class="st5" d="M28.3,116.4h283.5l0,0l0,0l0,0"/>
		<path id="path971-6" class="st5" d="M28.3,170.1h283.5l0,0l0,0l0,0"/>
		<path id="path971-0" class="st5" d="M28.3,283.5h283.5l0,0l0,0l0,0"/>
		<path id="path971-5-8" class="st5" d="M28.3,340.2h283.5l0,0l0,0l0,0"/>
		<path id="path971-6-4" class="st5" d="M28.3,396.9h283.5l0,0l0,0l0,0"/>
		<path id="path971-0-0" class="st5" d="M28.3,226.8h283.5l0,0l0,0l0,0"/>
		<path id="path1105" class="st3" d="M28.3,368.5h283.5"/>
		<path id="path971-0-7" class="st3" d="M28.3,311.8h283.5l0,0l0,0l0,0"/>
		<path id="path1105-2" class="st3" d="M28.3,255.1h283.5"/>
		<path id="path971-0-7-9" class="st3" d="M28.3,198.4h283.5l0,0l0,0l0,0"/>
		<path id="path1105-7" class="st3" d="M28.3,141.7h283.5"/>
		<path id="path971-0-7-5" class="st3" d="M28.3,85h283.5l0,0l0,0l0,0"/>
		<g>
			<defs>
				<polygon id="SVGID_5_" points="28.3,85 56.7,85 56.7,85 56.7,113.4 56.7,113.4 28.3,113.4 28.3,113.4 28.3,85 				"/>
			</defs>
			<clipPath id="SVGID_6_">
				<use xlink:href="#SVGID_5_"  style="overflow:visible;"/>
			</clipPath>
			<g transform="matrix(1 0 0 1 0 0)" style="clip-path:url(#SVGID_6_);enable-background:new    ;">
				
					<image style="overflow:visible;" width="900" height="520" id="image1165-1" xlink:href="F19E3F1D.png"  transform="matrix(4.596040e-02 0 0 6.455934e-02 21.0813 82.7266)">
				</image>
			</g>
		</g>
		<g>
			<defs>
				<polygon id="SVGID_7_" points="56.7,85 85,85 85,85 85,113.4 85,113.4 56.7,113.4 56.7,113.4 56.7,85 				"/>
			</defs>
			<clipPath id="SVGID_8_">
				<use xlink:href="#SVGID_7_"  style="overflow:visible;"/>
			</clipPath>
			<g transform="matrix(1 0 0 1 0 0)" style="clip-path:url(#SVGID_8_);enable-background:new    ;">
				
					<image style="overflow:visible;" width="900" height="520" id="image1165-3-0" xlink:href="F19E3F1E.png"  transform="matrix(4.596040e-02 0 0 6.455934e-02 49.4277 82.7266)">
				</image>
			</g>
		</g>
		<g>
			<defs>
				<polygon id="SVGID_9_" points="28.3,141.7 56.7,141.7 56.7,141.7 56.7,170.1 56.7,170.1 28.3,170.1 28.3,170.1 28.3,141.7 				
					"/>
			</defs>
			<clipPath id="SVGID_10_">
				<use xlink:href="#SVGID_9_"  style="overflow:visible;"/>
			</clipPath>
			<g transform="matrix(1 0 0 1 0 0)" style="clip-path:url(#SVGID_10_);enable-background:new    ;">
				
					<image style="overflow:visible;" width="900" height="520" id="image1165-0" xlink:href="F19E3F1C.png"  transform="matrix(4.596040e-02 0 0 6.455934e-02 21.0813 139.4195)">
				</image>
			</g>
		</g>
		<g>
			<defs>
				<polygon id="SVGID_11_" points="56.7,141.7 85,141.7 85,141.7 85,170.1 85,170.1 56.7,170.1 56.7,170.1 56.7,141.7 				"/>
			</defs>
			<clipPath id="SVGID_12_">
				<use xlink:href="#SVGID_11_"  style="overflow:visible;"/>
			</clipPath>
			<g transform="matrix(1 0 0 1 0 0)" style="clip-path:url(#SVGID_12_);enable-background:new    ;">
				
					<image style="overflow:visible;" width="900" height="520" id="image1165-3-3" xlink:href="EBDF1D51.png"  transform="matrix(4.596040e-02 0 0 6.455934e-02 49.4277 139.4195)">
				</image>
			</g>
		</g>
		<g>
			<defs>
				<polygon id="SVGID_13_" points="28.3,198.4 56.7,198.4 56.7,198.4 56.7,226.8 56.7,226.8 28.3,226.8 28.3,226.8 28.3,198.4 				
					"/>
			</defs>
			<clipPath id="SVGID_14_">
				<use xlink:href="#SVGID_13_"  style="overflow:visible;"/>
			</clipPath>
			<g transform="matrix(1 0 0 1 0 0)" style="clip-path:url(#SVGID_14_);enable-background:new    ;">
				
					<image style="overflow:visible;" width="900" height="520" id="image1165-0-3" xlink:href="EBDF1D57.png"  transform="matrix(4.596040e-02 0 0 6.455934e-02 21.0813 196.1124)">
				</image>
			</g>
		</g>
		<g>
			<defs>
				<polygon id="SVGID_15_" points="56.7,198.4 85,198.4 85,198.4 85,226.8 85,226.8 56.7,226.8 56.7,226.8 56.7,198.4 				"/>
			</defs>
			<clipPath id="SVGID_16_">
				<use xlink:href="#SVGID_15_"  style="overflow:visible;"/>
			</clipPath>
			<g transform="matrix(1 0 0 1 0 0)" style="clip-path:url(#SVGID_16_);enable-background:new    ;">
				
					<image style="overflow:visible;" width="900" height="520" id="image1165-3-3-3" xlink:href="EBDF1D50.png"  transform="matrix(4.596040e-02 0 0 6.455934e-02 49.4277 196.1124)">
				</image>
			</g>
		</g>
		<g>
			<defs>
				<polygon id="SVGID_17_" points="28.3,255.1 56.7,255.1 56.7,255.1 56.7,283.5 56.7,283.5 28.3,283.5 28.3,283.5 28.3,255.1 				
					"/>
			</defs>
			<clipPath id="SVGID_18_">
				<use xlink:href="#SVGID_17_"  style="overflow:visible;"/>
			</clipPath>
			<g transform="matrix(1 0 0 1 0 0)" style="clip-path:url(#SVGID_18_);enable-background:new    ;">
				
					<image style="overflow:visible;" width="900" height="520" id="image1165-0-7" xlink:href="EBDF1D53.png"  transform="matrix(4.596040e-02 0 0 6.455934e-02 21.0813 252.8053)">
				</image>
			</g>
		</g>
		<g>
			<defs>
				<polygon id="SVGID_19_" points="56.7,255.1 85,255.1 85,255.1 85,283.5 85,283.5 56.7,283.5 56.7,283.5 56.7,255.1 				"/>
			</defs>
			<clipPath id="SVGID_20_">
				<use xlink:href="#SVGID_19_"  style="overflow:visible;"/>
			</clipPath>
			<g transform="matrix(1 0 0 1 0 0)" style="clip-path:url(#SVGID_20_);enable-background:new    ;">
				
					<image style="overflow:visible;" width="900" height="520" id="image1165-3-3-1" xlink:href="EBDF1D4F.png"  transform="matrix(4.596040e-02 0 0 6.455934e-02 49.4277 252.8053)">
				</image>
			</g>
		</g>
		<g>
			<defs>
				<polygon id="SVGID_21_" points="28.3,311.8 56.7,311.8 56.7,311.8 56.7,340.2 56.7,340.2 28.3,340.2 28.3,340.2 28.3,311.8 				
					"/>
			</defs>
			<clipPath id="SVGID_22_">
				<use xlink:href="#SVGID_21_"  style="overflow:visible;"/>
			</clipPath>
			<g transform="matrix(1 0 0 1 0 0)" style="clip-path:url(#SVGID_22_);enable-background:new    ;">
				
					<image style="overflow:visible;" width="900" height="520" id="image1165-0-74" xlink:href="EBDF1D6F.png"  transform="matrix(4.596040e-02 0 0 6.455934e-02 21.0813 309.4982)">
				</image>
			</g>
		</g>
		<g>
			<defs>
				<polygon id="SVGID_23_" points="56.7,311.8 85,311.8 85,311.8 85,340.2 85,340.2 56.7,340.2 56.7,340.2 56.7,311.8 				"/>
			</defs>
			<clipPath id="SVGID_24_">
				<use xlink:href="#SVGID_23_"  style="overflow:visible;"/>
			</clipPath>
			<g transform="matrix(1 0 0 1 0 0)" style="clip-path:url(#SVGID_24_);enable-background:new    ;">
				
					<image style="overflow:visible;" width="900" height="520" id="image1165-3-3-5" xlink:href="EBDF1D71.png"  transform="matrix(4.596040e-02 0 0 6.455934e-02 49.4277 309.4982)">
				</image>
			</g>
		</g>
		<g>
			<defs>
				<polygon id="SVGID_25_" points="28.3,368.5 56.7,368.5 56.7,368.5 56.7,396.9 56.7,396.9 28.3,396.9 28.3,396.9 28.3,368.5 				
					"/>
			</defs>
			<clipPath id="SVGID_26_">
				<use xlink:href="#SVGID_25_"  style="overflow:visible;"/>
			</clipPath>
			<g transform="matrix(1 0 0 1 0 0)" style="clip-path:url(#SVGID_26_);enable-background:new    ;">
				
					<image style="overflow:visible;" width="900" height="520" id="image1165-0-4" xlink:href="EBDF1D73.png"  transform="matrix(4.596040e-02 0 0 6.455934e-02 21.0813 366.1911)">
				</image>
			</g>
		</g>
		<g>
			<defs>
				<polygon id="SVGID_27_" points="56.7,368.5 85,368.5 85,368.5 85,396.9 85,396.9 56.7,396.9 56.7,396.9 56.7,368.5 				"/>
			</defs>
			<clipPath id="SVGID_28_">
				<use xlink:href="#SVGID_27_"  style="overflow:visible;"/>
			</clipPath>
			<g transform="matrix(1 0 0 1 0 0)" style="clip-path:url(#SVGID_28_);enable-background:new    ;">
				
					<image style="overflow:visible;" width="900" height="520" id="image1165-3-3-53" xlink:href="EBDF1D70.png"  transform="matrix(4.596040e-02 0 0 6.455934e-02 49.4277 366.1911)">
				</image>
			</g>
		</g>
		
			<image style="overflow:visible;enable-background:new    ;" width="686" height="554" id="image1561-8" xlink:href="EBDF1D77.png"  transform="matrix(4.132136e-02 0 0 5.116689e-02 113.3858 141.7323)">
		</image>
		
			<image style="overflow:visible;enable-background:new    ;" width="686" height="554" id="image1561-6-2" xlink:href="EBDF1D94.png"  transform="matrix(4.132136e-02 0 0 5.116689e-02 85.0394 141.7323)">
		</image>
		
			<image style="overflow:visible;enable-background:new    ;" width="686" height="554" id="image1561-0" xlink:href="EBDF1D97.png"  transform="matrix(4.132136e-02 0 0 5.116689e-02 113.3858 198.4252)">
		</image>
		
			<image style="overflow:visible;enable-background:new    ;" width="686" height="554" id="image1561-6-6" xlink:href="EBDF1D95.png"  transform="matrix(4.132136e-02 0 0 5.116689e-02 85.0394 198.4252)">
		</image>
		
			<image style="overflow:visible;enable-background:new    ;" width="686" height="554" id="image1561-07" xlink:href="EBDF1D9B.png"  transform="matrix(4.132136e-02 0 0 5.116689e-02 113.3858 311.811)">
		</image>
		
			<image style="overflow:visible;enable-background:new    ;" width="686" height="554" id="image1561-6-29" xlink:href="EBDF1D9C.png"  transform="matrix(4.132136e-02 0 0 5.116689e-02 85.0394 311.811)">
		</image>
		
			<image style="overflow:visible;enable-background:new    ;" width="686" height="554" id="image1561-81" xlink:href="EBDF1D9F.png"  transform="matrix(4.132136e-02 0 0 5.116689e-02 113.3858 368.5039)">
		</image>
		
			<image style="overflow:visible;enable-background:new    ;" width="686" height="554" id="image1561-6-1" xlink:href="EBDF1D9D.png"  transform="matrix(4.132136e-02 0 0 5.116689e-02 85.0394 368.5039)">
		</image>
		
			<image style="overflow:visible;enable-background:new    ;" width="686" height="554" id="image1561-07-6" xlink:href="EBDF1D9A.png"  transform="matrix(4.132136e-02 0 0 5.116689e-02 113.3858 255.1181)">
		</image>
		
			<image style="overflow:visible;enable-background:new    ;" width="686" height="554" id="image1561-6-29-1" xlink:href="EBDF1D96.png"  transform="matrix(4.132136e-02 0 0 5.116689e-02 85.0394 255.1181)">
		</image>
	</g>
</g>
<g id="Layer_2">
	<circle class="st6" cx="288.4" cy="466.7" r="9.2"/>
</g>
</svg>
