<?xml version="1.0" encoding="UTF-8" standalone="no"?>
<svg
   xmlns:dc="http://purl.org/dc/elements/1.1/"
   xmlns:cc="http://creativecommons.org/ns#"
   xmlns:rdf="http://www.w3.org/1999/02/22-rdf-syntax-ns#"
   xmlns:svg="http://www.w3.org/2000/svg"
   xmlns="http://www.w3.org/2000/svg"
   xmlns:sodipodi="http://sodipodi.sourceforge.net/DTD/sodipodi-0.dtd"
   xmlns:inkscape="http://www.inkscape.org/namespaces/inkscape"
   width="24in"
   height="18in"
   viewBox="0 0 609.59998 457.19999"
   version="1.1"
   id="svg8"
   inkscape:version="1.0.2 (e86c8708, 2021-01-15)"
   sodipodi:docname="circle_stamp_pattern.svg">
  <defs
     id="defs2">
    <clipPath
       clipPathUnits="userSpaceOnUse"
       id="clipPath1121">
      <rect
         style="opacity:1;fill:none;fill-opacity:1;stroke:#000000;stroke-width:2.68346453;stroke-linecap:butt;stroke-linejoin:round;stroke-miterlimit:4;stroke-dasharray:none;stroke-opacity:1;paint-order:stroke markers fill"
         id="rect1123"
         width="1152"
         height="576"
         x="96.018898"
         y="1055.9811" />
    </clipPath>
  </defs>
  <sodipodi:namedview
     id="base"
     pagecolor="#ffffff"
     bordercolor="#666666"
     borderopacity="1.0"
     inkscape:pageopacity="0.0"
     inkscape:pageshadow="2"
     inkscape:zoom="0.37210648"
     inkscape:cx="738.13997"
     inkscape:cy="1245.5667"
     inkscape:document-units="mm"
     inkscape:current-layer="layer1"
     showgrid="false"
     units="in"
     inkscape:window-width="1440"
     inkscape:window-height="847"
     inkscape:window-x="0"
     inkscape:window-y="25"
     inkscape:window-maximized="1"
     inkscape:document-rotation="0" />
  <metadata
     id="metadata5">
    <rdf:RDF>
      <cc:Work
         rdf:about="">
        <dc:format>image/svg+xml</dc:format>
        <dc:type
           rdf:resource="http://purl.org/dc/dcmitype/StillImage" />
        <dc:title></dc:title>
      </cc:Work>
    </rdf:RDF>
  </metadata>
  <g
     inkscape:label="Layer 1"
     inkscape:groupmode="layer"
     id="layer1"
     transform="translate(0,160.2)">
    <path
       style="color:#000000;font-style:normal;font-variant:normal;font-weight:normal;font-stretch:normal;font-size:medium;line-height:normal;font-family:sans-serif;font-variant-ligatures:normal;font-variant-position:normal;font-variant-caps:normal;font-variant-numeric:normal;font-variant-alternates:normal;font-feature-settings:normal;text-indent:0;text-align:start;text-decoration:none;text-decoration-line:none;text-decoration-style:solid;text-decoration-color:#000000;letter-spacing:normal;word-spacing:normal;text-transform:none;writing-mode:lr-tb;direction:ltr;text-orientation:mixed;dominant-baseline:auto;baseline-shift:baseline;text-anchor:start;white-space:normal;shape-padding:0;clip-rule:nonzero;display:inline;overflow:visible;visibility:visible;opacity:1;isolation:auto;mix-blend-mode:normal;color-interpolation:sRGB;color-interpolation-filters:linearRGB;solid-color:#000000;solid-opacity:1;vector-effect:none;fill:none;fill-opacity:1;fill-rule:nonzero;stroke:#000000;stroke-width:0.37795275;stroke-linecap:butt;stroke-linejoin:round;stroke-miterlimit:4;stroke-dasharray:none;stroke-dashoffset:0;stroke-opacity:1;paint-order:stroke markers fill;color-rendering:auto;image-rendering:auto;shape-rendering:auto;text-rendering:auto;enable-background:accumulate"
       d="M 773.96875 826.52344 C 672.28071 826.52344 588.60584 906.34368 582.36328 1006.5098 C 577.30609 1006.1069 572.19657 1005.8965 567.03906 1005.8965 C 562.0619 1005.8965 557.1281 1006.0875 552.24414 1006.4629 C 522.56464 938.63973 454.77002 891.02734 376.23242 891.02734 C 323.05344 891.02734 274.80279 912.85915 239.9707 948.00977 C 208.59799 925.67849 170.28126 912.52344 128.99805 912.52344 C 23.273364 912.52344 -63.003906 998.8007 -63.003906 1104.5254 C -63.003906 1121.572 -60.74879 1138.1082 -56.542969 1153.8633 C -113.38008 1187.2718 -151.69141 1249.072 -151.69141 1319.5156 C -151.69141 1425.2403 -65.412187 1511.5117 40.3125 1511.5117 C 46.362959 1511.5117 52.34535 1511.2166 58.255859 1510.6641 C 58.466032 1514.3186 58.781841 1517.9449 59.195312 1521.543 C -6.4997452 1552.099 -52.255859 1618.7597 -52.255859 1695.748 C -52.255859 1801.4727 34.021411 1887.752 139.74609 1887.752 C 245.47078 1887.752 331.74218 1801.4727 331.74219 1695.748 C 331.74219 1688.3203 331.30112 1680.9938 330.47266 1673.7812 C 339.69309 1669.4928 348.52527 1664.5014 356.88867 1658.8613 C 381.32802 1736.8288 454.33987 1793.6914 540.16992 1793.6914 C 560.12087 1793.6914 579.3777 1790.6156 597.49414 1784.9199 C 632.64441 1823.3014 683.11832 1847.4395 739.03711 1847.4395 C 783.96383 1847.4395 825.37259 1831.8538 858.14648 1805.8242 C 889.7104 1828.6073 928.41053 1842.0645 970.15039 1842.0645 C 1075.8751 1842.0645 1162.1523 1755.7871 1162.1523 1650.0625 C 1162.1523 1649.8405 1162.1453 1649.6203 1162.1445 1649.3984 C 1248.0444 1630.3357 1312.6484 1553.4319 1312.6484 1461.9492 C 1312.6484 1408.3641 1290.4752 1359.7835 1254.8496 1324.8906 C 1350.6045 1314.2171 1425.5176 1232.5982 1425.5176 1134.082 C 1425.5176 1028.3573 1339.2462 942.08789 1233.5215 942.08789 C 1155.0027 942.08789 1087.2219 989.67745 1057.5312 1057.4746 C 1043.2757 1054.0775 1028.4183 1052.2695 1013.1504 1052.2695 C 995.29577 1052.2695 977.99933 1054.7388 961.57617 1059.3379 C 964.44604 1046.1768 965.97266 1032.5256 965.97266 1018.5273 C 965.97266 912.80265 879.69344 826.52344 773.96875 826.52344 z M 773.96875 879.54688 C 851.04004 879.54688 912.95508 941.45602 912.95508 1018.5273 C 912.95508 1048.9865 903.27878 1077.0712 886.82422 1099.9082 C 877.63115 1107.9659 869.20856 1116.8813 861.68555 1126.5312 C 837.80365 1145.9152 807.30711 1157.5059 773.96875 1157.5059 C 767.33633 1157.5059 760.81945 1157.0375 754.44141 1156.1504 C 740.29642 1092.8078 694.68947 1041.091 634.99219 1018.3672 C 635.07813 941.37049 696.95097 879.54688 773.96875 879.54688 z M 376.23242 944.04297 C 429.87706 944.04297 476.16979 974.04143 499.36133 1018.2637 C 426.84957 1045.7387 375.04492 1115.9695 375.04492 1197.8926 C 375.04492 1206.0565 375.5625 1214.1027 376.56055 1222.0039 C 376.4509 1222.0042 376.34213 1222.0078 376.23242 1222.0078 C 346.69761 1222.0078 319.39587 1212.9089 296.94531 1197.3555 C 312.25351 1169.8122 320.99414 1138.1562 320.99414 1104.5254 C 320.99414 1059.0116 304.99517 1017.1108 278.34961 984.13672 C 303.42044 959.32041 337.953 944.04297 376.23242 944.04297 z M 128.99805 965.53906 C 158.53247 965.53906 185.83477 974.64035 208.28516 990.19336 C 192.97706 1017.7365 184.23633 1049.3908 184.23633 1083.0215 C 184.23633 1128.5353 200.2353 1170.438 226.88086 1203.4121 C 220.22195 1210.0031 212.89517 1215.9195 205.00781 1221.0566 C 171.38769 1165.1033 110.09201 1127.5137 40.3125 1127.5137 C 23.995085 1127.5137 8.1433155 1129.5728 -7.0019531 1133.4375 C -8.9548525 1124.117 -9.9882812 1114.4484 -9.9882812 1104.5254 C -9.9882812 1027.4541 51.92673 965.53906 128.99805 965.53906 z M 1233.5215 995.10352 C 1310.5928 995.10352 1372.5 1057.0107 1372.5 1134.082 C 1372.5 1211.1533 1310.5928 1273.0684 1233.5215 1273.0684 C 1223.1827 1273.0684 1213.1199 1271.9455 1203.4395 1269.8301 C 1204.562 1261.4623 1205.1523 1252.9315 1205.1523 1244.2656 C 1205.1523 1172.4905 1165.3798 1109.6925 1106.7617 1076.7559 C 1128.4933 1028.4924 1176.9207 995.10352 1233.5215 995.10352 z M 247.18359 1031.1211 C 260.37004 1052.3909 267.97656 1077.5247 267.97656 1104.5254 C 267.97656 1122.9005 264.45135 1140.41 258.04688 1156.4277 C 244.86043 1135.1579 237.25391 1110.0222 237.25391 1083.0215 C 237.25391 1064.6469 240.77943 1047.1385 247.18359 1031.1211 z M 567.03906 1058.9121 C 573.67423 1058.9121 580.19356 1059.3817 586.57422 1060.2695 C 600.71901 1123.6132 646.32572 1175.3303 706.02344 1198.0527 C 706.01265 1207.7194 705.02669 1217.146 703.16016 1226.2422 C 689.61523 1223.1932 675.54045 1221.5723 661.09961 1221.5723 C 590.51081 1221.5723 528.6039 1260.0396 495.24609 1317.0703 C 473.52845 1304.0114 455.7291 1285.1784 443.91797 1262.6543 C 516.42849 1235.1756 568.23633 1164.9423 568.23633 1083.0215 C 568.23633 1074.8596 567.71834 1066.8152 566.7207 1058.916 C 566.82709 1058.9158 566.93262 1058.9121 567.03906 1058.9121 z M 514.5332 1069.0898 C 514.98392 1073.6705 515.21875 1078.3172 515.21875 1083.0215 C 515.21875 1141.4836 479.58851 1191.216 428.74609 1211.8281 C 428.29517 1207.2461 428.06055 1202.5982 428.06055 1197.8926 C 428.06055 1139.4281 463.68963 1089.6984 514.5332 1069.0898 z M 654.3418 1089.5508 C 667.22434 1099.925 678.19527 1112.5599 686.67383 1126.8691 C 673.79137 1116.495 662.82013 1103.8603 654.3418 1089.5508 z M 1013.1504 1105.2852 C 1023.4889 1105.2852 1033.5503 1106.4083 1043.2305 1108.5234 C 1042.1085 1116.8892 1041.5176 1125.4183 1041.5176 1134.082 C 1041.5176 1187.6682 1063.6916 1236.2496 1099.3184 1271.1426 C 1036.1115 1278.1874 981.99182 1316.1406 952.5 1369.4688 C 906.03515 1347.043 874.16992 1299.557 874.16992 1244.2656 C 874.16992 1213.8033 883.84834 1185.7133 900.30469 1162.875 C 909.49642 1154.8179 917.91932 1145.9046 925.44141 1136.2559 C 949.32092 1116.8745 979.81455 1105.2852 1013.1504 1105.2852 z M 1094.5684 1131.4395 C 1129.4986 1156.6202 1152.1367 1197.6689 1152.1367 1244.2656 C 1152.1367 1245.151 1152.1178 1246.0308 1152.1016 1246.9121 C 1117.1716 1221.7292 1094.5352 1180.6786 1094.5352 1134.082 C 1094.5352 1133.1984 1094.5522 1132.319 1094.5684 1131.4395 z M 40.3125 1180.5371 C 88.210713 1180.5371 130.2466 1204.4511 155.21094 1241.0527 C 146.72651 1242.6558 137.96683 1243.5039 128.99805 1243.5039 C 81.100144 1243.5039 39.062258 1219.5895 14.095703 1182.9883 C 22.581482 1181.3848 31.342386 1180.5371 40.3125 1180.5371 z M -35.701172 1202.9863 C -2.0784288 1258.9356 59.219946 1296.5215 128.99805 1296.5215 C 145.312 1296.5215 161.16067 1294.4604 176.30273 1290.5977 C 178.25624 1299.92 179.29102 1309.5905 179.29102 1319.5156 C 179.29102 1320.0407 179.27722 1320.5623 179.27148 1321.0859 C 121.25239 1344.1867 76.982841 1394.8256 62.771484 1456.6992 C 55.464062 1457.874 47.964635 1458.4941 40.3125 1458.4941 C -36.758822 1458.4941 -98.673828 1396.5869 -98.673828 1319.5156 C -98.673828 1270.5567 -73.684323 1227.7248 -35.701172 1202.9863 z M 825.55078 1203.4512 C 822.68084 1216.6129 821.1543 1230.2667 821.1543 1244.2656 C 821.1543 1321.619 867.33936 1388.5538 933.5332 1418.9121 C 930.34069 1432.7557 928.64844 1447.162 928.64844 1461.9492 C 928.64844 1462.1706 928.65549 1462.3902 928.65625 1462.6113 C 899.84331 1469.0046 873.42838 1481.9013 851.04297 1499.6797 C 846.49937 1496.4001 841.80786 1493.316 836.98047 1490.4355 C 847.33749 1466.8781 853.10352 1440.8793 853.10352 1413.5762 C 853.10352 1341.1534 812.61373 1277.8622 753.125 1245.1719 C 756.02868 1233.7837 757.90113 1221.9932 758.6543 1209.9082 C 763.70837 1210.3106 768.81447 1210.5215 773.96875 1210.5215 C 791.82618 1210.5215 809.12496 1208.0516 825.55078 1203.4512 z M 265.25977 1239.5391 C 296.63248 1261.8703 334.94921 1275.0254 376.23242 1275.0254 C 381.21288 1275.0254 386.14995 1274.833 391.03711 1274.457 C 408.13156 1313.5215 437.86582 1345.8814 475.02148 1366.2988 C 471.16315 1381.433 469.10352 1397.2719 469.10352 1413.5762 C 469.10352 1416.8282 469.18831 1420.0602 469.34961 1423.2734 C 456.57742 1428.3724 444.47177 1434.8036 433.20898 1442.3984 C 408.7702 1364.4319 335.75845 1307.5723 249.92773 1307.5723 C 243.87461 1307.5723 237.88965 1307.8669 231.97656 1308.4199 C 231.22095 1295.2801 229.13474 1282.4875 225.84766 1270.1738 C 240.28937 1261.6858 253.53565 1251.3702 265.25977 1239.5391 z M 661.09961 1274.5898 C 668.23771 1274.5898 675.245 1275.1234 682.08594 1276.1484 C 657.13702 1312.8697 615.02799 1336.8789 567.03906 1336.8789 C 559.90233 1336.8789 552.89816 1336.343 546.05859 1335.3184 C 571.00536 1298.5971 613.11065 1274.5898 661.09961 1274.5898 z M 732.89844 1294.3984 C 773.23807 1318.6551 800.08594 1362.828 800.08594 1413.5762 C 800.08594 1433.65 795.87698 1452.6903 788.30273 1469.8809 C 772.56944 1465.6875 756.05757 1463.4414 739.03711 1463.4414 C 719.08491 1463.4414 699.82684 1466.5165 681.70898 1472.2129 C 646.56067 1433.8315 596.08864 1409.6934 540.16992 1409.6934 C 534.09659 1409.6934 528.09052 1409.9902 522.1582 1410.5469 C 522.34118 1401.8828 523.30518 1393.4203 524.98633 1385.2266 C 538.52927 1388.2747 552.60024 1389.8945 567.03906 1389.8945 C 637.62716 1389.8945 699.53821 1351.4282 732.89844 1294.3984 z M 1120.6445 1322.9629 C 1123.0339 1322.9629 1125.4087 1323.023 1127.7676 1323.1406 C 1102.7671 1359.511 1060.8681 1383.252 1013.1504 1383.252 C 1010.7623 1383.252 1008.3888 1383.1898 1006.0312 1383.0723 C 1031.0296 1346.7019 1072.9268 1322.9629 1120.6445 1322.9629 z M 1181.2988 1336.7441 C 1227.7649 1359.1702 1259.6309 1406.6586 1259.6309 1461.9492 C 1259.6309 1527.2959 1215.1189 1581.7341 1154.5996 1596.7871 C 1132.4341 1520.3859 1063.8839 1463.351 981.71094 1458.4258 C 981.91514 1450.1138 982.84013 1441.9898 984.42578 1434.1113 C 993.80009 1435.5288 1003.3921 1436.2676 1013.1504 1436.2676 C 1085.3875 1436.2676 1148.5359 1395.9829 1181.2988 1336.7441 z M 249.92773 1360.5879 C 321.97522 1360.5879 380.76597 1414.6913 388.125 1484.7051 C 363.78338 1516.2431 349.00829 1555.5003 348.21289 1598.0684 C 338.94832 1607.3135 328.37406 1615.2449 316.78711 1621.5781 C 287.6698 1552.4845 219.20415 1503.7539 139.74609 1503.7539 C 130.01342 1503.7539 120.44859 1504.4903 111.09766 1505.9004 C 111.00461 1503.8005 110.94922 1501.6922 110.94922 1499.5684 C 110.94922 1499.0426 110.963 1498.5204 110.96875 1497.9961 C 168.98613 1474.8953 213.25064 1424.2583 227.46094 1362.3848 C 234.77121 1361.209 242.27244 1360.5879 249.92773 1360.5879 z M 155.82227 1397.0801 C 149.68997 1406.2244 142.49745 1414.5868 134.41797 1422.0039 C 140.54975 1412.8604 147.74361 1404.4967 155.82227 1397.0801 z M 540.16992 1462.709 C 575.15994 1462.709 607.02351 1475.4714 631.38867 1496.6172 C 616.16789 1506.9776 602.49816 1519.4628 590.81836 1533.6426 C 563.61313 1517.7522 542.37673 1492.8778 531.09375 1463.0078 C 534.09429 1462.8167 537.11898 1462.709 540.16992 1462.709 z M 479.70508 1476.3965 C 494.68518 1519.4211 524.5867 1555.5637 563.16016 1578.5781 C 552.80203 1602.1374 547.03516 1628.1387 547.03516 1655.4434 C 547.03516 1685.0874 553.81927 1713.2002 565.91211 1738.3125 C 557.57456 1739.8582 548.97276 1740.6738 540.16992 1740.6738 C 468.12511 1740.6738 409.33019 1686.5714 401.9668 1616.5605 C 426.3113 1585.0203 441.09096 1545.7601 441.88672 1503.1895 C 452.83049 1492.2708 465.59561 1483.1789 479.70508 1476.3965 z M 991.11523 1512.6406 C 1040.9806 1520.1038 1081.9647 1553.8067 1099.6875 1599.373 C 1049.8202 1591.9124 1008.8377 1558.2082 991.11523 1512.6406 z M 936.20117 1515.2246 C 958.36587 1591.6288 1026.9169 1648.6647 1109.0938 1653.5859 C 1107.2406 1729.0121 1046.0436 1789.0488 970.15039 1789.0488 C 942.41073 1789.0488 916.63536 1781.0253 895.00391 1767.1641 C 917.66075 1735.6524 931.0332 1697.0574 931.0332 1655.4434 C 931.0332 1610.635 915.53294 1569.3243 889.62695 1536.5898 C 903.46672 1526.7788 919.20395 1519.452 936.20117 1515.2246 z M 739.03711 1516.457 C 744.06359 1516.457 749.02368 1516.7265 753.9082 1517.2402 C 744.25563 1525.8789 733.38346 1533.1857 721.56445 1538.8672 C 719.17443 1532.0028 716.41351 1525.3092 713.28906 1518.8203 C 721.62866 1517.2738 730.23215 1516.457 739.03711 1516.457 z M 809.32031 1535.3711 C 810.96251 1536.3304 812.58769 1537.3159 814.18555 1538.3398 C 791.52774 1569.8519 778.1543 1608.4475 778.1543 1650.0625 C 778.1543 1694.8704 793.65496 1736.1817 819.56055 1768.916 C 796.88074 1784.9934 769.11322 1794.4219 739.03711 1794.4219 C 704.04615 1794.4219 672.18152 1781.6604 647.81445 1760.5137 C 698.65476 1725.9071 732.16602 1667.5779 732.16602 1601.6895 C 732.16602 1598.4374 732.08122 1595.2035 731.91992 1591.9902 C 762.26846 1579.8744 788.84774 1560.2255 809.32031 1535.3711 z M 663.99805 1538.2695 C 666.30597 1542.7906 668.36454 1547.461 670.17578 1552.2559 C 667.17524 1552.447 664.15055 1552.5547 661.09961 1552.5547 C 656.07512 1552.5547 651.11702 1552.2848 646.23438 1551.7715 C 651.77214 1546.8155 657.70755 1542.292 663.99805 1538.2695 z M 139.74609 1556.7695 C 196.03111 1556.7695 244.22307 1589.7906 266.12695 1637.6191 C 260.81406 1638.2291 255.41096 1638.5527 249.92773 1638.5527 C 193.6452 1638.5527 145.45797 1605.5303 123.55273 1557.7031 C 128.8638 1557.0937 134.26489 1556.7695 139.74609 1556.7695 z M 72.884766 1573.7461 C 102.00592 1642.8379 170.47252 1691.5703 249.92773 1691.5703 C 259.65974 1691.5703 269.22584 1690.8319 278.57617 1689.4219 C 278.66899 1691.5192 278.72461 1693.6268 278.72461 1695.748 C 278.72461 1772.8193 216.81741 1834.7344 139.74609 1834.7344 C 62.674777 1834.7344 0.75976562 1772.8193 0.75976562 1695.748 C 0.75976563 1642.9566 29.813095 1597.2861 72.884766 1573.7461 z M 852.79297 1575.3262 C 868.69584 1597.9324 878.01758 1625.5463 878.01758 1655.4434 C 878.01758 1683.0083 870.09405 1708.6307 856.39453 1730.1777 C 840.49182 1707.5715 831.17188 1679.9594 831.17188 1650.0625 C 831.17187 1622.4976 839.09344 1596.8732 852.79297 1575.3262 z M 611.83594 1599.1309 C 627.56873 1603.3236 644.07975 1605.5723 661.09961 1605.5723 C 667.17294 1605.5723 673.17901 1605.2735 679.11133 1604.7168 C 678.09534 1652.8278 652.94566 1694.7299 615.20508 1718.8633 C 605.51157 1699.8762 600.05078 1678.328 600.05078 1655.4434 C 600.05078 1635.3673 604.26011 1616.3236 611.83594 1599.1309 z "
       id="path821-0"
       transform="matrix(0.26458333,0,0,0.26458333,0,-160.2)"
       clip-path="url(#clipPath1121)" />
  </g>
</svg>
