<?xml version="1.0" encoding="UTF-8" standalone="no"?>
<svg
   xmlns:dc="http://purl.org/dc/elements/1.1/"
   xmlns:cc="http://creativecommons.org/ns#"
   xmlns:rdf="http://www.w3.org/1999/02/22-rdf-syntax-ns#"
   xmlns:svg="http://www.w3.org/2000/svg"
   xmlns="http://www.w3.org/2000/svg"
   xmlns:sodipodi="http://sodipodi.sourceforge.net/DTD/sodipodi-0.dtd"
   xmlns:inkscape="http://www.inkscape.org/namespaces/inkscape"
   width="11in"
   height="8.5in"
   viewBox="0 0 279.4 215.9"
   version="1.1"
   id="svg8"
   inkscape:version="1.0.2 (e86c8708, 2021-01-15)"
   sodipodi:docname="plane.svg">
  <defs
     id="defs2">
    <rect
       x="103.87346"
       y="72.025459"
       width="15.434028"
       height="15.434028"
       id="rect995" />
  </defs>
  <sodipodi:namedview
     id="base"
     pagecolor="#ffffff"
     bordercolor="#666666"
     borderopacity="1.0"
     inkscape:pageopacity="0.0"
     inkscape:pageshadow="2"
     inkscape:zoom="0.56925505"
     inkscape:cx="396.85039"
     inkscape:cy="561.25984"
     inkscape:document-units="mm"
     inkscape:current-layer="layer1"
     inkscape:document-rotation="0"
     showgrid="false"
     inkscape:window-width="1252"
     inkscape:window-height="847"
     inkscape:window-x="0"
     inkscape:window-y="25"
     inkscape:window-maximized="0"
     units="in" />
  <metadata
     id="metadata5">
    <rdf:RDF>
      <cc:Work
         rdf:about="">
        <dc:format>image/svg+xml</dc:format>
        <dc:type
           rdf:resource="http://purl.org/dc/dcmitype/StillImage" />
        <dc:title></dc:title>
      </cc:Work>
    </rdf:RDF>
  </metadata>
  <g
     inkscape:groupmode="layer"
     id="layer2"
     inkscape:label="Raster"
     style="display:inline">
    <g
       id="g872"
       transform="matrix(1.7380179,0,0,1.7380179,-74.897577,-132.31733)">
      <path
         style="fill:#8c8c8c;fill-opacity:1;stroke-width:0.142707"
         d="m 81.099629,194.20874 c -2.872581,-0.28024 -4.856724,-0.73523 -6.251634,-1.43358 -1.591714,-0.79687 -2.096727,-1.41096 -2.096727,-2.54961 0,-1.18066 0.821476,-2.34844 2.546379,-3.61981 0.522469,-0.3851 8.848777,-5.46898 18.502907,-11.2975 9.654126,-5.82853 17.670136,-10.67798 17.813346,-10.77658 0.23373,-0.16091 -0.92047,-1.23582 -11.27957,-10.50462 L 88.79439,143.70167 80.523091,132.47253 c -5.851571,-7.94411 -8.33392,-11.20854 -8.485358,-11.15873 -0.117733,0.0387 -1.723187,0.9268 -3.567675,1.97349 -3.335102,1.89259 -3.360816,1.90406 -4.658115,2.07931 -1.734955,0.23435 -4.487064,0.1244 -5.298372,-0.21168 -0.688408,-0.28518 -1.174661,-0.81821 -1.174661,-1.28767 0,-0.71671 0.682293,-1.2786 5.636927,-4.64223 2.790334,-1.89431 4.988154,-3.47939 4.97981,-3.59146 -0.0082,-0.11034 -0.667206,-1.07616 -1.464428,-2.14627 -1.862196,-2.49962 -2.56788,-3.9376 -2.726101,-5.55497 -0.06412,-0.65547 -0.922387,-4.69166 -1.907256,-8.969302 -0.98487,-4.277643 -2.117374,-9.211914 -2.516677,-10.965048 l -0.726005,-3.187517 0.301079,-0.487155 c 0.712343,-1.152595 2.331999,-2.089287 3.633811,-2.101534 1.613016,-0.01517 3.177186,0.964181 4.678144,2.929072 0.736507,0.964155 1.009732,1.585649 3.7509,8.532023 5.363352,13.591231 6.181417,15.621531 6.311863,15.665011 0.07103,0.0237 1.924913,-0.85939 4.119753,-1.96237 4.252447,-2.137 5.330782,-2.51479 6.837118,-2.39534 1.493096,0.1184 2.293503,0.8686 2.439876,2.28681 l 0.07867,0.76224 -0.75401,0.67792 c -0.999512,0.89865 -2.843548,2.22191 -4.524995,3.24709 l -1.364804,0.83213 0.629128,0.27105 c 0.346019,0.14908 6.761961,3.00208 14.257647,6.34001 12.70596,5.65814 14.70849,6.60117 29.58225,13.93083 l 15.95374,7.86186 0.52893,-0.34281 c 0.29091,-0.18854 7.8819,-4.62949 16.86888,-9.86877 9.93909,-5.79436 16.84307,-9.73222 17.62431,-10.05249 2.08294,-0.85388 3.0617,-1.0625 4.99475,-1.06458 1.58259,-0.002 1.76729,0.0271 2.43507,0.3795 0.87394,0.46124 1.69741,1.34101 2.07103,2.21265 0.39213,0.91479 0.60721,2.49884 0.51787,3.81413 l -0.0766,1.12798 -2.18826,2.20086 c -2.61435,2.6294 -6.76219,6.52127 -9.32362,8.74825 -1.02036,0.88712 -1.86776,1.65035 -1.88312,1.69606 -0.0154,0.0457 0.68541,0.50053 1.55726,1.01071 0.87185,0.51017 1.76081,1.10253 1.97547,1.31634 1.49987,1.49395 0.92057,5.39533 -1.11159,7.48627 -0.80636,0.82968 -2.00906,1.38998 -2.76577,1.28848 -0.77199,-0.10354 -4.97291,-2.1702 -8.19762,-4.03285 l -0.43587,-0.25177 -2.00694,1.19959 c -1.10383,0.65978 -2.24311,1.32981 -2.53174,1.48897 l -0.5248,0.28937 7.52298,3.70642 c 7.15526,3.52526 7.54615,3.73781 7.99729,4.3486 0.70779,0.95828 1.92649,3.41391 2.66921,5.37839 0.66088,1.74798 1.97735,6.15355 2.45472,8.21471 l 0.25621,1.10622 1.06949,0.81916 c 1.86717,1.43014 3.28576,3.46574 3.80464,5.45946 0.1781,0.68432 0.22498,1.30841 0.17876,2.37966 -0.0579,1.34196 -0.0996,1.51436 -0.55035,2.27376 -0.68426,1.15288 -2.56884,3.01299 -3.86928,3.81903 -5.0084,3.10432 -12.47098,3.69112 -22.1019,1.73795 l -1.77355,-0.35969 -14.44546,-7.21383 -14.44546,-7.21384 -6.74653,3.45074 c -3.7106,1.89791 -6.76343,3.46372 -6.78409,3.47958 -0.0206,0.0159 0.80464,0.53605 1.83398,1.15598 2.09668,1.26276 2.46438,1.68595 2.69475,3.10139 0.39671,2.43747 -1.16263,5.65128 -3.20681,6.60925 -1.26345,0.5921 -1.56376,0.51892 -5.02957,-1.22558 -1.7076,-0.85952 -4.03571,-2.1229 -5.17357,-2.80751 l -2.06884,-1.24475 -6.10959,3.10676 -6.109584,3.10675 -1.811066,0.33048 c -3.448714,0.62931 -9.085849,1.05281 -11.229731,0.84366 z m 7.714342,-1.26173 c 0.946354,-0.12229 2.455481,-0.3504 3.353615,-0.50691 l 1.632968,-0.28455 4.923392,-2.51282 c 2.707864,-1.38204 11.666294,-5.95304 19.907634,-10.15777 8.24133,-4.20473 16.14016,-8.24343 17.55296,-8.97489 l 2.56872,-1.32993 -0.031,-0.49864 c -0.1301,-2.0921 -3.80582,-5.31742 -8.95954,-7.86167 -2.68122,-1.32365 -4.25064,-1.80148 -5.99369,-1.82488 -1.35928,-0.0182 -1.87341,0.14274 -2.64008,0.8267 -0.19622,0.17506 -10.18215,6.24682 -22.190944,13.49282 -12.008795,7.246 -22.219483,13.44528 -22.690416,13.77618 -1.187003,0.83405 -2.294789,2.0443 -2.500889,2.73219 -0.25436,0.84898 0.03909,1.30549 1.244684,1.93635 1.244553,0.65125 2.630237,1.06656 4.407741,1.32106 1.789795,0.25627 6.967699,0.18299 9.414845,-0.13324 z m 29.209079,-1.25138 c 0.7799,-0.23366 1.82839,-1.21875 2.35411,-2.21176 1.15498,-2.18159 1.19833,-4.33594 0.10917,-5.4251 -0.3816,-0.3816 -0.58282,-0.47049 -1.06498,-0.47049 -0.99359,0 -1.12418,0.14063 -0.96191,1.03588 0.10499,0.57926 0.0853,1.02697 -0.0813,1.84381 -0.29854,1.46391 -0.83382,2.53382 -1.77785,3.55347 l -0.79165,0.85508 0.34118,0.36728 c 0.57707,0.62122 0.98195,0.71888 1.87326,0.45183 z m -3.04047,-1.29215 c -0.073,-0.25457 -0.13274,-0.8851 -0.13274,-1.40117 0,-2.3561 1.46099,-4.91394 3.29104,-5.76181 l 0.71846,-0.33287 -1.1373,-0.656 -1.13729,-0.65599 -4.71727,2.38771 c -2.59449,1.31324 -4.71873,2.42964 -4.72054,2.48089 -0.008,0.22583 7.4317,4.38331 7.87132,4.3987 0.0534,0.002 0.0373,-0.20489 -0.0357,-0.45946 z m 1.39721,-0.58078 c 0.75106,-0.81479 1.24745,-1.69295 1.54778,-2.7381 0.26707,-0.92944 0.33183,-2.71257 0.10669,-2.93771 -0.21864,-0.21864 -1.43064,1.17629 -1.9076,2.19552 -0.2294,0.49023 -0.49006,1.25464 -0.57924,1.69868 -0.16424,0.8178 -0.0649,2.39712 0.15076,2.39712 0.0628,0 0.36957,-0.27698 0.68161,-0.61551 z m 58.14214,-0.67051 c 5.64475,-0.5514 9.77178,-2.55826 11.92822,-5.80035 0.97581,-1.46708 0.92936,-3.70773 -0.12109,-5.84151 -0.54667,-1.11044 -2.06424,-2.79485 -3.335,-3.70165 -0.81359,-0.58056 -0.89509,-0.68847 -1.05304,-1.39428 -0.0942,-0.42076 -0.23602,-0.99975 -0.31524,-1.28666 l -0.14403,-0.52164 -0.53662,0.33876 c -0.95224,0.60112 -2.48824,1.32578 -3.76445,1.77601 -3.50888,1.23787 -7.63774,1.23782 -10.84789,-1.5e-4 -1.51568,-0.5845 -1.6106,-0.77005 -1.59497,-3.11773 0.0114,-1.71837 0.42768,-4.27838 0.74767,-4.59837 0.0647,-0.0647 0.72298,0.0405 1.46287,0.23372 4.00753,1.04664 8.26474,0.91319 11.57343,-0.36277 0.61437,-0.23693 1.11704,-0.46064 1.11704,-0.49714 0,-0.22035 -1.06238,-2.75546 -1.60825,-3.83769 -1.28087,-2.53945 -0.43689,-1.97659 -10.21389,-6.81167 -4.76098,-2.35448 -9.87647,-4.87577 -11.36775,-5.60288 -1.49129,-0.72711 -5.53704,-2.71814 -8.99055,-4.42451 -3.45351,-1.70637 -8.33409,-4.11351 -10.84573,-5.34919 -2.51164,-1.23568 -9.02979,-4.44671 -14.48476,-7.13563 -8.68766,-4.2824 -12.12105,-5.86953 -27.674359,-12.79284 -9.765919,-4.34715 -17.785112,-7.9328 -17.820426,-7.96812 -0.03532,-0.0353 -2.180547,-5.41145 -4.767178,-11.946981 -3.303859,-8.347711 -4.848314,-12.080778 -5.191536,-12.54834 -1.250391,-1.703373 -2.900563,-2.840512 -4.11643,-2.836645 -0.638645,0.002 -1.784293,0.593389 -2.406274,1.242065 l -0.540829,0.56404 2.577981,11.256813 c 1.417889,6.191248 2.544832,11.343198 2.504319,11.448768 -0.125368,0.32671 0.198117,1.46061 0.704604,2.46982 0.266113,0.53025 1.172363,1.89681 2.013886,3.03681 l 1.530045,2.07273 0.870157,-0.61292 c 2.830033,-1.9934 2.787832,-1.97189 3.750053,-1.91119 1.646764,0.10388 4.733105,1.97024 5.404203,3.268 0.113832,0.22013 0.206968,0.5933 0.206968,0.82927 0,0.40983 -0.137398,0.50673 -3.067105,2.1631 -1.967012,1.11208 -3.032113,1.7925 -2.969546,1.89703 0.09901,0.1654 6.617056,9.01689 12.92155,17.54743 l 3.46136,4.68353 11.616757,10.391 11.61675,10.39101 3.79561,-2.2896 c 2.08758,-1.25928 3.95614,-2.43245 4.15237,-2.60705 0.83158,-0.73995 1.24227,-0.85003 3.13955,-0.84147 1.55592,0.007 1.93883,0.0591 2.99685,0.40726 3.78274,1.24492 8.61467,4.20779 10.96299,6.72235 1.31902,1.41239 1.80929,2.39784 1.80929,3.63672 v 0.9276 l -1.21301,0.62303 c -0.66716,0.34267 -2.39552,1.23487 -3.8408,1.98268 l -2.62778,1.35965 13.75893,6.89923 c 10.17943,5.10434 14.03738,6.97215 14.82924,7.1795 2.19323,0.57433 4.87179,0.99433 8.56242,1.34261 1.16398,0.10984 4.07326,0.0823 5.44342,-0.0516 z m -20.24928,-18.27625 c -1.56238,-0.88215 -2.03357,-1.21475 -2.03357,-1.43542 0,-0.15798 0.36187,-2.19286 0.80415,-4.52197 0.78901,-4.15505 0.96714,-4.73422 1.456,-4.73422 0.28524,0 3.83629,1.95793 4.18685,2.3085 0.14885,0.14885 0.24312,0.31646 0.20948,0.37246 -0.0336,0.056 -0.42672,2.02837 -0.87351,4.38303 -0.80636,4.24968 -0.9727,4.78376 -1.4882,4.77826 -0.12519,-0.001 -1.14273,-0.51912 -2.2612,-1.15064 z m 2.5003,0.68927 c 0.12836,-0.15802 1.74524,-8.25273 1.74524,-8.73732 0,-0.10561 -0.90423,-0.68798 -2.00941,-1.29416 -1.68938,-0.92661 -2.03849,-1.07069 -2.19207,-0.90468 -0.16946,0.18319 -1.8849,8.79342 -1.77181,8.89322 0.12905,0.11388 3.91445,2.21746 3.99359,2.21928 0.0493,0.001 0.15476,-0.0782 0.23446,-0.17634 z m -11.48548,-8.18845 c -0.4136,-0.20394 -1.03998,-1.15077 -1.03998,-1.57203 0,-0.0796 0.22711,-0.97335 0.50469,-1.98616 0.56111,-2.04733 0.87536,-2.53058 1.80915,-2.78202 0.72084,-0.1941 1.7028,0.21487 2.02859,0.84487 0.32443,0.62739 0.27969,1.25138 -0.21838,3.04587 -0.50867,1.83262 -0.67775,2.14352 -1.33552,2.45565 -0.60074,0.28507 -1.16187,0.28309 -1.74855,-0.006 z m 1.8762,-0.51668 c 0.40828,-0.38964 0.55625,-0.72119 0.9255,-2.07371 0.24174,-0.88546 0.43953,-1.77268 0.43953,-1.97161 0,-1.27961 -1.54474,-1.96754 -2.53916,-1.13079 -0.34369,0.2892 -0.50201,0.65019 -0.86719,1.97731 -0.56744,2.06212 -0.57734,2.63127 -0.0543,3.11862 0.75276,0.70139 1.41804,0.72685 2.09562,0.0802 z m -8.98123,-3.44325 c -0.6161,-0.28071 -1.06929,-0.82814 -1.16284,-1.40466 -0.0879,-0.54165 0.67658,-3.62712 1.04578,-4.2208 0.51253,-0.82415 1.73123,-1.11803 2.5545,-0.616 0.47109,0.28727 0.91617,1.06512 0.91617,1.60115 0,0.41251 -0.82423,3.35342 -1.07973,3.85251 -0.38697,0.75594 -1.49856,1.14106 -2.27388,0.7878 z m 1.68049,-0.57107 c 0.35572,-0.32967 0.62341,-1.05476 1.19421,-3.23481 0.23614,-0.90189 0.23508,-0.95395 -0.0307,-1.49842 -0.21384,-0.43814 -0.4094,-0.61044 -0.87591,-0.77171 -0.5388,-0.18626 -0.6519,-0.18317 -1.099,0.03 -0.27411,0.13072 -0.5924,0.38469 -0.70731,0.56439 -0.35121,0.54927 -1.1181,3.65298 -1.01669,4.11471 0.22758,1.03612 1.7578,1.51643 2.53537,0.7958 z m -8.60178,-3.90614 c -0.30909,-0.1544 -0.60288,-0.4613 -0.77074,-0.80511 l -0.27126,-0.5556 0.45596,-1.65514 c 0.50446,-1.83122 0.86664,-2.37509 1.68371,-2.52837 0.95638,-0.17942 1.89741,0.60297 1.89864,1.57855 7.1e-4,0.5526 -0.70232,3.04883 -0.98174,3.48589 -0.20834,0.32588 -0.94625,0.72999 -1.33213,0.72952 -0.10063,-1.2e-4 -0.40773,-0.1125 -0.68244,-0.24974 z m 1.71248,-0.62877 c 0.22951,-0.33475 0.99801,-2.87631 0.9986,-3.30254 0.001,-0.78626 -0.86722,-1.49435 -1.60531,-1.3091 -0.60768,0.15252 -0.92303,0.64466 -1.3193,2.05889 -0.43159,1.54028 -0.47011,1.9551 -0.22423,2.41452 0.39612,0.74016 1.68091,0.82275 2.15024,0.13823 z m -8.36573,-3.03671 c -0.89762,-0.39067 -1.12714,-1.27789 -0.70629,-2.73021 0.11217,-0.38707 0.2744,-0.97377 0.36052,-1.30378 0.32174,-1.23287 1.32073,-1.87059 2.2969,-1.46624 1.06479,0.44105 1.21258,1.23289 0.62032,3.32377 -0.44716,1.57866 -0.64432,1.91535 -1.27623,2.17938 -0.58753,0.24548 -0.72518,0.24517 -1.29522,-0.003 z m 1.50578,-0.4728 c 0.32552,-0.26479 1.14458,-2.76341 1.14918,-3.5057 0.007,-1.19749 -1.4433,-1.78516 -2.24842,-0.91081 -0.31396,0.34096 -1.03135,2.7857 -1.03135,3.51467 0,0.96808 1.3478,1.53858 2.13059,0.90184 z m -8.38826,-3.67856 c -0.23572,-0.19835 -0.46951,-0.54699 -0.51954,-0.77477 -0.11448,-0.52121 0.5796,-3.17222 0.95573,-3.65039 0.58513,-0.74387 1.89792,-0.69395 2.44921,0.0931 0.32672,0.46646 0.29097,1.12221 -0.14491,2.65817 -0.29331,1.03356 -0.47101,1.40926 -0.79584,1.68258 -0.57029,0.47987 -1.36824,0.47629 -1.94465,-0.009 z m 1.74877,-0.24588 c 0.36664,-0.32788 1.08393,-2.5227 1.08393,-3.3167 0,-0.87351 -1.27614,-1.39927 -1.99111,-0.82032 -0.37041,0.29994 -1.1858,3.04659 -1.0569,3.56017 0.1127,0.44903 0.71467,0.89794 1.20411,0.89794 0.2205,0 0.56249,-0.14449 0.75997,-0.32109 z m -12.42295,-2.53618 c -0.70889,-0.38355 -1.36494,-0.78902 -1.4579,-0.90103 -0.13344,-0.16078 0.0136,-0.87572 0.69843,-3.39581 1.15231,-4.24039 1.24671,-4.51807 1.57111,-4.62103 0.40035,-0.12706 2.99079,1.34208 2.991,1.69631 1.2e-4,0.20193 -1.4038,5.54763 -1.94428,7.40322 -0.16744,0.57486 -0.52472,0.53993 -1.85836,-0.18166 z m 1.47739,0.11016 c 0.23469,-0.30886 2.06444,-7.27514 1.94231,-7.39485 -0.064,-0.0627 -0.62936,-0.40575 -1.25635,-0.76226 -0.89874,-0.51103 -1.1767,-0.61118 -1.3135,-0.47324 -0.13082,0.1319 -1.98007,6.57799 -2.09299,7.2957 -0.0213,0.13562 2.14988,1.47982 2.42407,1.50075 0.0885,0.007 0.2219,-0.068 0.29646,-0.1661 z m 3.95922,-0.47114 c -0.46735,-0.23065 -0.92027,-0.87014 -0.92027,-1.29934 0,-0.14504 0.19163,-0.93785 0.42584,-1.76182 0.33276,-1.17065 0.51213,-1.56816 0.82057,-1.81851 0.94809,-0.76953 2.46599,-0.11884 2.4622,1.0555 -0.002,0.56663 -0.56599,2.793 -0.83522,3.29606 -0.15496,0.28954 -0.97644,0.75215 -1.32518,0.74626 -0.10587,-0.002 -0.38845,-0.1 -0.62794,-0.21815 z m 1.47349,-0.49271 c 0.16884,-0.1573 0.37816,-0.55866 0.46516,-0.89192 0.087,-0.33326 0.24994,-0.92262 0.36211,-1.30969 0.30131,-1.03976 0.26153,-1.46845 -0.17367,-1.87178 -0.45186,-0.41876 -1.16443,-0.46237 -1.61351,-0.0987 -0.36272,0.29372 -1.19651,3.07369 -1.0589,3.53051 0.26598,0.88298 1.37978,1.23696 2.01881,0.64161 z m -11.02754,-5.69451 c -0.37675,-0.16132 -0.72558,-0.57717 -0.8244,-0.98276 -0.12622,-0.51806 0.57768,-2.89932 0.97796,-3.3084 0.6955,-0.7108 2.05587,-0.30353 2.24222,0.67128 0.10331,0.54046 -0.57717,2.90669 -0.94388,3.28214 -0.35269,0.36109 -1.02963,0.51857 -1.4519,0.33774 z m 1.23595,-0.56326 c 0.26534,-0.2629 0.8333,-2.1723 0.8333,-2.80142 0,-0.22428 -0.10627,-0.52521 -0.23617,-0.66875 -0.30986,-0.34239 -1.21124,-0.34909 -1.51079,-0.0112 -0.26361,0.2973 -0.82176,2.22705 -0.82176,2.84112 0,0.8989 1.07435,1.29528 1.73542,0.64028 z m -6.005682,-2.53082 c -0.319947,-0.26922 -0.439071,-0.49197 -0.439071,-0.82102 0,-0.71502 0.533253,-2.39016 0.877524,-2.75662 0.423858,-0.45118 1.244814,-0.45768 1.645059,-0.013 0.47199,0.52434 0.49449,0.79749 0.16605,2.01547 -0.492414,1.82605 -1.288753,2.38366 -2.249562,1.57519 z m 1.319748,-0.23705 c 0.340959,-0.3149 0.844914,-1.80649 0.845374,-2.5021 5.7e-4,-0.76209 -1.012239,-1.1782 -1.515115,-0.62253 -0.24239,0.26784 -0.803664,2.06782 -0.803664,2.57731 0,0.29253 0.62261,0.86841 0.938882,0.86841 0.102772,0 0.343307,-0.14449 0.534523,-0.32109 z m -5.765593,-2.52207 c -0.498012,-0.49802 -0.501348,-0.55509 -0.115276,-1.97161 0.383605,-1.40748 0.45196,-1.53 0.974271,-1.74635 0.810026,-0.33552 1.720708,0.21635 1.720708,1.04275 0,0.76462 -0.568146,2.43209 -0.944236,2.77126 -0.503555,0.45412 -1.12159,0.41782 -1.635467,-0.096 z m 1.422338,-0.11801 c 0.197725,-0.16388 0.411684,-0.68304 0.622314,-1.51002 l 0.320991,-1.26028 -0.400402,-0.34517 c -0.799327,-0.68908 -1.340976,-0.27698 -1.783551,1.35695 -0.305759,1.12883 -0.253883,1.57761 0.21382,1.84969 0.376094,0.21879 0.686042,0.19127 1.026828,-0.0912 z M 74.114317,109.6502 c -1.226898,-0.86651 -3.415983,-1.99879 -4.633203,-2.39648 -1.183982,-0.38683 -2.355359,-0.39201 -2.976727,-0.0132 -0.567196,0.34582 -0.781806,0.36124 -0.720549,0.0518 0.0854,-0.43144 0.965972,-0.76585 2.01665,-0.76585 1.6715,0 3.784426,0.86768 6.492142,2.66601 1.062957,0.70596 1.342636,1.03905 0.947092,1.12796 -0.07358,0.0165 -0.580016,-0.28508 -1.125405,-0.67026 z m 101.430703,62.8983 c 1.60278,-0.41765 3.2011,-1.07771 4.73551,-1.95564 0.97583,-0.55832 1.05702,-0.63966 0.97612,-0.97781 -0.12445,-0.52017 -1.32429,-4.47543 -1.37216,-4.52329 -0.0217,-0.0217 -0.6157,0.1763 -1.31992,0.44009 -1.79833,0.67361 -3.26174,0.94957 -5.49027,1.03532 -2.06249,0.0794 -4.16928,-0.14863 -6.12971,-0.66332 -0.73802,-0.19377 -1.04095,-0.22304 -1.08156,-0.10452 -0.21946,0.64044 -0.53521,2.95308 -0.54929,4.02306 -0.013,0.987 0.0391,1.37553 0.22202,1.65539 0.2862,0.43791 1.39171,0.87788 3.19086,1.2699 1.83775,0.40043 4.85564,0.31227 6.8184,-0.19918 z m 1.46007,-22.29489 c 1.22053,-0.57917 2.50723,-2.59848 2.80648,-4.40438 0.37193,-2.24452 -0.81869,-4.02011 -2.35556,-3.5129 l -0.47033,0.15522 0.0568,1.3186 c 0.0466,1.08236 8.6e-4,1.48379 -0.25491,2.24074 -0.41425,1.22569 -0.90388,2.03454 -1.73421,2.86488 l -0.68615,0.68614 0.50019,0.43917 c 0.58005,0.50929 1.35086,0.58593 2.13773,0.21253 z m -3.2835,-0.76405 c -0.0457,-0.074 -0.14799,-0.4855 -0.22731,-0.91456 -0.4299,-2.32556 1.27074,-5.80647 3.23056,-6.61234 0.34628,-0.14239 0.62861,-0.291 0.62741,-0.33025 -0.001,-0.0392 -0.41328,-0.3117 -0.91571,-0.60546 l -0.9135,-0.53411 -2.23545,1.78462 c -1.22949,0.98155 -2.96626,2.3073 -3.85948,2.94611 -0.89322,0.63882 -1.5922,1.21301 -1.55329,1.27597 0.12633,0.2044 5.52692,3.09997 5.81441,3.11745 0.0635,0.004 0.0781,-0.0535 0.0324,-0.12743 z m -10.75582,-1.23446 c 4.51053,-2.56827 9.06338,-5.93707 14.80678,-10.95598 2.46987,-2.15832 7.49733,-6.89054 9.39407,-8.84241 l 1.46275,-1.50526 -0.002,-1.32897 c -0.004,-2.82845 -0.82661,-4.23255 -2.78666,-4.75423 -1.43496,-0.38192 -3.74284,0.0144 -6.21822,1.06773 -0.53633,0.22823 -8.4341,4.76574 -17.5506,10.08335 l -16.57546,9.66839 1.55166,0.76077 c 0.85341,0.41843 4.34514,2.1385 7.75941,3.82238 3.41427,1.68388 6.21841,3.06298 6.23143,3.06467 0.013,0.002 0.87996,-0.48452 1.92654,-1.08044 z m 12.4335,-0.18025 c 0.82993,-1.08828 1.26798,-2.30782 1.34012,-3.731 0.0828,-1.63412 -0.0518,-1.81089 -0.81441,-1.06929 -0.88043,0.85617 -1.69985,2.61301 -1.80505,3.87001 -0.0468,0.55929 -0.0415,1.24925 0.0118,1.53326 0.0929,0.49531 0.10979,0.5079 0.41373,0.30875 0.17428,-0.11419 0.5585,-0.52447 0.85383,-0.91173 z M 64.285333,124.32368 c 0.925693,-0.21664 13.87419,-7.49203 13.882937,-7.80043 0.01126,-0.39722 -1.456237,-1.58202 -2.761628,-2.22962 -1.933092,-0.959 -2.074161,-0.94216 -4.204568,0.50176 -0.966933,0.65535 -1.791417,1.27848 -1.832186,1.38472 -0.04077,0.10624 -0.168074,0.19316 -0.282904,0.19316 -0.231904,0 -9.735336,6.39469 -10.356681,6.96883 -0.215844,0.19945 -0.392444,0.43915 -0.392444,0.53268 0,0.67044 3.781302,0.95584 5.947474,0.4489 z m 19.211725,-12.3202 c 1.161453,-0.58819 3.027951,-1.79466 4.559538,-2.9472 1.583965,-1.19196 1.676808,-1.28963 1.676808,-1.76408 0,-0.36484 -0.114123,-0.61637 -0.417144,-0.91939 -0.370381,-0.37039 -0.515274,-0.41715 -1.292524,-0.41715 -0.481457,0 -1.176743,0.0683 -1.545077,0.15174 -0.63811,0.14457 -8.307745,3.82368 -8.301569,3.98224 0.0031,0.0783 4.545586,2.12221 4.74914,2.1369 0.06276,0.005 0.319637,-0.0958 0.570828,-0.22306 z"
         id="path876" />
      <path
         style="fill:#333333;fill-opacity:1;stroke-width:0.142707"
         d="m 79.529852,193.99416 c -2.292222,-0.31523 -4.456464,-1.02458 -5.753711,-1.88584 -0.570762,-0.37893 -1.024873,-1.19885 -1.024873,-1.85046 0,-0.78746 0.652644,-1.87742 1.70609,-2.8493 1.155551,-1.06608 0.570537,-0.70284 21.04626,-13.06783 8.942552,-5.40027 16.281422,-9.8854 16.308612,-9.96696 0.0272,-0.0816 -0.42346,-0.55985 -1.00144,-1.06288 -5.0729,-4.41513 -22.239784,-19.95048 -22.572706,-20.42742 -1.382202,-1.98012 -15.948039,-21.59538 -16.066336,-21.63592 -0.07882,-0.027 -1.681578,0.82531 -3.561686,1.89406 l -3.418377,1.94319 -1.393338,0.21002 c -4.643797,0.69997 -7.626458,-0.56487 -5.84436,-2.47838 0.171885,-0.18456 1.275791,-0.98276 2.453124,-1.77377 3.292454,-2.2121 7.550058,-5.1151 7.680947,-5.23717 0.06461,-0.0603 -0.568265,-1.03282 -1.406392,-2.16124 -2.104002,-2.83274 -2.914792,-4.5173 -2.919246,-6.06524 -9.32e-4,-0.32374 -1.125512,-5.49079 -2.499067,-11.482354 -1.373555,-5.991558 -2.497373,-11.043489 -2.497373,-11.226513 0,-0.513271 1.220161,-1.724902 2.211959,-2.196494 2.066529,-0.982618 4.213496,-0.0905 6.300167,2.617875 0.450677,0.584954 0.909335,1.526463 1.633715,3.353615 3.404615,8.587678 4.88087,12.315231 6.460016,16.311561 0.976965,2.4724 1.83055,4.49425 1.896855,4.49299 0.0663,-0.001 1.86115,-0.88007 3.988545,-1.95293 2.127395,-1.07286 4.255865,-2.05116 4.729932,-2.174 1.17822,-0.30531 2.822522,-0.29265 3.457976,0.0266 0.764539,0.38412 1.144501,1.06198 1.144501,2.04182 v 0.82249 l -1.248687,0.9907 c -1.438832,1.14155 -2.470468,1.85178 -4.16488,2.86731 l -1.203708,0.72143 0.63288,0.27317 c 0.348085,0.15024 6.765716,3.00441 14.261402,6.3426 12.674987,5.64478 14.745467,6.61957 29.592647,13.93241 8.78027,4.32464 15.99419,7.86298 16.03093,7.86298 0.0368,0 1.42602,-0.79372 3.08727,-1.76382 1.66124,-0.9701 3.63052,-2.11673 4.37616,-2.54805 1.61571,-0.93462 12.1695,-7.09119 19.26545,-11.23852 7.0684,-4.13123 7.22165,-4.21669 8.41972,-4.69502 1.81217,-0.72352 3.35574,-1.06663 4.85203,-1.07851 1.77005,-0.0141 2.66394,0.2849 3.57458,1.19555 1.01937,1.01936 1.30942,1.91965 1.3878,4.30755 l 0.0639,1.9462 -2.62268,2.62043 c -3.04242,3.03981 -5.92154,5.74129 -8.7914,8.24899 -1.11754,0.97651 -2.03189,1.81873 -2.03189,1.8716 0,0.0529 0.49769,0.38918 1.10598,0.74734 2.65709,1.56451 3.05375,2.0044 3.25422,3.60886 0.28252,2.2612 -1.30783,5.45919 -3.14407,6.32232 -1.2057,0.56675 -1.71928,0.45773 -4.58493,-0.97329 -1.40445,-0.70133 -3.24288,-1.66181 -4.08541,-2.13441 l -1.53187,-0.85926 -1.53633,0.97362 c -0.84498,0.53549 -1.85742,1.13765 -2.24987,1.33814 -1.54889,0.79128 -2.14397,0.36171 6.21344,4.4853 8.43292,4.16084 7.89549,3.7968 9.119,6.1769 1.33155,2.59023 2.614,6.2365 3.71425,10.56031 l 0.59918,2.35467 0.79055,0.57083 c 2.81549,2.03296 4.50025,5.27464 4.26463,8.20565 -0.11621,1.44555 -0.55868,2.29733 -1.96532,3.78336 -2.26429,2.39206 -4.98069,3.72427 -9.22248,4.52297 -1.4177,0.26694 -2.18349,0.31517 -5.09353,0.32081 -3.46774,0.007 -4.90353,-0.10991 -8.06295,-0.65497 -2.00092,-0.34519 -4.55979,-0.94026 -4.76941,-1.10913 -0.0847,-0.0682 -6.2226,-3.15742 -13.6398,-6.86488 -7.41719,-3.70746 -13.65688,-6.86173 -13.86597,-7.0095 l -0.38017,-0.26866 -4.25781,2.16893 c -7.65148,3.89766 -9.38871,4.80564 -9.42014,4.92353 -0.017,0.0639 0.68261,0.53361 1.55476,1.04378 2.00258,1.17143 2.19279,1.3233 2.5638,2.04707 1.16677,2.27607 -0.39882,6.57926 -2.80932,7.72175 -1.13377,0.53736 -1.61486,0.42803 -4.58303,-1.04156 -2.60662,-1.29058 -5.76091,-3.04612 -7.01548,-3.90453 l -0.61007,-0.41742 -4.31332,2.20374 c -8.49153,4.33845 -7.848564,4.04787 -9.668311,4.3695 -3.345974,0.59138 -4.930522,0.74106 -8.416246,0.79499 -1.922977,0.0298 -3.945849,-0.008 -4.495271,-0.0833 z m 8.562421,-0.92775 c 1.098844,-0.11036 2.800625,-0.33748 3.781736,-0.50472 2.107743,-0.35927 0.03618,0.62894 19.265451,-9.19032 17.32903,-8.84892 22.76853,-11.6251 25.50792,-13.01859 2.08769,-1.06198 2.17536,-1.12411 2.17628,-1.54234 0.004,-1.99246 -4.00803,-5.56414 -9.0501,-8.05603 -2.57365,-1.27194 -3.92311,-1.70833 -5.60851,-1.81367 -1.45428,-0.0909 -2.28895,0.11644 -2.91668,0.72453 -0.18342,0.17768 -1.93894,1.28801 -3.90116,2.46742 -1.96222,1.1794 -6.4896,3.90982 -10.06084,6.0676 -3.57125,2.15777 -9.928844,5.99787 -14.127998,8.53355 -14.672849,8.86027 -15.917717,9.61668 -16.754443,10.18041 -2.347554,1.58162 -3.295802,3.13602 -2.517051,4.12605 0.400965,0.50974 2.034537,1.32548 3.337372,1.66654 2.756238,0.72154 6.146899,0.83372 10.868023,0.35957 z m 30.277497,-1.43596 c 1.24385,-0.59024 2.46775,-2.40322 2.84555,-4.21514 0.33682,-1.6154 -0.0609,-3.12661 -0.96858,-3.67999 -0.5346,-0.32593 -0.87894,-0.35743 -1.5084,-0.138 l -0.4353,0.15174 0.0756,1.10235 c 0.13716,2.00112 -0.55652,3.89273 -1.93189,5.2681 l -0.75799,0.75799 0.49389,0.49389 c 0.40655,0.40655 0.59985,0.49389 1.0931,0.49389 0.32956,0 0.8219,-0.10567 1.09407,-0.23483 z m -3.32678,-1.36604 c -0.24579,-0.94755 -0.24099,-1.53193 0.0217,-2.64613 0.45316,-1.922 1.69638,-3.67326 3.06156,-4.31268 0.39566,-0.18531 0.71939,-0.37829 0.71939,-0.42882 0,-0.0505 -0.20871,-0.19737 -0.4638,-0.32631 -0.25509,-0.12893 -0.76729,-0.40764 -1.13822,-0.61936 l -0.67441,-0.38494 -4.32033,2.19385 c -2.37618,1.20661 -4.52695,2.29222 -4.77948,2.41244 -0.25253,0.12023 -0.46124,0.25609 -0.4638,0.30191 -0.012,0.2149 7.70921,4.52884 8.14442,4.5504 0.0474,0.002 -8.5e-4,-0.33081 -0.10703,-0.74036 z m 1.44454,-0.45689 c 1.30645,-1.40292 2.03063,-3.68245 1.69809,-5.34516 -0.0491,-0.24528 -0.1564,-0.44596 -0.23853,-0.44596 -0.33129,0 -1.44803,1.38795 -1.92522,2.39279 -0.40909,0.86141 -0.52039,1.28597 -0.57232,2.18316 -0.0704,1.21521 0.027,1.84586 0.28495,1.84586 0.0911,0 0.42999,-0.28381 0.75303,-0.63069 z m 60.15637,-0.84381 c 4.74582,-0.88934 8.37268,-3.01971 10.09488,-5.92959 0.45075,-0.7616 0.59971,-2.45427 0.32622,-3.7069 -0.38529,-1.76476 -1.60931,-3.61905 -3.24059,-4.90925 -1.63469,-1.2929 -1.67553,-1.34771 -1.96869,-2.64252 -0.14709,-0.64963 -0.30505,-1.16338 -0.35104,-1.14166 -0.046,0.0217 -0.95019,0.47164 -2.00936,0.99982 -3.09033,1.54106 -5.46694,2.07036 -8.63298,1.92267 -1.76841,-0.0825 -3.23047,-0.38663 -4.72287,-0.98243 -1.21411,-0.4847 -1.41882,-0.89972 -1.39507,-2.82815 0.0181,-1.47255 0.49693,-4.34837 0.77008,-4.6255 0.0772,-0.0783 0.74197,0.0195 1.66781,0.24535 3.87597,0.9456 7.41396,0.87948 10.66742,-0.19935 2.0055,-0.66501 1.94196,-0.56884 1.37224,-2.07667 -0.57976,-1.5344 -1.43878,-3.27814 -2.12913,-4.32197 l -0.51228,-0.77459 -8.21061,-4.05842 c -4.51584,-2.23213 -9.36654,-4.62136 -10.77934,-5.30938 -1.4128,-0.68803 -5.6512,-2.77534 -9.41866,-4.63846 -3.76747,-1.86313 -8.77648,-4.33436 -11.13115,-5.49163 -2.35467,-1.15728 -8.80859,-4.33807 -14.34205,-7.06843 -8.8923,-4.3877 -12.14932,-5.89458 -28.041934,-12.97376 l -17.981085,-8.00946 -1.084062,-2.70768 c -0.596234,-1.48923 -2.709008,-6.81765 -4.695053,-11.840933 -1.986045,-5.023286 -3.80644,-9.42223 -4.045324,-9.77543 -0.659425,-0.974989 -2.084502,-2.33414 -2.814511,-2.684309 -0.846013,-0.405812 -1.94317,-0.414278 -2.71417,-0.02094 -0.787339,0.40167 -1.700369,1.254178 -1.700369,1.587657 0,0.151945 1.117957,5.169544 2.484348,11.150218 1.366391,5.980677 2.509495,11.263327 2.540228,11.739227 0.08002,1.23912 0.821163,2.69535 2.639198,5.18562 0.836546,1.14587 1.542122,2.11077 1.567948,2.14423 0.02583,0.0335 0.88795,-0.51241 1.91583,-1.21301 1.845323,-1.25778 1.879357,-1.27364 2.700939,-1.25834 0.94794,0.0177 2.353642,0.61139 3.844593,1.62388 1.301696,0.88396 2.184352,2.29899 1.723471,2.76297 -0.08975,0.0904 -1.455784,0.90279 -3.035634,1.80541 -1.579849,0.90262 -2.892667,1.70535 -2.917371,1.78384 -0.02471,0.0785 2.025178,2.94516 4.555298,6.37039 5.438148,7.36207 6.126719,8.2953 9.321513,12.63362 l 2.437986,3.31061 11.676021,10.44791 c 10.75239,9.62143 11.69889,10.43363 11.96511,10.26737 0.159,-0.0993 1.83497,-1.1122 3.72437,-2.2509 1.88941,-1.13869 3.59583,-2.21928 3.79205,-2.40131 0.56826,-0.52717 1.69988,-0.95431 2.72201,-1.02744 2.49465,-0.17849 6.68899,1.43912 10.69245,4.12372 2.88495,1.93456 4.58279,3.6086 5.31208,5.23761 0.30241,0.67547 0.47768,2.00442 0.29638,2.24717 -0.0628,0.0841 -1.79994,1.01528 -3.86024,2.06925 -2.0603,1.05396 -3.74602,1.96375 -3.74606,2.02174 -3e-5,0.058 6.22195,3.21754 13.82662,7.02122 10.76919,5.3865 14.07476,6.97908 14.94856,7.20204 1.33691,0.34112 4.91802,0.96044 6.6161,1.14419 1.89653,0.20524 7.83866,0.0904 9.27788,-0.17932 z m -22.14532,-18.03446 c -1.0465,-0.58677 -1.98562,-1.14618 -2.08693,-1.24314 -0.14994,-0.14351 -0.0234,-1.00953 0.68034,-4.65601 0.4755,-2.46384 0.91807,-4.53323 0.98349,-4.59865 0.0654,-0.0654 0.24159,-0.12819 0.39147,-0.13948 0.29756,-0.0224 3.92653,1.92481 4.19895,2.25306 0.13044,0.15716 0.10072,0.54738 -0.13246,1.73942 -0.16534,0.84524 -0.54884,2.82934 -0.85222,4.4091 -0.30339,1.57977 -0.59138,2.93666 -0.63998,3.0153 -0.24044,0.38904 -0.72133,0.24159 -2.54266,-0.7796 z m 2.37814,0.67219 c 0.0483,-0.0782 0.43472,-1.94566 0.85867,-4.14993 0.42395,-2.20428 0.81093,-4.13415 0.85995,-4.28861 0.049,-0.15446 0.015,-0.37015 -0.0756,-0.47932 -0.23355,-0.28141 -3.75504,-2.21384 -4.03431,-2.21384 -0.12739,0 -0.26368,0.0519 -0.30286,0.11526 -0.0695,0.11246 -1.67791,8.31192 -1.71217,8.72844 -0.019,0.23118 3.66953,2.43015 4.07631,2.43015 0.13318,0 0.28167,-0.064 0.33,-0.14215 z m -11.33993,-8.17699 c -0.60601,-0.21068 -1.1466,-0.9724 -1.1466,-1.61563 0,-0.47807 0.77802,-3.47401 1.02607,-3.95112 0.35378,-0.68049 1.63107,-1.01672 2.39462,-0.63036 0.45062,0.22802 1.00323,1.04435 1.00323,1.48201 0,0.43714 -0.8272,3.42595 -1.08917,3.93533 -0.38189,0.74258 -1.32668,1.07927 -2.18815,0.77977 z m 1.70418,-0.49301 c 0.3552,-0.32474 0.51587,-0.71145 0.93123,-2.24132 0.41576,-1.53136 0.47651,-1.926 0.35373,-2.298 -0.32313,-0.9791 -1.38798,-1.45214 -2.25711,-1.0027 -0.63798,0.32991 -0.79956,0.64968 -1.31542,2.60322 -0.51018,1.93202 -0.49261,2.28214 0.14666,2.9214 0.57384,0.57385 1.52381,0.58157 2.14091,0.0174 z m -9.42987,-3.78696 c -0.30351,-0.20424 -0.55265,-0.53186 -0.66601,-0.87579 -0.16316,-0.49504 -0.13734,-0.71369 0.26061,-2.20674 0.59791,-2.24326 0.76591,-2.56455 1.51402,-2.89547 0.73534,-0.32528 1.51063,-0.18737 2.02506,0.36021 0.61865,0.65852 0.63295,1.13622 0.0924,3.08767 -0.27115,0.97894 -0.61317,1.94185 -0.76005,2.13978 -0.5747,0.77449 -1.64375,0.94371 -2.46606,0.39034 z m 2.16272,-0.34097 c 0.28646,-0.29529 0.50937,-0.83338 0.83389,-2.01294 0.58175,-2.11449 0.57658,-2.49482 -0.0423,-3.11368 -0.5504,-0.55041 -1.22089,-0.64343 -1.94367,-0.26967 -0.53542,0.27688 -0.60824,0.42466 -1.13001,2.29345 -0.63116,2.26058 -0.58034,2.79137 0.32141,3.35713 0.62241,0.3905 1.43775,0.28475 1.96066,-0.25429 z m -8.79542,-3.91997 c -0.39608,-0.1922 -0.77371,-0.8555 -0.77261,-1.35711 4.3e-4,-0.22335 0.18927,-1.08037 0.4195,-1.90447 0.49557,-1.77385 0.80205,-2.14066 1.78858,-2.14066 0.4584,0 0.73665,0.0954 1.05186,0.36063 0.65176,0.54842 0.6758,0.98103 0.15836,2.84923 -0.37332,1.34786 -0.53181,1.70893 -0.87802,2.00024 -0.45076,0.37929 -1.21155,0.46199 -1.76767,0.19214 z m 1.62167,-0.33207 c 0.32979,-0.27751 0.49947,-0.6422 0.79583,-1.71051 0.51136,-1.84327 0.49972,-2.37451 -0.0624,-2.8475 -0.5586,-0.47003 -1.26308,-0.48931 -1.76757,-0.0484 -0.26917,0.23526 -0.4811,0.72154 -0.79285,1.81921 -0.23401,0.82397 -0.42548,1.60762 -0.42548,1.74145 0,0.69767 0.71792,1.3873 1.4518,1.39461 0.20982,0.002 0.57012,-0.15492 0.80066,-0.3489 z m -8.51577,-3.58035 c -0.63432,-0.53374 -0.67921,-1.06673 -0.22904,-2.71916 0.58988,-2.16524 0.82386,-2.48104 1.83828,-2.48104 0.71818,0 1.18239,0.2555 1.43629,0.79055 0.29751,0.62696 0.2863,0.76364 -0.20437,2.49201 -0.33633,1.18469 -0.51594,1.58023 -0.8585,1.89057 -0.58144,0.52675 -1.37593,0.5376 -1.98266,0.0271 z m 1.84227,-0.16978 c 0.35362,-0.31866 0.51765,-0.6914 0.87246,-1.98256 0.42143,-1.53355 0.42862,-1.60773 0.20206,-2.08516 -0.49441,-1.0419 -1.90841,-1.12112 -2.41811,-0.13547 -0.36402,0.70393 -0.95795,3.12906 -0.86097,3.51547 0.12659,0.50438 0.84842,1.08016 1.35414,1.08016 0.25193,0 0.586,-0.15416 0.85042,-0.39244 z m -8.16927,-3.54039 c -0.78933,-0.42835 -0.85713,-1.05071 -0.32557,-2.98846 0.27228,-0.99259 0.45069,-1.37351 0.78536,-1.6768 0.56565,-0.51262 1.2487,-0.52447 1.83418,-0.0318 0.56062,0.47173 0.66725,1.01763 0.38902,1.99166 -0.12368,0.433 -0.32707,1.14498 -0.45198,1.58218 -0.17519,0.61322 -0.33013,0.85775 -0.67786,1.06977 -0.53429,0.32579 -1.0205,0.34253 -1.55315,0.0535 z m 1.23227,-0.11975 c 0.2626,-0.10973 0.52262,-0.27256 0.5778,-0.36186 0.25078,-0.40575 0.91844,-3.08783 0.84325,-3.38741 -0.11131,-0.4435 -0.84525,-1.04598 -1.27421,-1.04598 -0.67002,0 -1.17949,0.67493 -1.56198,2.06925 -0.19377,0.7064 -0.35169,1.44491 -0.35092,1.64113 0.002,0.39296 0.33815,0.87577 0.77994,1.11873 0.37101,0.20403 0.42086,0.20232 0.98612,-0.0339 z m -12.33132,-2.95225 c -0.66716,-0.38264 -1.23306,-0.78957 -1.25756,-0.90429 -0.0838,-0.39258 1.88238,-7.41452 2.15149,-7.68364 0.24961,-0.2496 0.29708,-0.23737 1.37119,0.35337 0.61194,0.33656 1.26144,0.71191 1.44334,0.83411 l 0.33073,0.22219 -1.03501,3.77361 c -0.56926,2.07548 -1.10063,3.85388 -1.18083,3.95199 -0.2318,0.28357 -0.53141,0.19364 -1.82335,-0.54734 z m 1.68117,0.40464 c 0.12881,-0.15703 2.0235,-6.86746 2.07903,-7.36333 0.0211,-0.18861 -2.23734,-1.57937 -2.57785,-1.58743 -0.26635,-0.006 -0.39882,0.3357 -0.96575,2.49344 -0.2887,1.09875 -0.7159,2.66151 -0.94936,3.4728 -0.23345,0.81129 -0.40458,1.53472 -0.38029,1.60761 0.0396,0.11889 2.33959,1.50362 2.55832,1.54028 0.0493,0.008 0.15541,-0.0653 0.2359,-0.16337 z m 3.58801,-0.9523 c -0.53047,-0.53047 -0.53804,-1.00624 -0.0443,-2.78597 0.45014,-1.62261 0.77415,-2.00569 1.69642,-2.00569 0.71759,0 1.28623,0.42907 1.42878,1.0781 0.14232,0.64797 -0.62023,3.26527 -1.08913,3.73826 -0.5574,0.56226 -1.41545,0.55162 -1.99176,-0.0247 z m 1.79548,-0.0467 c 0.27945,-0.24038 0.47781,-0.69591 0.78869,-1.81124 0.22843,-0.81955 0.37967,-1.63222 0.33607,-1.80593 -0.13114,-0.52251 -0.72035,-0.97081 -1.27593,-0.97081 -0.74743,0 -1.11281,0.47467 -1.54757,2.01048 -0.47522,1.67875 -0.46991,1.96562 0.046,2.48149 0.51285,0.51286 1.1267,0.54851 1.65277,0.096 z m -11.31724,-6.10463 c -0.43281,-0.40322 -0.5153,-0.86717 -0.30967,-1.74169 0.54725,-2.32745 1.13177,-2.92209 2.33393,-2.37435 0.66944,0.30502 0.7533,0.85087 0.36759,2.39269 -0.40429,1.6161 -0.70595,2.01272 -1.53085,2.01272 -0.35565,0 -0.6603,-0.10239 -0.861,-0.28937 z m 1.53006,-0.10308 c 0.35647,-0.29097 1.06037,-2.63809 0.94037,-3.1356 -0.19063,-0.79031 -1.16373,-1.14464 -1.77445,-0.64613 -0.35935,0.29332 -1.05997,2.6399 -0.93846,3.14318 0.19473,0.80655 1.14662,1.14947 1.77254,0.63855 z m -5.939559,-2.67593 c -0.481549,-0.33729 -0.511833,-0.87852 -0.123761,-2.21178 0.384625,-1.32143 0.701443,-1.71249 1.387367,-1.71249 0.536328,0 1.119363,0.56794 1.119363,1.09039 0,0.69928 -0.580006,2.5392 -0.882142,2.79838 -0.357097,0.30632 -1.089448,0.32364 -1.500827,0.0355 z m 1.369741,-0.19961 c 0.262352,-0.26235 0.679418,-1.46436 0.830698,-2.39413 0.058,-0.35621 -0.005,-0.53199 -0.29349,-0.82057 -0.740913,-0.74091 -1.385072,-0.35793 -1.812618,1.07769 -0.164957,0.55389 -0.30553,1.2044 -0.312387,1.44557 -0.02322,0.81682 1.01173,1.26751 1.587797,0.69144 z m -5.479944,-2.31967 c -0.724437,-0.39623 -0.793032,-0.86424 -0.357187,-2.43704 0.34062,-1.22917 0.629896,-1.56522 1.347365,-1.56522 0.893152,0 1.378698,0.73018 1.096111,1.64837 -0.07608,0.24718 -0.241015,0.81783 -0.36653,1.26811 -0.179588,0.64424 -0.317186,0.86469 -0.645808,1.03462 -0.490165,0.25348 -0.686923,0.26285 -1.073951,0.0512 z m 1.115002,-0.29901 c 0.267222,-0.19701 0.811542,-1.936 0.811542,-2.59271 0,-0.22954 -0.106279,-0.53478 -0.236178,-0.67831 -0.301783,-0.33347 -1.076579,-0.33983 -1.368599,-0.0112 -0.242522,0.27288 -0.821242,2.09388 -0.821242,2.5841 0,0.69113 1.023606,1.13377 1.614477,0.69815 z M 73.892924,109.43569 c -3.436146,-2.25475 -6.11161,-3.05481 -7.445142,-2.22637 -0.559015,0.34727 -0.857635,0.22741 -0.420042,-0.16861 1.251719,-1.13279 4.460353,-0.28821 8.171337,2.15085 1.049446,0.68976 1.427281,1.04703 1.102714,1.0427 -0.107721,-0.001 -0.741711,-0.36079 -1.408867,-0.79857 z m 99.324086,63.5875 c 2.03372,-0.2138 3.85049,-0.74985 5.77963,-1.70531 0.94187,-0.46649 1.86931,-0.97247 2.06098,-1.12442 l 0.34849,-0.27627 -0.24985,-0.90631 c -0.13742,-0.49847 -0.47301,-1.62428 -0.74575,-2.50179 l -0.4959,-1.59547 -0.81575,0.36251 c -2.115,0.93987 -5.73292,1.45766 -8.3326,1.19256 -1.76821,-0.18032 -2.90345,-0.37142 -4.01063,-0.67513 -0.45345,-0.12439 -0.86085,-0.18977 -0.90533,-0.14529 -0.17355,0.17356 -0.61615,3.22902 -0.6204,4.2829 -0.006,1.54196 0.16751,1.82798 1.38087,2.27348 1.20475,0.44235 2.15029,0.66799 3.41395,0.81469 1.40089,0.16264 1.67871,0.16297 3.19229,0.004 z m 3.63656,-22.62246 c 1.2018,-0.50214 2.52197,-2.32435 2.92634,-4.03917 0.22376,-0.94892 0.12537,-2.50612 -0.19784,-3.13114 -0.44745,-0.86528 -1.5541,-1.26243 -2.41928,-0.86823 -0.30947,0.14101 -0.3344,0.20939 -0.22078,0.60557 0.47149,1.64399 -0.35322,4.26805 -1.81607,5.77837 -0.84542,0.87285 -0.84663,1.08775 -0.009,1.59852 0.55038,0.33559 1.03052,0.35109 1.73659,0.0561 z m -3.19724,-1.29849 c -0.69524,-2.50379 0.95147,-6.2099 3.1635,-7.11985 0.37253,-0.15324 0.67697,-0.31073 0.67653,-0.34998 -4.2e-4,-0.0392 -0.43366,-0.31754 -0.96273,-0.61844 -0.69311,-0.39419 -1.02178,-0.50946 -1.17601,-0.41246 -0.11774,0.074 -1.11312,0.85273 -2.21196,1.73041 -1.09885,0.87769 -2.78009,2.15234 -3.7361,2.83256 -0.95601,0.68021 -1.70904,1.28394 -1.6734,1.3416 0.12931,0.20923 5.93087,3.2863 6.02277,3.1944 0.0273,-0.0273 -0.0188,-0.29655 -0.1026,-0.59824 z m -10.85693,-0.68308 c 6.00535,-3.29399 14.02448,-9.7414 22.43214,-18.03554 l 3.38076,-3.33511 0.0967,-0.7743 c 0.11741,-0.93968 -0.1304,-2.73056 -0.49047,-3.54456 -1.05338,-2.38133 -4.18693,-2.72614 -8.40334,-0.9247 -0.73321,0.31327 -4.04294,2.15063 -7.35496,4.08304 -3.31201,1.93241 -8.62268,5.0314 -11.80148,6.88664 -3.1788,1.85524 -7.88002,4.59115 -10.44716,6.0798 -2.56714,1.48865 -4.65232,2.76052 -4.63374,2.82638 0.0522,0.18505 15.57089,7.78594 15.65173,7.66606 0.0392,-0.0582 0.74564,-0.47566 1.56978,-0.92771 z m 12.23298,0.16122 c 1.19112,-1.29221 1.8072,-2.83752 1.81494,-4.55237 0.007,-1.46991 -0.13857,-1.58359 -0.96592,-0.75624 -1.22455,1.22455 -2.09905,3.58055 -1.87779,5.05899 0.16184,1.08145 0.2437,1.10132 1.02877,0.24962 z M 63.706073,124.49622 c 1.075129,-0.14954 1.260861,-0.24102 6.325111,-3.11537 2.869601,-1.62872 5.876304,-3.33251 6.681561,-3.7862 0.805257,-0.4537 1.491946,-0.86995 1.525976,-0.92501 0.238034,-0.38515 -1.408377,-1.77111 -3.019111,-2.5415 -1.774135,-0.84855 -1.885563,-0.83341 -3.923248,0.53326 -0.965802,0.64776 -1.844108,1.29792 -1.951792,1.44481 -0.107685,0.14688 -0.278311,0.26706 -0.379169,0.26706 -0.251096,0 -10.047302,6.64479 -10.45469,7.09144 -0.257077,0.28186 -0.291157,0.40084 -0.160059,0.5588 0.470086,0.56642 3.046572,0.79384 5.355421,0.47271 z m 22.816423,-14.2711 c 0.784888,-0.53347 1.867191,-1.33393 2.405115,-1.77879 0.907985,-0.75089 0.971728,-0.84042 0.889844,-1.24985 -0.271587,-1.35793 -1.441162,-1.66776 -3.794164,-1.0051 -0.690702,0.19451 -7.340326,3.42863 -7.81847,3.8026 -0.133758,0.10461 0.484045,0.4422 2.283313,1.24768 l 2.466686,1.10426 1.070303,-0.57542 c 0.588666,-0.31648 1.712484,-1.0119 2.497373,-1.54538 z"
         id="path874" />
    </g>
    <text
       xml:space="preserve"
       id="text993"
       style="font-style:normal;font-weight:normal;font-size:10.58329999999999949px;line-height:1.25;font-family:sans-serif;white-space:pre;shape-inside:url(#rect995);fill:#000000;fill-opacity:1;stroke:none;"
       transform="matrix(1.7380179,0,0,1.7380179,-120.43728,-122.52549)" />
  </g>
  <g
     inkscape:label="Vector"
     inkscape:groupmode="layer"
     id="layer1"
     style="display:inline">
    <path
       style="display:inline;fill:none;fill-opacity:1;stroke:#000000;stroke-width:0.523144;stroke-miterlimit:4;stroke-dasharray:none;stroke-opacity:1"
       d="m 63.321488,204.94253 c -3.983924,-0.54787 -7.745415,-1.78073 -10.000054,-3.27762 -0.991994,-0.65858 -1.781247,-2.08362 -1.781247,-3.21613 0,-1.36861 1.134307,-3.26299 2.965215,-4.95214 2.008368,-1.85286 0.991603,-1.22154 36.578779,-22.71212 15.542319,-9.38576 28.297409,-17.18101 28.344659,-17.32275 0.0473,-0.14183 -0.73598,-0.97304 -1.74052,-1.84731 C 108.87153,143.94089 79.035175,116.94017 78.456552,116.11124 76.05426,112.66975 50.738573,78.57808 50.53297,78.507621 c -0.13699,-0.04693 -2.922612,1.434404 -6.190274,3.29191 l -5.941201,3.377299 -2.421646,0.365018 c -8.071003,1.216561 -13.254921,-0.981753 -10.157603,-4.307468 0.298739,-0.320768 2.217347,-1.708055 4.263574,-3.082844 5.722344,-3.84467 13.122136,-8.890136 13.349624,-9.102296 0.112293,-0.1048 -0.987655,-1.795059 -2.444335,-3.756274 -3.656794,-4.923353 -5.065961,-7.851154 -5.073702,-10.541502 -0.0016,-0.562665 -1.95616,-9.543091 -4.343423,-19.956537 -2.387264,-10.413436 -4.340479,-19.193783 -4.340479,-19.511882 0,-0.892074 2.120662,-2.997911 3.844425,-3.817546 3.591664,-1.707808 7.323131,-0.157291 10.949803,4.549914 0.783284,1.016661 1.580441,2.653021 2.839426,5.828643 5.917282,14.925539 8.483039,21.404094 11.227624,28.349786 1.697982,4.297076 3.181528,7.811093 3.296768,7.808904 0.11523,-0.0017 3.234712,-1.529583 6.932163,-3.394233 3.697451,-1.86465 7.39677,-3.564953 8.220707,-3.778451 2.047768,-0.530634 4.905593,-0.508632 6.010024,0.04623 1.328782,0.667608 1.989163,1.845741 1.989163,3.54872 v 1.429503 l -2.17024,1.721855 c -2.500716,1.984039 -4.293718,3.218432 -7.238637,4.983441 l -2.092065,1.253859 1.099957,0.474774 c 0.604977,0.26112 11.758936,5.221719 24.786573,11.023553 22.029354,9.810729 25.627884,11.504931 51.432554,24.214779 15.26027,7.516294 27.79819,13.665994 27.86205,13.665994 0.064,0 2.47845,-1.3795 5.36573,-3.06555 2.88726,-1.68605 6.30991,-3.67891 7.60584,-4.42855 2.80814,-1.62439 21.15081,-12.324617 33.4837,-19.532751 12.28501,-7.180152 12.55136,-7.328683 14.63363,-8.160029 3.14958,-1.257491 5.83234,-1.853823 8.43291,-1.874471 3.07638,-0.0245 4.62998,0.495162 6.21269,2.077888 1.77168,1.771666 2.2758,3.336387 2.41202,7.4866 l 0.11106,3.38253 -4.55827,4.554355 c -5.28778,5.283244 -10.29174,9.978468 -15.27961,14.336888 -1.9423,1.69719 -3.53146,3.16099 -3.53146,3.25288 0,0.0919 0.86499,0.6764 1.92222,1.29889 4.61807,2.71915 5.30747,3.48368 5.65589,6.27226 0.49102,3.93 -2.27303,9.48818 -5.46445,10.98831 -2.09554,0.98502 -2.98815,0.79554 -7.96869,-1.6916 -2.44096,-1.21892 -5.63619,-2.88825 -7.10052,-3.70964 l -2.66242,-1.49341 -2.67016,1.69217 c -1.4686,0.93069 -3.22824,1.97726 -3.91032,2.32571 -2.692,1.37526 -3.72626,0.62866 10.79907,7.79553 14.65657,7.23162 13.72251,6.59891 15.84898,10.73556 2.31426,4.50187 4.54319,10.83916 6.45544,18.35402 l 1.04138,4.09245 1.37399,0.99212 c 4.89338,3.53332 7.82152,9.16741 7.41201,14.26157 -0.20198,2.51238 -0.971,3.9928 -3.41577,6.57554 -3.93537,4.15745 -8.65652,6.47285 -16.02883,7.86101 -2.46399,0.46394 -3.79494,0.54776 -8.85265,0.55757 -6.02699,0.0122 -8.52242,-0.19103 -14.01355,-1.13836 -3.47763,-0.59994 -7.925,-1.63418 -8.28932,-1.92767 -0.1472,-0.11854 -10.81499,-5.48766 -23.70622,-11.93129 -12.8912,-6.44364 -23.7359,-11.92581 -24.0993,-12.18264 l -0.66074,-0.46694 -7.40016,3.76965 c -13.29841,6.7742 -16.31775,8.35229 -16.37237,8.55718 -0.0295,0.11106 1.18639,0.92742 2.7022,1.8141 3.48052,2.03597 3.81111,2.29993 4.45593,3.55784 2.02787,3.95586 -0.69316,11.43489 -4.88265,13.42054 -1.97051,0.93395 -2.80665,0.74394 -7.96539,-1.81024 -4.53035,-2.24305 -10.01256,-5.29421 -12.19303,-6.78614 l -1.06031,-0.72549 -7.49663,3.83015 c -14.758432,7.54029 -13.640945,7.03526 -16.803699,7.59426 -5.815363,1.02784 -8.569336,1.28797 -14.627587,1.38171 -3.342169,0.0518 -6.857956,-0.0139 -7.812862,-0.14478 z"
       id="path874-3" />
  </g>
</svg>
