<?xml version="1.0" encoding="utf-8"?>
<!-- Generator: Adobe Illustrator 25.2.3, SVG Export Plug-In . SVG Version: 6.00 Build 0)  -->
<svg version="1.1" xmlns="http://www.w3.org/2000/svg" xmlns:xlink="http://www.w3.org/1999/xlink" x="0px" y="0px"
	 viewBox="0 0 1728 1296" style="enable-background:new 0 0 1728 1296;" xml:space="preserve">
<style type="text/css">
	.st0{fill:none;stroke:#000000;stroke-width:0.082;stroke-miterlimit:10;}
	.st1{fill:none;stroke:#010101;stroke-width:0.082;stroke-linecap:round;stroke-linejoin:round;stroke-miterlimit:11.3386;}
	.st2{fill:none;stroke:#3A53A4;stroke-width:0.082;stroke-linecap:round;stroke-linejoin:round;stroke-miterlimit:11.3386;}
	.st3{fill:#010101;}
	.st4{font-family:'ArialMT';}
	.st5{font-size:15px;}
</style>
<g id="Layer_1">
	<circle id="path14" class="st0" cx="214.44" cy="195.49" r="11.34"/>
	<circle id="path16" class="st0" cx="214.44" cy="195.99" r="31.18"/>
	<circle id="path18" class="st0" cx="214.44" cy="195.49" r="170.08"/>
	<path id="path22-2-7" class="st0" d="M494.35,32.29L370.13,387.35h23.28v8.84h28.4v-8.84h87.56v8.84h28.4v-8.84h87.56v8.84h28.4
		v-8.84h23.28L552.8,32.29H494.35z"/>
	<polygon id="rect94-6-1" class="st0" points="519.15,249.8 527.99,249.8 527.99,249.8 527.99,278.19 527.99,278.19 519.15,278.19 
		519.15,278.19 519.15,249.8 	"/>
	<polygon id="rect94-4-4" class="st0" points="519.15,121.3 527.99,121.3 527.99,121.3 527.99,149.69 527.99,149.69 519.15,149.69 
		519.15,149.69 519.15,121.3 	"/>
	<path id="path22-2" class="st0" d="M690.34,643.53V456.01l-445.4,151.8l0,0 M690.34,643.53v187.51l-445.4-151.8l0,0l0-71.43"/>
	<polygon id="rect94" class="st0" points="334.2,647.94 334.2,639.11 334.2,639.11 362.6,639.11 362.6,639.11 362.6,647.94 
		362.6,647.94 334.2,647.94 	"/>
	<polygon id="rect94-6" class="st0" points="534.5,647.94 534.5,639.11 534.5,639.11 562.89,639.11 562.89,639.11 562.89,647.94 
		562.89,647.94 534.5,647.94 	"/>
	<circle id="path14-2" class="st0" cx="285.11" cy="643.53" r="11.34"/>
	<polygon id="rect94-4" class="st0" points="406,647.94 406,639.11 406,639.11 434.39,639.11 434.39,639.11 434.39,647.94 
		434.39,647.94 406,647.94 	"/>
	<polygon id="rect94-6-8" class="st0" points="611.53,647.94 611.53,639.11 611.53,639.11 639.93,639.11 639.93,639.11 
		639.93,647.94 639.93,647.94 611.53,647.94 	"/>
	<polygon id="rect94-6-8-3" class="st0" points="660.16,513.37 669,513.37 669,513.37 669,541.76 669,541.76 660.16,541.76 
		660.16,541.76 660.16,513.37 	"/>
	<polygon id="rect94-6-8-3-2" class="st0" points="660.16,629.33 669,629.33 669,629.33 669,657.72 669,657.72 660.16,657.72 
		660.16,657.72 660.16,629.33 	"/>
	<polygon id="rect94-6-8-3-7" class="st0" points="660.16,745.29 669,745.29 669,745.29 669,773.68 669,773.68 660.16,773.68 
		660.16,773.68 660.16,745.29 	"/>
	<circle id="path14-2-9" class="st0" cx="480.48" cy="643.53" r="11.34"/>
	<path id="path378" class="st0" d="M355.45,427.96h-47.72v-9.6H279.4v9.6l-99.87,0l0-9.6l-28.33,0v9.6H41.86v20.42h-9.11v28.36h9.11
		l0,48.58l-9.11,0v28.36h9.11v99.99h-9.11v28.36h9.11v43.34h-9.11v28.36h9.11v25.76C143.43,663.38,252.47,545.09,355.45,427.96
		L355.45,427.96z"/>
	<path id="path22-2-2" class="st0" d="M801.56,12.77h187.51l-151.8,445.4l0,0 M801.56,12.77H614.05l151.8,445.4l0,0l71.43,0"/>
	<circle id="path14-2_1_" class="st0" cx="801.56" cy="418.01" r="11.34"/>
	<circle id="path14-2-9_1_" class="st0" cx="801.56" cy="222.63" r="11.34"/>
</g>
<g id="Layer_3">
	<g>
		<g id="p-1">
			<path class="st1" d="M1046.07,301.73h18.28c0.28,0,0-0.28,0,0v8.22c0,0.16,0.13,0.28,0.28,0.28h17.01c0.16,0,0.28-0.13,0.28-0.28
				v-8.22c0-0.28-0.28,0,0,0h16.44c0.28,0,0-0.28,0,0v8.22c0,0.16,0.13,0.28,0.28,0.28h17.01c0.16,0,0.28-0.13,0.28-0.28v-8.22
				c0-0.28-0.28,0,0,0h16.44c0.28,0,0-0.28,0,0v8.22c0,0.16,0.13,0.28,0.28,0.28h17.01c0.16,0,0.28-0.13,0.28-0.28v-8.22
				c0-0.28-0.28,0,0,0h16.44c0.28,0,0-0.28,0,0v8.22c0,0.16,0.13,0.28,0.28,0.28h17.01c0.16,0,0.28-0.13,0.28-0.28v-8.22
				c0-0.28-0.28,0,0,0h16.44c0.28,0,0-0.28,0,0v8.22c0,0.16,0.13,0.28,0.28,0.28h17.01c0.16,0,0.28-0.13,0.28-0.28v-8.22
				c0-0.28-0.28,0,0,0h18.28h8.5c0.16,0,0.28-0.13,0.28-0.28V281.6v-19.84c0-0.16-0.13-0.28-0.28-0.28h-8.5h-190.2h-8.5
				c-0.16,0-0.28,0.13-0.28,0.28v19.84v19.84c0,0.16,0.13,0.28,0.28,0.28H1046.07"/>
		</g>
		<g id="p-2">
			<path class="st1" d="M1258.11,301.73h31.04c0.28,0,0-0.28,0,0v8.22c0,0.16,0.13,0.28,0.28,0.28h17.01c0.16,0,0.28-0.13,0.28-0.28
				v-8.22c0-0.28-0.28,0,0,0h16.44c0.28,0,0-0.28,0,0v8.22c0,0.16,0.13,0.28,0.28,0.28h17.01c0.16,0,0.28-0.13,0.28-0.28v-8.22
				c0-0.28-0.28,0,0,0h16.44c0.28,0,0-0.28,0,0v8.22c0,0.16,0.13,0.28,0.28,0.28h17.01c0.16,0,0.28-0.13,0.28-0.28v-8.22
				c0-0.28-0.28,0,0,0h31.04c0.16,0,0.28-0.13,0.28-0.28V281.6v-19.84c0-0.16-0.13-0.28-0.28-0.28h-147.69
				c-0.16,0-0.28,0.13-0.28,0.28v19.84v19.84C1257.82,301.6,1257.95,301.73,1258.11,301.73"/>
		</g>
		<g id="p-3">
			<path class="st1" d="M1427.62,301.73h18.28c0.28,0,0-0.28,0,0v8.22c0,0.16,0.13,0.28,0.28,0.28h17.01c0.16,0,0.28-0.13,0.28-0.28
				v-8.22c0-0.28-0.28,0,0,0h16.44c0.28,0,0-0.28,0,0v8.22c0,0.16,0.13,0.28,0.28,0.28h17.01c0.16,0,0.28-0.13,0.28-0.28v-8.22
				c0-0.28-0.28,0,0,0h16.44c0.28,0,0-0.28,0,0v8.22c0,0.16,0.13,0.28,0.28,0.28h17.01c0.16,0,0.28-0.13,0.28-0.28v-8.22
				c0-0.28-0.28,0,0,0h16.44c0.28,0,0-0.28,0,0v8.22c0,0.16,0.13,0.28,0.28,0.28h17.01c0.16,0,0.28-0.13,0.28-0.28v-8.22
				c0-0.28-0.28,0,0,0h16.44c0.28,0,0-0.28,0,0v8.22c0,0.16,0.13,0.28,0.28,0.28h17.01c0.16,0,0.28-0.13,0.28-0.28v-8.22
				c0-0.28-0.28,0,0,0h18.28h8.5c0.16,0,0.28-0.13,0.28-0.28V281.6v-19.84c0-0.16-0.13-0.28-0.28-0.28h-8.5h-190.2h-8.5
				c-0.16,0-0.28,0.13-0.28,0.28v19.84v19.84c0,0.16,0.13,0.28,0.28,0.28H1427.62"/>
		</g>
		<g id="p-4">
			<path class="st1" d="M1510.33,127.68h31.04c0.28,0,0-0.28,0,0v8.22c0,0.16,0.13,0.28,0.28,0.28h17.01c0.16,0,0.28-0.13,0.28-0.28
				v-8.22c0-0.28-0.28,0,0,0h16.44c0.28,0,0-0.28,0,0v8.22c0,0.16,0.13,0.28,0.28,0.28h17.01c0.16,0,0.28-0.13,0.28-0.28v-8.22
				c0-0.28-0.28,0,0,0h16.44c0.28,0,0-0.28,0,0v8.22c0,0.16,0.13,0.28,0.28,0.28h17.01c0.16,0,0.28-0.13,0.28-0.28v-8.22
				c0-0.28-0.28,0,0,0h31.04c0.16,0,0.28-0.13,0.28-0.28v-19.84V87.71c0-0.16-0.13-0.28-0.28-0.28h-147.69
				c-0.16,0-0.28,0.13-0.28,0.28v19.84v19.84C1510.04,127.55,1510.17,127.68,1510.33,127.68"/>
		</g>
		<g id="p-5">
			<path class="st1" d="M1046.07,248.72h28.06c0.28,0,0-0.28,0,0v8.22c0,0.16,0.13,0.28,0.28,0.28h17.01c0.16,0,0.28-0.13,0.28-0.28
				v-8.22c0-0.28-0.28,0,0,0h16.44c0.28,0,0-0.28,0,0v8.22c0,0.16,0.13,0.28,0.28,0.28h17.01c0.16,0,0.28-0.13,0.28-0.28v-8.22
				c0-0.28-0.28,0,0,0h16.44c0.28,0,0-0.28,0,0v8.22c0,0.16,0.13,0.28,0.28,0.28h17.01c0.16,0,0.28-0.13,0.28-0.28v-8.22
				c0-0.28-0.28,0,0,0h16.44c0.28,0,0-0.28,0,0v8.22c0,0.16,0.13,0.28,0.28,0.28h17.01c0.16,0,0.28-0.13,0.28-0.28v-8.22
				c0-0.28-0.28,0,0,0h16.44c0.28,0,0-0.28,0,0v8.22c0,0.16,0.13,0.28,0.28,0.28h17.01c0.16,0,0.28-0.13,0.28-0.28v-8.22
				c0-0.28-0.28,0,0,0h28.06h8.5c0.16,0,0.28-0.13,0.28-0.28v-19.84v-19.84c0-0.16-0.13-0.28-0.28-0.28h-8.5h-209.76h-8.5
				c-0.16,0-0.28,0.13-0.28,0.28v19.84v19.84c0,0.16,0.13,0.28,0.28,0.28H1046.07"/>
		</g>
		<g id="p-6">
			<path class="st1" d="M1277.66,248.72h23.81c0.28,0,0-0.28,0,0v8.22c0,0.16,0.13,0.28,0.28,0.28h17.01c0.16,0,0.28-0.13,0.28-0.28
				v-8.22c0-0.28-0.28,0,0,0h16.44c0.28,0,0-0.28,0,0v8.22c0,0.16,0.13,0.28,0.28,0.28h17.01c0.16,0,0.28-0.13,0.28-0.28v-8.22
				c0-0.28-0.28,0,0,0h16.44c0.28,0,0-0.28,0,0v8.22c0,0.16,0.13,0.28,0.28,0.28h17.01c0.16,0,0.28-0.13,0.28-0.28v-8.22
				c0-0.28-0.28,0,0,0h16.44c0.28,0,0-0.28,0,0v8.22c0,0.16,0.13,0.28,0.28,0.28h17.01c0.16,0,0.28-0.13,0.28-0.28v-8.22
				c0-0.28-0.28,0,0,0h23.81c0.16,0,0.28-0.13,0.28-0.28v-19.84v-19.84c0-0.16-0.13-0.28-0.28-0.28h-167.24
				c-0.16,0-0.28,0.13-0.28,0.28v19.84v19.84C1277.38,248.59,1277.51,248.72,1277.66,248.72"/>
		</g>
		<g id="p-7">
			<path class="st1" d="M1466.74,248.72h28.06c0.28,0,0-0.28,0,0v8.22c0,0.16,0.13,0.28,0.28,0.28h17.01c0.16,0,0.28-0.13,0.28-0.28
				v-8.22c0-0.28-0.28,0,0,0h16.44c0.28,0,0-0.28,0,0v8.22c0,0.16,0.13,0.28,0.28,0.28h17.01c0.16,0,0.28-0.13,0.28-0.28v-8.22
				c0-0.28-0.28,0,0,0h16.44c0.28,0,0-0.28,0,0v8.22c0,0.16,0.13,0.28,0.28,0.28h17.01c0.16,0,0.28-0.13,0.28-0.28v-8.22
				c0-0.28-0.28,0,0,0h16.44c0.28,0,0-0.28,0,0v8.22c0,0.16,0.13,0.28,0.28,0.28h17.01c0.16,0,0.28-0.13,0.28-0.28v-8.22
				c0-0.28-0.28,0,0,0h16.44c0.28,0,0-0.28,0,0v8.22c0,0.16,0.13,0.28,0.28,0.28h17.01c0.16,0,0.28-0.13,0.28-0.28v-8.22
				c0-0.28-0.28,0,0,0h28.06h8.5c0.16,0,0.28-0.13,0.28-0.28v-19.84v-19.84c0-0.16-0.13-0.28-0.28-0.28h-8.5h-209.76h-8.5
				c-0.16,0-0.28,0.13-0.28,0.28v19.84v19.84c0,0.16,0.13,0.28,0.28,0.28H1466.74"/>
		</g>
		<g id="p-8">
			<path class="st1" d="M1510.33,59.65h23.81c0.28,0,0-0.28,0,0v8.22c0,0.16,0.13,0.28,0.28,0.28h17.01c0.16,0,0.28-0.13,0.28-0.28
				v-8.22c0-0.28-0.28,0,0,0h16.44c0.28,0,0-0.28,0,0v8.22c0,0.16,0.13,0.28,0.28,0.28h17.01c0.16,0,0.28-0.13,0.28-0.28v-8.22
				c0-0.28-0.28,0,0,0h16.44c0.28,0,0-0.28,0,0v8.22c0,0.16,0.13,0.28,0.28,0.28h17.01c0.16,0,0.28-0.13,0.28-0.28v-8.22
				c0-0.28-0.28,0,0,0h16.44c0.28,0,0-0.28,0,0v8.22c0,0.16,0.13,0.28,0.28,0.28h17.01c0.16,0,0.28-0.13,0.28-0.28v-8.22
				c0-0.28-0.28,0,0,0h23.81c0.16,0,0.28-0.13,0.28-0.28V39.52V19.68c0-0.16-0.13-0.28-0.28-0.28h-167.24
				c-0.16,0-0.28,0.13-0.28,0.28v19.84v19.84C1510.04,59.52,1510.17,59.65,1510.33,59.65"/>
		</g>
		<g id="p-9">
			<path class="st2" d="M1082.92,193.87h-8.22c-0.28,0,0,0.28,0,0v-7.94c0-0.28-0.28,0,0,0h16.44c0.28,0,0-0.28,0,0v7.94
				c0,0.28,0.28,0,0,0H1082.92z"/>
			<path class="st2" d="M1116.94,193.87h-8.22c-0.28,0,0,0.28,0,0v-7.94c0-0.28-0.28,0,0,0h16.44c0.28,0,0-0.28,0,0v7.94
				c0,0.28,0.28,0,0,0H1116.94z"/>
			<path class="st2" d="M1150.96,193.87h-8.22c-0.28,0,0,0.28,0,0v-7.94c0-0.28-0.28,0,0,0h16.44c0.28,0,0-0.28,0,0v7.94
				c0,0.28,0.28,0,0,0H1150.96z"/>
			<path class="st2" d="M1184.97,193.87h-8.22c-0.28,0,0,0.28,0,0v-7.94c0-0.28-0.28,0,0,0h16.44c0.28,0,0-0.28,0,0v7.94
				c0,0.28,0.28,0,0,0H1184.97z"/>
			<path class="st2" d="M1218.99,193.87h-8.22c-0.28,0,0,0.28,0,0v-7.94c0-0.28-0.28,0,0,0h16.44c0.28,0,0-0.28,0,0v7.94
				c0,0.28,0.28,0,0,0H1218.99z"/>
			<path class="st1" d="M1055.85,204.21h190.2h18.28c0.16,0,0.28-0.13,0.28-0.28v-18.28V37.96V19.68c0-0.16-0.13-0.28-0.28-0.28
				h-18.28h-190.2h-18.28c-0.16,0-0.28,0.13-0.28,0.28v18.28v147.69v18.28c0,0.16,0.13,0.28,0.28,0.28H1055.85"/>
			<path class="st2" d="M1254.28,145.82v8.22c0,0.28,0.28,0,0,0h-7.94c-0.28,0,0,0.28,0,0V137.6c0-0.28-0.28,0,0,0h7.94
				c0.28,0,0-0.28,0,0V145.82z"/>
			<path class="st2" d="M1254.28,111.8v8.22c0,0.28,0.28,0,0,0h-7.94c-0.28,0,0,0.28,0,0v-16.44c0-0.28-0.28,0,0,0h7.94
				c0.28,0,0-0.28,0,0V111.8z"/>
			<path class="st2" d="M1254.28,77.79v8.22c0,0.28,0.28,0,0,0h-7.94c-0.28,0,0,0.28,0,0V69.57c0-0.28-0.28,0,0,0h7.94
				c0.28,0,0-0.28,0,0V77.79z"/>
			<path class="st2" d="M1218.99,29.74h8.22c0.28,0,0-0.28,0,0v7.94c0,0.28,0.28,0,0,0h-16.44c-0.28,0,0,0.28,0,0v-7.94
				c0-0.28-0.28,0,0,0H1218.99z"/>
			<path class="st2" d="M1184.97,29.74h8.22c0.28,0,0-0.28,0,0v7.94c0,0.28,0.28,0,0,0h-16.44c-0.28,0,0,0.28,0,0v-7.94
				c0-0.28-0.28,0,0,0H1184.97z"/>
			<path class="st2" d="M1150.96,29.74h8.22c0.28,0,0-0.28,0,0v7.94c0,0.28,0.28,0,0,0h-16.44c-0.28,0,0,0.28,0,0v-7.94
				c0-0.28-0.28,0,0,0H1150.96z"/>
			<path class="st2" d="M1116.94,29.74h8.22c0.28,0,0-0.28,0,0v7.94c0,0.28,0.28,0,0,0h-16.44c-0.28,0,0,0.28,0,0v-7.94
				c0-0.28-0.28,0,0,0H1116.94z"/>
			<path class="st2" d="M1082.92,29.74h8.22c0.28,0,0-0.28,0,0v7.94c0,0.28,0.28,0,0,0h-16.44c-0.28,0,0,0.28,0,0v-7.94
				c0-0.28-0.28,0,0,0H1082.92z"/>
			<path class="st2" d="M1047.63,77.79v-8.22c0-0.28-0.28,0,0,0h7.94c0.28,0,0-0.28,0,0v16.44c0,0.28,0.28,0,0,0h-7.94
				c-0.28,0,0,0.28,0,0V77.79z"/>
			<path class="st2" d="M1047.63,111.8v-8.22c0-0.28-0.28,0,0,0h7.94c0.28,0,0-0.28,0,0v16.44c0,0.28,0.28,0,0,0h-7.94
				c-0.28,0,0,0.28,0,0V111.8z"/>
			<path class="st2" d="M1047.63,145.82v-8.22c0-0.28-0.28,0,0,0h7.94c0.28,0,0-0.28,0,0v16.44c0,0.28,0.28,0,0,0h-7.94
				c-0.28,0,0,0.28,0,0V145.82z"/>
		</g>
		<g id="p-10">
			<path class="st1" d="M1277.66,204.21h28.35c0.16,0,0.28-0.13,0.28-0.28v-8.22c0-0.28-0.28,0,0,0h16.44c0.28,0,0-0.28,0,0v8.22
				c0,0.16,0.13,0.28,0.28,0.28h17.01c0.16,0,0.28-0.13,0.28-0.28v-8.22c0-0.28-0.28,0,0,0h16.44c0.28,0,0-0.28,0,0v8.22
				c0,0.16,0.13,0.28,0.28,0.28h17.01c0.16,0,0.28-0.13,0.28-0.28v-8.22c0-0.28-0.28,0,0,0h16.44c0.28,0,0-0.28,0,0v8.22
				c0,0.16,0.13,0.28,0.28,0.28h17.01c0.16,0,0.28-0.13,0.28-0.28v-8.22c0-0.28-0.28,0,0,0h16.44c0.28,0,0-0.28,0,0v8.22
				c0,0.16,0.13,0.28,0.28,0.28h17.01c0.16,0,0.28-0.13,0.28-0.28v-8.22c0-0.28-0.28,0,0,0h16.44c0.28,0,0-0.28,0,0v8.22
				c0,0.16,0.13,0.28,0.28,0.28h28.35h8.5c0.16,0,0.28-0.13,0.28-0.28v-8.5v-24.09c0-0.16-0.13-0.28-0.28-0.28h-8.22
				c-0.28,0,0,0.28,0,0v-16.44c0-0.28-0.28,0,0,0h8.22c0.16,0,0.28-0.13,0.28-0.28v-17.01c0-0.16-0.13-0.28-0.28-0.28h-8.22
				c-0.28,0,0,0.28,0,0v-16.44c0-0.28-0.28,0,0,0h8.22c0.16,0,0.28-0.13,0.28-0.28V103.3c0-0.16-0.13-0.28-0.28-0.28h-8.22
				c-0.28,0,0,0.28,0,0V86.58c0-0.28-0.28,0,0,0h8.22c0.16,0,0.28-0.13,0.28-0.28V69.28c0-0.16-0.13-0.28-0.28-0.28h-8.22
				c-0.28,0,0,0.28,0,0V52.56c0-0.28-0.28,0,0,0h8.22c0.16,0,0.28-0.13,0.28-0.28V28.18v-8.5c0-0.16-0.13-0.28-0.28-0.28h-8.5
				h-28.35c-0.16,0-0.28,0.13-0.28,0.28v8.22c0,0.28,0.28,0,0,0h-16.44c-0.28,0,0,0.28,0,0v-8.22c0-0.16-0.13-0.28-0.28-0.28h-17.01
				c-0.16,0-0.28,0.13-0.28,0.28v8.22c0,0.28,0.28,0,0,0h-16.44c-0.28,0,0,0.28,0,0v-8.22c0-0.16-0.13-0.28-0.28-0.28h-17.01
				c-0.16,0-0.28,0.13-0.28,0.28v8.22c0,0.28,0.28,0,0,0h-16.44c-0.28,0,0,0.28,0,0v-8.22c0-0.16-0.13-0.28-0.28-0.28h-17.01
				c-0.16,0-0.28,0.13-0.28,0.28v8.22c0,0.28,0.28,0,0,0h-16.44c-0.28,0,0,0.28,0,0v-8.22c0-0.16-0.13-0.28-0.28-0.28h-17.01
				c-0.16,0-0.28,0.13-0.28,0.28v8.22c0,0.28,0.28,0,0,0h-16.44c-0.28,0,0,0.28,0,0v-8.22c0-0.16-0.13-0.28-0.28-0.28h-28.35h-8.5
				c-0.16,0-0.28,0.13-0.28,0.28v8.5v24.09c0,0.16,0.13,0.28,0.28,0.28h8.22c0.28,0,0-0.28,0,0V69c0,0.28,0.28,0,0,0h-8.22
				c-0.16,0-0.28,0.13-0.28,0.28v17.01c0,0.16,0.13,0.28,0.28,0.28h8.22c0.28,0,0-0.28,0,0v16.44c0,0.28,0.28,0,0,0h-8.22
				c-0.16,0-0.28,0.13-0.28,0.28v17.01c0,0.16,0.13,0.28,0.28,0.28h8.22c0.28,0,0-0.28,0,0v16.44c0,0.28,0.28,0,0,0h-8.22
				c-0.16,0-0.28,0.13-0.28,0.28v17.01c0,0.16,0.13,0.28,0.28,0.28h8.22c0.28,0,0-0.28,0,0v16.44c0,0.28,0.28,0,0,0h-8.22
				c-0.16,0-0.28,0.13-0.28,0.28v24.09v8.5c0,0.16,0.13,0.28,0.28,0.28H1277.66"/>
		</g>
	</g>
</g>
<g id="Layer_4">
	<g>
		<g id="p-1_1_">
			<path class="st1" d="M911.9,727.78h22.67c0.35,0,0-0.35,0,0v10.19c0,0.19,0.16,0.35,0.35,0.35h21.09c0.19,0,0.35-0.16,0.35-0.35
				v-10.19c0-0.35-0.35,0,0,0h20.39c0.35,0,0-0.35,0,0v10.19c0,0.19,0.16,0.35,0.35,0.35h21.09c0.19,0,0.35-0.16,0.35-0.35v-10.19
				c0-0.35-0.35,0,0,0h20.39c0.35,0,0-0.35,0,0v10.19c0,0.19,0.16,0.35,0.35,0.35h21.09c0.19,0,0.35-0.16,0.35-0.35v-10.19
				c0-0.35-0.35,0,0,0h20.39c0.35,0,0-0.35,0,0v10.19c0,0.19,0.16,0.35,0.35,0.35h21.09c0.19,0,0.35-0.16,0.35-0.35v-10.19
				c0-0.35-0.35,0,0,0h20.39c0.35,0,0-0.35,0,0v10.19c0,0.19,0.16,0.35,0.35,0.35h21.09c0.19,0,0.35-0.16,0.35-0.35v-10.19
				c0-0.35-0.35,0,0,0h22.67h10.54c0.19,0,0.35-0.16,0.35-0.35v-24.6v-24.6c0-0.19-0.16-0.35-0.35-0.35h-10.54H911.9h-10.54
				c-0.19,0-0.35,0.16-0.35,0.35v24.6v24.6c0,0.19,0.16,0.35,0.35,0.35H911.9"/>
		</g>
		<g id="p-2_1_">
			<path class="st1" d="M1174.82,727.78h38.49c0.35,0,0-0.35,0,0v10.19c0,0.19,0.16,0.35,0.35,0.35h21.09
				c0.19,0,0.35-0.16,0.35-0.35v-10.19c0-0.35-0.35,0,0,0h20.39c0.35,0,0-0.35,0,0v10.19c0,0.19,0.16,0.35,0.35,0.35h21.09
				c0.19,0,0.35-0.16,0.35-0.35v-10.19c0-0.35-0.35,0,0,0h20.39c0.35,0,0-0.35,0,0v10.19c0,0.19,0.16,0.35,0.35,0.35h21.09
				c0.19,0,0.35-0.16,0.35-0.35v-10.19c0-0.35-0.35,0,0,0h38.49c0.19,0,0.35-0.16,0.35-0.35v-24.6v-24.6c0-0.19-0.16-0.35-0.35-0.35
				h-183.13c-0.19,0-0.35,0.16-0.35,0.35v24.6v24.6C1174.47,727.62,1174.63,727.78,1174.82,727.78"/>
		</g>
		<g id="p-3_1_">
			<path class="st1" d="M1385.01,727.78h22.67c0.35,0,0-0.35,0,0v10.19c0,0.19,0.16,0.35,0.35,0.35h21.09
				c0.19,0,0.35-0.16,0.35-0.35v-10.19c0-0.35-0.35,0,0,0h20.39c0.35,0,0-0.35,0,0v10.19c0,0.19,0.16,0.35,0.35,0.35h21.09
				c0.19,0,0.35-0.16,0.35-0.35v-10.19c0-0.35-0.35,0,0,0h20.39c0.35,0,0-0.35,0,0v10.19c0,0.19,0.16,0.35,0.35,0.35h21.09
				c0.19,0,0.35-0.16,0.35-0.35v-10.19c0-0.35-0.35,0,0,0h20.39c0.35,0,0-0.35,0,0v10.19c0,0.19,0.16,0.35,0.35,0.35h21.09
				c0.19,0,0.35-0.16,0.35-0.35v-10.19c0-0.35-0.35,0,0,0h20.39c0.35,0,0-0.35,0,0v10.19c0,0.19,0.16,0.35,0.35,0.35h21.09
				c0.19,0,0.35-0.16,0.35-0.35v-10.19c0-0.35-0.35,0,0,0h22.67h10.54c0.19,0,0.35-0.16,0.35-0.35v-24.6v-24.6
				c0-0.19-0.16-0.35-0.35-0.35h-10.54h-235.85h-10.54c-0.19,0-0.35,0.16-0.35,0.35v24.6v24.6c0,0.19,0.16,0.35,0.35,0.35H1385.01"
				/>
		</g>
		<g id="p-4_1_">
			<path class="st1" d="M1487.57,511.96h38.49c0.35,0,0-0.35,0,0v10.19c0,0.19,0.16,0.35,0.35,0.35h21.09
				c0.19,0,0.35-0.16,0.35-0.35v-10.19c0-0.35-0.35,0,0,0h20.39c0.35,0,0-0.35,0,0v10.19c0,0.19,0.16,0.35,0.35,0.35h21.09
				c0.19,0,0.35-0.16,0.35-0.35v-10.19c0-0.35-0.35,0,0,0h20.39c0.35,0,0-0.35,0,0v10.19c0,0.19,0.16,0.35,0.35,0.35h21.09
				c0.19,0,0.35-0.16,0.35-0.35v-10.19c0-0.35-0.35,0,0,0h38.49c0.19,0,0.35-0.16,0.35-0.35V487v-24.6c0-0.19-0.16-0.35-0.35-0.35
				h-183.13c-0.19,0-0.35,0.16-0.35,0.35V487v24.6C1487.22,511.8,1487.38,511.96,1487.57,511.96"/>
		</g>
		<g id="p-5_1_">
			<path class="st1" d="M911.9,662.05h34.8c0.35,0,0-0.35,0,0v10.19c0,0.19,0.16,0.35,0.35,0.35h21.09c0.19,0,0.35-0.16,0.35-0.35
				v-10.19c0-0.35-0.35,0,0,0h20.39c0.35,0,0-0.35,0,0v10.19c0,0.19,0.16,0.35,0.35,0.35h21.09c0.19,0,0.35-0.16,0.35-0.35v-10.19
				c0-0.35-0.35,0,0,0h20.39c0.35,0,0-0.35,0,0v10.19c0,0.19,0.16,0.35,0.35,0.35h21.09c0.19,0,0.35-0.16,0.35-0.35v-10.19
				c0-0.35-0.35,0,0,0h20.39c0.35,0,0-0.35,0,0v10.19c0,0.19,0.16,0.35,0.35,0.35h21.09c0.19,0,0.35-0.16,0.35-0.35v-10.19
				c0-0.35-0.35,0,0,0h20.39c0.35,0,0-0.35,0,0v10.19c0,0.19,0.16,0.35,0.35,0.35h21.09c0.19,0,0.35-0.16,0.35-0.35v-10.19
				c0-0.35-0.35,0,0,0h34.8h10.54c0.19,0,0.35-0.16,0.35-0.35v-24.6v-24.6c0-0.19-0.16-0.35-0.35-0.35h-10.54H911.9h-10.54
				c-0.19,0-0.35,0.16-0.35,0.35v24.6v24.6c0,0.19,0.16,0.35,0.35,0.35H911.9"/>
		</g>
		<g id="p-6_1_">
			<path class="st1" d="M1199.07,662.05h29.53c0.35,0,0-0.35,0,0v10.19c0,0.19,0.16,0.35,0.35,0.35h21.09
				c0.19,0,0.35-0.16,0.35-0.35v-10.19c0-0.35-0.35,0,0,0h20.39c0.35,0,0-0.35,0,0v10.19c0,0.19,0.16,0.35,0.35,0.35h21.09
				c0.19,0,0.35-0.16,0.35-0.35v-10.19c0-0.35-0.35,0,0,0h20.39c0.35,0,0-0.35,0,0v10.19c0,0.19,0.16,0.35,0.35,0.35h21.09
				c0.19,0,0.35-0.16,0.35-0.35v-10.19c0-0.35-0.35,0,0,0h20.39c0.35,0,0-0.35,0,0v10.19c0,0.19,0.16,0.35,0.35,0.35h21.09
				c0.19,0,0.35-0.16,0.35-0.35v-10.19c0-0.35-0.35,0,0,0h29.53c0.19,0,0.35-0.16,0.35-0.35v-24.6v-24.6c0-0.19-0.16-0.35-0.35-0.35
				h-207.38c-0.19,0-0.35,0.16-0.35,0.35v24.6v24.6C1198.72,661.89,1198.88,662.05,1199.07,662.05"/>
		</g>
		<g id="p-7_1_">
			<path class="st1" d="M1433.52,662.05h34.8c0.35,0,0-0.35,0,0v10.19c0,0.19,0.16,0.35,0.35,0.35h21.09c0.19,0,0.35-0.16,0.35-0.35
				v-10.19c0-0.35-0.35,0,0,0h20.39c0.35,0,0-0.35,0,0v10.19c0,0.19,0.16,0.35,0.35,0.35h21.09c0.19,0,0.35-0.16,0.35-0.35v-10.19
				c0-0.35-0.35,0,0,0h20.39c0.35,0,0-0.35,0,0v10.19c0,0.19,0.16,0.35,0.35,0.35h21.09c0.19,0,0.35-0.16,0.35-0.35v-10.19
				c0-0.35-0.35,0,0,0h20.39c0.35,0,0-0.35,0,0v10.19c0,0.19,0.16,0.35,0.35,0.35h21.09c0.19,0,0.35-0.16,0.35-0.35v-10.19
				c0-0.35-0.35,0,0,0h20.39c0.35,0,0-0.35,0,0v10.19c0,0.19,0.16,0.35,0.35,0.35h21.09c0.19,0,0.35-0.16,0.35-0.35v-10.19
				c0-0.35-0.35,0,0,0h34.8h10.54c0.19,0,0.35-0.16,0.35-0.35v-24.6v-24.6c0-0.19-0.16-0.35-0.35-0.35h-10.54h-260.11h-10.54
				c-0.19,0-0.35,0.16-0.35,0.35v24.6v24.6c0,0.19,0.16,0.35,0.35,0.35H1433.52"/>
		</g>
		<g id="p-8_1_">
			<path class="st1" d="M1487.57,427.6h29.53c0.35,0,0-0.35,0,0v10.19c0,0.19,0.16,0.35,0.35,0.35h21.09c0.19,0,0.35-0.16,0.35-0.35
				V427.6c0-0.35-0.35,0,0,0h20.39c0.35,0,0-0.35,0,0v10.19c0,0.19,0.16,0.35,0.35,0.35h21.09c0.19,0,0.35-0.16,0.35-0.35V427.6
				c0-0.35-0.35,0,0,0h20.39c0.35,0,0-0.35,0,0v10.19c0,0.19,0.16,0.35,0.35,0.35h21.09c0.19,0,0.35-0.16,0.35-0.35V427.6
				c0-0.35-0.35,0,0,0h20.39c0.35,0,0-0.35,0,0v10.19c0,0.19,0.16,0.35,0.35,0.35h21.09c0.19,0,0.35-0.16,0.35-0.35V427.6
				c0-0.35-0.35,0,0,0h29.53c0.19,0,0.35-0.16,0.35-0.35v-24.6v-24.6c0-0.19-0.16-0.35-0.35-0.35h-207.38
				c-0.19,0-0.35,0.16-0.35,0.35v24.6v24.6C1487.22,427.44,1487.38,427.6,1487.57,427.6"/>
		</g>
		<g id="p-9_1_">
			<path class="st2" d="M957.59,594.03H947.4c-0.35,0,0,0.35,0,0v-9.84c0-0.35-0.35,0,0,0h20.39c0.35,0,0-0.35,0,0v9.84
				c0,0.35,0.35,0,0,0H957.59z"/>
			<path class="st2" d="M999.77,594.03h-10.19c-0.35,0,0,0.35,0,0v-9.84c0-0.35-0.35,0,0,0h20.39c0.35,0,0-0.35,0,0v9.84
				c0,0.35,0.35,0,0,0H999.77z"/>
			<path class="st2" d="M1041.95,594.03h-10.19c-0.35,0,0,0.35,0,0v-9.84c0-0.35-0.35,0,0,0h20.39c0.35,0,0-0.35,0,0v9.84
				c0,0.35,0.35,0,0,0H1041.95z"/>
			<path class="st2" d="M1084.13,594.03h-10.19c-0.35,0,0,0.35,0,0v-9.84c0-0.35-0.35,0,0,0h20.39c0.35,0,0-0.35,0,0v9.84
				c0,0.35,0.35,0,0,0H1084.13z"/>
			<path class="st2" d="M1126.31,594.03h-10.19c-0.35,0,0,0.35,0,0v-9.84c0-0.35-0.35,0,0,0h20.39c0.35,0,0-0.35,0,0v9.84
				c0,0.35,0.35,0,0,0H1126.31z"/>
			<path class="st1" d="M924.03,606.86h235.85h22.67c0.19,0,0.35-0.16,0.35-0.35v-22.67V400.71v-22.67c0-0.19-0.16-0.35-0.35-0.35
				h-22.67H924.03h-22.67c-0.19,0-0.35,0.16-0.35,0.35v22.67v183.13v22.67c0,0.19,0.16,0.35,0.35,0.35H924.03"/>
			<path class="st2" d="M1170.07,534.45v10.19c0,0.35,0.35,0,0,0h-9.84c-0.35,0,0,0.35,0,0v-20.39c0-0.35-0.35,0,0,0h9.84
				c0.35,0,0-0.35,0,0V534.45z"/>
			<path class="st2" d="M1170.07,492.27v10.19c0,0.35,0.35,0,0,0h-9.84c-0.35,0,0,0.35,0,0v-20.39c0-0.35-0.35,0,0,0h9.84
				c0.35,0,0-0.35,0,0V492.27z"/>
			<path class="st2" d="M1170.07,450.09v10.19c0,0.35,0.35,0,0,0h-9.84c-0.35,0,0,0.35,0,0V439.9c0-0.35-0.35,0,0,0h9.84
				c0.35,0,0-0.35,0,0V450.09z"/>
			<path class="st2" d="M1126.31,390.52h10.19c0.35,0,0-0.35,0,0v9.84c0,0.35,0.35,0,0,0h-20.39c-0.35,0,0,0.35,0,0v-9.84
				c0-0.35-0.35,0,0,0H1126.31z"/>
			<path class="st2" d="M1084.13,390.52h10.19c0.35,0,0-0.35,0,0v9.84c0,0.35,0.35,0,0,0h-20.39c-0.35,0,0,0.35,0,0v-9.84
				c0-0.35-0.35,0,0,0H1084.13z"/>
			<path class="st2" d="M1041.95,390.52h10.19c0.35,0,0-0.35,0,0v9.84c0,0.35,0.35,0,0,0h-20.39c-0.35,0,0,0.35,0,0v-9.84
				c0-0.35-0.35,0,0,0H1041.95z"/>
			<path class="st2" d="M999.77,390.52h10.19c0.35,0,0-0.35,0,0v9.84c0,0.35,0.35,0,0,0h-20.39c-0.35,0,0,0.35,0,0v-9.84
				c0-0.35-0.35,0,0,0H999.77z"/>
			<path class="st2" d="M957.59,390.52h10.19c0.35,0,0-0.35,0,0v9.84c0,0.35,0.35,0,0,0H947.4c-0.35,0,0,0.35,0,0v-9.84
				c0-0.35-0.35,0,0,0H957.59z"/>
			<path class="st2" d="M913.83,450.09V439.9c0-0.35-0.35,0,0,0h9.84c0.35,0,0-0.35,0,0v20.39c0,0.35,0.35,0,0,0h-9.84
				c-0.35,0,0,0.35,0,0V450.09z"/>
			<path class="st2" d="M913.83,492.27v-10.19c0-0.35-0.35,0,0,0h9.84c0.35,0,0-0.35,0,0v20.39c0,0.35,0.35,0,0,0h-9.84
				c-0.35,0,0,0.35,0,0V492.27z"/>
			<path class="st2" d="M913.83,534.45v-10.19c0-0.35-0.35,0,0,0h9.84c0.35,0,0-0.35,0,0v20.39c0,0.35,0.35,0,0,0h-9.84
				c-0.35,0,0,0.35,0,0V534.45z"/>
		</g>
		<g id="p-10_1_">
			<path class="st1" d="M1199.07,606.86h35.15c0.19,0,0.35-0.16,0.35-0.35v-10.19c0-0.35-0.35,0,0,0h20.39c0.35,0,0-0.35,0,0v10.19
				c0,0.19,0.16,0.35,0.35,0.35h21.09c0.19,0,0.35-0.16,0.35-0.35v-10.19c0-0.35-0.35,0,0,0h20.39c0.35,0,0-0.35,0,0v10.19
				c0,0.19,0.16,0.35,0.35,0.35h21.09c0.19,0,0.35-0.16,0.35-0.35v-10.19c0-0.35-0.35,0,0,0h20.39c0.35,0,0-0.35,0,0v10.19
				c0,0.19,0.16,0.35,0.35,0.35h21.09c0.19,0,0.35-0.16,0.35-0.35v-10.19c0-0.35-0.35,0,0,0h20.39c0.35,0,0-0.35,0,0v10.19
				c0,0.19,0.16,0.35,0.35,0.35h21.09c0.19,0,0.35-0.16,0.35-0.35v-10.19c0-0.35-0.35,0,0,0h20.39c0.35,0,0-0.35,0,0v10.19
				c0,0.19,0.16,0.35,0.35,0.35h35.15h10.54c0.19,0,0.35-0.16,0.35-0.35v-10.54v-29.88c0-0.19-0.16-0.35-0.35-0.35h-10.19
				c-0.35,0,0,0.35,0,0v-20.39c0-0.35-0.35,0,0,0h10.19c0.19,0,0.35-0.16,0.35-0.35v-21.09c0-0.19-0.16-0.35-0.35-0.35h-10.19
				c-0.35,0,0,0.35,0,0v-20.39c0-0.35-0.35,0,0,0h10.19c0.19,0,0.35-0.16,0.35-0.35v-21.09c0-0.19-0.16-0.35-0.35-0.35h-10.19
				c-0.35,0,0,0.35,0,0v-20.39c0-0.35-0.35,0,0,0h10.19c0.19,0,0.35-0.16,0.35-0.35v-21.09c0-0.19-0.16-0.35-0.35-0.35h-10.19
				c-0.35,0,0,0.35,0,0v-20.39c0-0.35-0.35,0,0,0h10.19c0.19,0,0.35-0.16,0.35-0.35v-29.88v-10.54c0-0.19-0.16-0.35-0.35-0.35
				h-10.54h-35.15c-0.19,0-0.35,0.16-0.35,0.35v10.19c0,0.35,0.35,0,0,0h-20.39c-0.35,0,0,0.35,0,0v-10.19
				c0-0.19-0.16-0.35-0.35-0.35h-21.09c-0.19,0-0.35,0.16-0.35,0.35v10.19c0,0.35,0.35,0,0,0h-20.39c-0.35,0,0,0.35,0,0v-10.19
				c0-0.19-0.16-0.35-0.35-0.35h-21.09c-0.19,0-0.35,0.16-0.35,0.35v10.19c0,0.35,0.35,0,0,0h-20.39c-0.35,0,0,0.35,0,0v-10.19
				c0-0.19-0.16-0.35-0.35-0.35h-21.09c-0.19,0-0.35,0.16-0.35,0.35v10.19c0,0.35,0.35,0,0,0h-20.39c-0.35,0,0,0.35,0,0v-10.19
				c0-0.19-0.16-0.35-0.35-0.35h-21.09c-0.19,0-0.35,0.16-0.35,0.35v10.19c0,0.35,0.35,0,0,0h-20.39c-0.35,0,0,0.35,0,0v-10.19
				c0-0.19-0.16-0.35-0.35-0.35h-35.15h-10.54c-0.19,0-0.35,0.16-0.35,0.35v10.54v29.88c0,0.19,0.16,0.35,0.35,0.35h10.19
				c0.35,0,0-0.35,0,0v20.39c0,0.35,0.35,0,0,0h-10.19c-0.19,0-0.35,0.16-0.35,0.35v21.09c0,0.19,0.16,0.35,0.35,0.35h10.19
				c0.35,0,0-0.35,0,0v20.39c0,0.35,0.35,0,0,0h-10.19c-0.19,0-0.35,0.16-0.35,0.35v21.09c0,0.19,0.16,0.35,0.35,0.35h10.19
				c0.35,0,0-0.35,0,0v20.39c0,0.35,0.35,0,0,0h-10.19c-0.19,0-0.35,0.16-0.35,0.35V545c0,0.19,0.16,0.35,0.35,0.35h10.19
				c0.35,0,0-0.35,0,0v20.39c0,0.35,0.35,0,0,0h-10.19c-0.19,0-0.35,0.16-0.35,0.35v29.88v10.54c0,0.19,0.16,0.35,0.35,0.35H1199.07
				"/>
		</g>
	</g>
</g>
<g id="Layer_5">
	<g>
		<g id="p-1_2_">
			<path class="st1" d="M907.72,1109.58h22.67c0.35,0,0-0.35,0,0v10.19c0,0.19,0.16,0.35,0.35,0.35h21.09
				c0.19,0,0.35-0.16,0.35-0.35v-10.19c0-0.35-0.35,0,0,0h20.39c0.35,0,0-0.35,0,0v10.19c0,0.19,0.16,0.35,0.35,0.35h21.09
				c0.19,0,0.35-0.16,0.35-0.35v-10.19c0-0.35-0.35,0,0,0h20.39c0.35,0,0-0.35,0,0v10.19c0,0.19,0.16,0.35,0.35,0.35h21.09
				c0.19,0,0.35-0.16,0.35-0.35v-10.19c0-0.35-0.35,0,0,0h20.39c0.35,0,0-0.35,0,0v10.19c0,0.19,0.16,0.35,0.35,0.35h21.09
				c0.19,0,0.35-0.16,0.35-0.35v-10.19c0-0.35-0.35,0,0,0h20.39c0.35,0,0-0.35,0,0v10.19c0,0.19,0.16,0.35,0.35,0.35h21.09
				c0.19,0,0.35-0.16,0.35-0.35v-10.19c0-0.35-0.35,0,0,0h22.67h10.54c0.19,0,0.35-0.16,0.35-0.35v-24.6v-24.6
				c0-0.19-0.16-0.35-0.35-0.35h-10.54H907.72h-10.54c-0.19,0-0.35,0.16-0.35,0.35v24.6v24.6c0,0.19,0.16,0.35,0.35,0.35H907.72"/>
		</g>
		<g id="p-2_2_">
			<path class="st1" d="M1170.64,1109.58h38.49c0.35,0,0-0.35,0,0v10.19c0,0.19,0.16,0.35,0.35,0.35h21.09
				c0.19,0,0.35-0.16,0.35-0.35v-10.19c0-0.35-0.35,0,0,0h20.39c0.35,0,0-0.35,0,0v10.19c0,0.19,0.16,0.35,0.35,0.35h21.09
				c0.19,0,0.35-0.16,0.35-0.35v-10.19c0-0.35-0.35,0,0,0h20.39c0.35,0,0-0.35,0,0v10.19c0,0.19,0.16,0.35,0.35,0.35h21.09
				c0.19,0,0.35-0.16,0.35-0.35v-10.19c0-0.35-0.35,0,0,0h38.49c0.19,0,0.35-0.16,0.35-0.35v-24.6v-24.6c0-0.19-0.16-0.35-0.35-0.35
				h-183.13c-0.19,0-0.35,0.16-0.35,0.35v24.6v24.6C1170.29,1109.42,1170.44,1109.58,1170.64,1109.58"/>
		</g>
		<g id="p-3_2_">
			<path class="st1" d="M1380.83,1109.58h22.67c0.35,0,0-0.35,0,0v10.19c0,0.19,0.16,0.35,0.35,0.35h21.09
				c0.19,0,0.35-0.16,0.35-0.35v-10.19c0-0.35-0.35,0,0,0h20.39c0.35,0,0-0.35,0,0v10.19c0,0.19,0.16,0.35,0.35,0.35h21.09
				c0.19,0,0.35-0.16,0.35-0.35v-10.19c0-0.35-0.35,0,0,0h20.39c0.35,0,0-0.35,0,0v10.19c0,0.19,0.16,0.35,0.35,0.35h21.09
				c0.19,0,0.35-0.16,0.35-0.35v-10.19c0-0.35-0.35,0,0,0h20.39c0.35,0,0-0.35,0,0v10.19c0,0.19,0.16,0.35,0.35,0.35h21.09
				c0.19,0,0.35-0.16,0.35-0.35v-10.19c0-0.35-0.35,0,0,0h20.39c0.35,0,0-0.35,0,0v10.19c0,0.19,0.16,0.35,0.35,0.35h21.09
				c0.19,0,0.35-0.16,0.35-0.35v-10.19c0-0.35-0.35,0,0,0h22.67h10.54c0.19,0,0.35-0.16,0.35-0.35v-24.6v-24.6
				c0-0.19-0.16-0.35-0.35-0.35h-10.54h-235.85h-10.54c-0.19,0-0.35,0.16-0.35,0.35v24.6v24.6c0,0.19,0.16,0.35,0.35,0.35H1380.83"
				/>
		</g>
		<g id="p-4_2_">
			<path class="st1" d="M1483.39,893.76h38.49c0.35,0,0-0.35,0,0v10.19c0,0.19,0.16,0.35,0.35,0.35h21.09
				c0.19,0,0.35-0.16,0.35-0.35v-10.19c0-0.35-0.35,0,0,0h20.39c0.35,0,0-0.35,0,0v10.19c0,0.19,0.16,0.35,0.35,0.35h21.09
				c0.19,0,0.35-0.16,0.35-0.35v-10.19c0-0.35-0.35,0,0,0h20.39c0.35,0,0-0.35,0,0v10.19c0,0.19,0.16,0.35,0.35,0.35h21.09
				c0.19,0,0.35-0.16,0.35-0.35v-10.19c0-0.35-0.35,0,0,0h38.49c0.19,0,0.35-0.16,0.35-0.35v-24.6v-24.6c0-0.19-0.16-0.35-0.35-0.35
				h-183.13c-0.19,0-0.35,0.16-0.35,0.35v24.6v24.6C1483.04,893.6,1483.2,893.76,1483.39,893.76"/>
		</g>
		<g id="p-5_2_">
			<path class="st1" d="M907.72,1043.85h34.8c0.35,0,0-0.35,0,0v10.19c0,0.19,0.16,0.35,0.35,0.35h21.09c0.19,0,0.35-0.16,0.35-0.35
				v-10.19c0-0.35-0.35,0,0,0h20.39c0.35,0,0-0.35,0,0v10.19c0,0.19,0.16,0.35,0.35,0.35h21.09c0.19,0,0.35-0.16,0.35-0.35v-10.19
				c0-0.35-0.35,0,0,0h20.39c0.35,0,0-0.35,0,0v10.19c0,0.19,0.16,0.35,0.35,0.35h21.09c0.19,0,0.35-0.16,0.35-0.35v-10.19
				c0-0.35-0.35,0,0,0h20.39c0.35,0,0-0.35,0,0v10.19c0,0.19,0.16,0.35,0.35,0.35h21.09c0.19,0,0.35-0.16,0.35-0.35v-10.19
				c0-0.35-0.35,0,0,0h20.39c0.35,0,0-0.35,0,0v10.19c0,0.19,0.16,0.35,0.35,0.35h21.09c0.19,0,0.35-0.16,0.35-0.35v-10.19
				c0-0.35-0.35,0,0,0h34.8h10.54c0.19,0,0.35-0.16,0.35-0.35v-24.6v-24.6c0-0.19-0.16-0.35-0.35-0.35h-10.54H907.72h-10.54
				c-0.19,0-0.35,0.16-0.35,0.35v24.6v24.6c0,0.19,0.16,0.35,0.35,0.35H907.72"/>
		</g>
		<g id="p-6_2_">
			<path class="st1" d="M1194.89,1043.85h29.53c0.35,0,0-0.35,0,0v10.19c0,0.19,0.16,0.35,0.35,0.35h21.09
				c0.19,0,0.35-0.16,0.35-0.35v-10.19c0-0.35-0.35,0,0,0h20.39c0.35,0,0-0.35,0,0v10.19c0,0.19,0.16,0.35,0.35,0.35h21.09
				c0.19,0,0.35-0.16,0.35-0.35v-10.19c0-0.35-0.35,0,0,0h20.39c0.35,0,0-0.35,0,0v10.19c0,0.19,0.16,0.35,0.35,0.35h21.09
				c0.19,0,0.35-0.16,0.35-0.35v-10.19c0-0.35-0.35,0,0,0h20.39c0.35,0,0-0.35,0,0v10.19c0,0.19,0.16,0.35,0.35,0.35h21.09
				c0.19,0,0.35-0.16,0.35-0.35v-10.19c0-0.35-0.35,0,0,0h29.53c0.19,0,0.35-0.16,0.35-0.35v-24.6v-24.6c0-0.19-0.16-0.35-0.35-0.35
				h-207.38c-0.19,0-0.35,0.16-0.35,0.35v24.6v24.6C1194.54,1043.69,1194.7,1043.85,1194.89,1043.85"/>
		</g>
		<g id="p-7_2_">
			<path class="st1" d="M1429.34,1043.85h34.8c0.35,0,0-0.35,0,0v10.19c0,0.19,0.16,0.35,0.35,0.35h21.09
				c0.19,0,0.35-0.16,0.35-0.35v-10.19c0-0.35-0.35,0,0,0h20.39c0.35,0,0-0.35,0,0v10.19c0,0.19,0.16,0.35,0.35,0.35h21.09
				c0.19,0,0.35-0.16,0.35-0.35v-10.19c0-0.35-0.35,0,0,0h20.39c0.35,0,0-0.35,0,0v10.19c0,0.19,0.16,0.35,0.35,0.35h21.09
				c0.19,0,0.35-0.16,0.35-0.35v-10.19c0-0.35-0.35,0,0,0h20.39c0.35,0,0-0.35,0,0v10.19c0,0.19,0.16,0.35,0.35,0.35h21.09
				c0.19,0,0.35-0.16,0.35-0.35v-10.19c0-0.35-0.35,0,0,0h20.39c0.35,0,0-0.35,0,0v10.19c0,0.19,0.16,0.35,0.35,0.35h21.09
				c0.19,0,0.35-0.16,0.35-0.35v-10.19c0-0.35-0.35,0,0,0h34.8h10.54c0.19,0,0.35-0.16,0.35-0.35v-24.6v-24.6
				c0-0.19-0.16-0.35-0.35-0.35h-10.54h-260.11h-10.54c-0.19,0-0.35,0.16-0.35,0.35v24.6v24.6c0,0.19,0.16,0.35,0.35,0.35H1429.34"
				/>
		</g>
		<g id="p-8_2_">
			<path class="st1" d="M1483.39,809.4h29.53c0.35,0,0-0.35,0,0v10.19c0,0.19,0.16,0.35,0.35,0.35h21.09c0.19,0,0.35-0.16,0.35-0.35
				V809.4c0-0.35-0.35,0,0,0h20.39c0.35,0,0-0.35,0,0v10.19c0,0.19,0.16,0.35,0.35,0.35h21.09c0.19,0,0.35-0.16,0.35-0.35V809.4
				c0-0.35-0.35,0,0,0h20.39c0.35,0,0-0.35,0,0v10.19c0,0.19,0.16,0.35,0.35,0.35h21.09c0.19,0,0.35-0.16,0.35-0.35V809.4
				c0-0.35-0.35,0,0,0h20.39c0.35,0,0-0.35,0,0v10.19c0,0.19,0.16,0.35,0.35,0.35h21.09c0.19,0,0.35-0.16,0.35-0.35V809.4
				c0-0.35-0.35,0,0,0h29.53c0.19,0,0.35-0.16,0.35-0.35v-24.6v-24.6c0-0.19-0.16-0.35-0.35-0.35h-207.38
				c-0.19,0-0.35,0.16-0.35,0.35v24.6v24.6C1483.04,809.24,1483.2,809.4,1483.39,809.4"/>
		</g>
		<g id="p-9_2_">
			<path class="st2" d="M953.41,975.83h-10.19c-0.35,0,0,0.35,0,0v-9.84c0-0.35-0.35,0,0,0h20.39c0.35,0,0-0.35,0,0v9.84
				c0,0.35,0.35,0,0,0H953.41z"/>
			<path class="st2" d="M995.59,975.83H985.4c-0.35,0,0,0.35,0,0v-9.84c0-0.35-0.35,0,0,0h20.39c0.35,0,0-0.35,0,0v9.84
				c0,0.35,0.35,0,0,0H995.59z"/>
			<path class="st2" d="M1037.77,975.83h-10.19c-0.35,0,0,0.35,0,0v-9.84c0-0.35-0.35,0,0,0h20.39c0.35,0,0-0.35,0,0v9.84
				c0,0.35,0.35,0,0,0H1037.77z"/>
			<path class="st2" d="M1079.95,975.83h-10.19c-0.35,0,0,0.35,0,0v-9.84c0-0.35-0.35,0,0,0h20.39c0.35,0,0-0.35,0,0v9.84
				c0,0.35,0.35,0,0,0H1079.95z"/>
			<path class="st2" d="M1122.13,975.83h-10.19c-0.35,0,0,0.35,0,0v-9.84c0-0.35-0.35,0,0,0h20.39c0.35,0,0-0.35,0,0v9.84
				c0,0.35,0.35,0,0,0H1122.13z"/>
			<path class="st1" d="M919.84,988.66h235.85h22.67c0.19,0,0.35-0.16,0.35-0.35v-22.67V782.51v-22.67c0-0.19-0.16-0.35-0.35-0.35
				h-22.67H919.84h-22.67c-0.19,0-0.35,0.16-0.35,0.35v22.67v183.13v22.67c0,0.19,0.16,0.35,0.35,0.35H919.84"/>
			<path class="st2" d="M1165.89,916.25v10.19c0,0.35,0.35,0,0,0h-9.84c-0.35,0,0,0.35,0,0v-20.39c0-0.35-0.35,0,0,0h9.84
				c0.35,0,0-0.35,0,0V916.25z"/>
			<path class="st2" d="M1165.89,874.07v10.19c0,0.35,0.35,0,0,0h-9.84c-0.35,0,0,0.35,0,0v-20.39c0-0.35-0.35,0,0,0h9.84
				c0.35,0,0-0.35,0,0V874.07z"/>
			<path class="st2" d="M1165.89,831.89v10.19c0,0.35,0.35,0,0,0h-9.84c-0.35,0,0,0.35,0,0V821.7c0-0.35-0.35,0,0,0h9.84
				c0.35,0,0-0.35,0,0V831.89z"/>
			<path class="st2" d="M1122.13,772.32h10.19c0.35,0,0-0.35,0,0v9.84c0,0.35,0.35,0,0,0h-20.39c-0.35,0,0,0.35,0,0v-9.84
				c0-0.35-0.35,0,0,0H1122.13z"/>
			<path class="st2" d="M1079.95,772.32h10.19c0.35,0,0-0.35,0,0v9.84c0,0.35,0.35,0,0,0h-20.39c-0.35,0,0,0.35,0,0v-9.84
				c0-0.35-0.35,0,0,0H1079.95z"/>
			<path class="st2" d="M1037.77,772.32h10.19c0.35,0,0-0.35,0,0v9.84c0,0.35,0.35,0,0,0h-20.39c-0.35,0,0,0.35,0,0v-9.84
				c0-0.35-0.35,0,0,0H1037.77z"/>
			<path class="st2" d="M995.59,772.32h10.19c0.35,0,0-0.35,0,0v9.84c0,0.35,0.35,0,0,0H985.4c-0.35,0,0,0.35,0,0v-9.84
				c0-0.35-0.35,0,0,0H995.59z"/>
			<path class="st2" d="M953.41,772.32h10.19c0.35,0,0-0.35,0,0v9.84c0,0.35,0.35,0,0,0h-20.39c-0.35,0,0,0.35,0,0v-9.84
				c0-0.35-0.35,0,0,0H953.41z"/>
			<path class="st2" d="M909.65,831.89V821.7c0-0.35-0.35,0,0,0h9.84c0.35,0,0-0.35,0,0v20.39c0,0.35,0.35,0,0,0h-9.84
				c-0.35,0,0,0.35,0,0V831.89z"/>
			<path class="st2" d="M909.65,874.07v-10.19c0-0.35-0.35,0,0,0h9.84c0.35,0,0-0.35,0,0v20.39c0,0.35,0.35,0,0,0h-9.84
				c-0.35,0,0,0.35,0,0V874.07z"/>
			<path class="st2" d="M909.65,916.25v-10.19c0-0.35-0.35,0,0,0h9.84c0.35,0,0-0.35,0,0v20.39c0,0.35,0.35,0,0,0h-9.84
				c-0.35,0,0,0.35,0,0V916.25z"/>
		</g>
		<g id="p-10_2_">
			<path class="st1" d="M1194.89,988.66h35.15c0.19,0,0.35-0.16,0.35-0.35v-10.19c0-0.35-0.35,0,0,0h20.39c0.35,0,0-0.35,0,0v10.19
				c0,0.19,0.16,0.35,0.35,0.35h21.09c0.19,0,0.35-0.16,0.35-0.35v-10.19c0-0.35-0.35,0,0,0h20.39c0.35,0,0-0.35,0,0v10.19
				c0,0.19,0.16,0.35,0.35,0.35h21.09c0.19,0,0.35-0.16,0.35-0.35v-10.19c0-0.35-0.35,0,0,0h20.39c0.35,0,0-0.35,0,0v10.19
				c0,0.19,0.16,0.35,0.35,0.35h21.09c0.19,0,0.35-0.16,0.35-0.35v-10.19c0-0.35-0.35,0,0,0h20.39c0.35,0,0-0.35,0,0v10.19
				c0,0.19,0.16,0.35,0.35,0.35h21.09c0.19,0,0.35-0.16,0.35-0.35v-10.19c0-0.35-0.35,0,0,0h20.39c0.35,0,0-0.35,0,0v10.19
				c0,0.19,0.16,0.35,0.35,0.35H1455h10.54c0.19,0,0.35-0.16,0.35-0.35v-10.54v-29.88c0-0.19-0.16-0.35-0.35-0.35h-10.19
				c-0.35,0,0,0.35,0,0v-20.39c0-0.35-0.35,0,0,0h10.19c0.19,0,0.35-0.16,0.35-0.35v-21.09c0-0.19-0.16-0.35-0.35-0.35h-10.19
				c-0.35,0,0,0.35,0,0v-20.39c0-0.35-0.35,0,0,0h10.19c0.19,0,0.35-0.16,0.35-0.35v-21.09c0-0.19-0.16-0.35-0.35-0.35h-10.19
				c-0.35,0,0,0.35,0,0v-20.39c0-0.35-0.35,0,0,0h10.19c0.19,0,0.35-0.16,0.35-0.35v-21.09c0-0.19-0.16-0.35-0.35-0.35h-10.19
				c-0.35,0,0,0.35,0,0v-20.39c0-0.35-0.35,0,0,0h10.19c0.19,0,0.35-0.16,0.35-0.35v-29.88v-10.54c0-0.19-0.16-0.35-0.35-0.35H1455
				h-35.15c-0.19,0-0.35,0.16-0.35,0.35v10.19c0,0.35,0.35,0,0,0h-20.39c-0.35,0,0,0.35,0,0v-10.19c0-0.19-0.16-0.35-0.35-0.35
				h-21.09c-0.19,0-0.35,0.16-0.35,0.35v10.19c0,0.35,0.35,0,0,0h-20.39c-0.35,0,0,0.35,0,0v-10.19c0-0.19-0.16-0.35-0.35-0.35
				h-21.09c-0.19,0-0.35,0.16-0.35,0.35v10.19c0,0.35,0.35,0,0,0h-20.39c-0.35,0,0,0.35,0,0v-10.19c0-0.19-0.16-0.35-0.35-0.35
				h-21.09c-0.19,0-0.35,0.16-0.35,0.35v10.19c0,0.35,0.35,0,0,0h-20.39c-0.35,0,0,0.35,0,0v-10.19c0-0.19-0.16-0.35-0.35-0.35
				h-21.09c-0.19,0-0.35,0.16-0.35,0.35v10.19c0,0.35,0.35,0,0,0h-20.39c-0.35,0,0,0.35,0,0v-10.19c0-0.19-0.16-0.35-0.35-0.35
				h-35.15h-10.54c-0.19,0-0.35,0.16-0.35,0.35v10.54v29.88c0,0.19,0.16,0.35,0.35,0.35h10.19c0.35,0,0-0.35,0,0V821
				c0,0.35,0.35,0,0,0h-10.19c-0.19,0-0.35,0.16-0.35,0.35v21.09c0,0.19,0.16,0.35,0.35,0.35h10.19c0.35,0,0-0.35,0,0v20.39
				c0,0.35,0.35,0,0,0h-10.19c-0.19,0-0.35,0.16-0.35,0.35v21.09c0,0.19,0.16,0.35,0.35,0.35h10.19c0.35,0,0-0.35,0,0v20.39
				c0,0.35,0.35,0,0,0h-10.19c-0.19,0-0.35,0.16-0.35,0.35v21.09c0,0.19,0.16,0.35,0.35,0.35h10.19c0.35,0,0-0.35,0,0v20.39
				c0,0.35,0.35,0,0,0h-10.19c-0.19,0-0.35,0.16-0.35,0.35v29.88v10.54c0,0.19,0.16,0.35,0.35,0.35H1194.89"/>
		</g>
	</g>
	<g>
		<g id="p-1_3_">
			<path class="st1" d="M55.26,1245.97h22.67c0.35,0,0-0.35,0,0v10.19c0,0.19,0.16,0.35,0.35,0.35h21.09c0.19,0,0.35-0.16,0.35-0.35
				v-10.19c0-0.35-0.35,0,0,0h20.39c0.35,0,0-0.35,0,0v10.19c0,0.19,0.16,0.35,0.35,0.35h21.09c0.19,0,0.35-0.16,0.35-0.35v-10.19
				c0-0.35-0.35,0,0,0h20.39c0.35,0,0-0.35,0,0v10.19c0,0.19,0.16,0.35,0.35,0.35h21.09c0.19,0,0.35-0.16,0.35-0.35v-10.19
				c0-0.35-0.35,0,0,0h20.39c0.35,0,0-0.35,0,0v10.19c0,0.19,0.16,0.35,0.35,0.35h21.09c0.19,0,0.35-0.16,0.35-0.35v-10.19
				c0-0.35-0.35,0,0,0h20.39c0.35,0,0-0.35,0,0v10.19c0,0.19,0.16,0.35,0.35,0.35h21.09c0.19,0,0.35-0.16,0.35-0.35v-10.19
				c0-0.35-0.35,0,0,0h22.67h10.54c0.19,0,0.35-0.16,0.35-0.35v-24.6v-24.6c0-0.19-0.16-0.35-0.35-0.35h-10.54H55.26H44.71
				c-0.19,0-0.35,0.16-0.35,0.35v24.6v24.6c0,0.19,0.16,0.35,0.35,0.35H55.26"/>
		</g>
		<g id="p-2_3_">
			<path class="st1" d="M318.18,1245.97h38.49c0.35,0,0-0.35,0,0v10.19c0,0.19,0.16,0.35,0.35,0.35h21.09
				c0.19,0,0.35-0.16,0.35-0.35v-10.19c0-0.35-0.35,0,0,0h20.39c0.35,0,0-0.35,0,0v10.19c0,0.19,0.16,0.35,0.35,0.35h21.09
				c0.19,0,0.35-0.16,0.35-0.35v-10.19c0-0.35-0.35,0,0,0h20.39c0.35,0,0-0.35,0,0v10.19c0,0.19,0.16,0.35,0.35,0.35h21.09
				c0.19,0,0.35-0.16,0.35-0.35v-10.19c0-0.35-0.35,0,0,0h38.49c0.19,0,0.35-0.16,0.35-0.35v-24.6v-24.6c0-0.19-0.16-0.35-0.35-0.35
				H318.18c-0.19,0-0.35,0.16-0.35,0.35v24.6v24.6C317.83,1245.81,317.98,1245.97,318.18,1245.97"/>
		</g>
		<g id="p-3_3_">
			<path class="st1" d="M528.37,1245.97h22.67c0.35,0,0-0.35,0,0v10.19c0,0.19,0.16,0.35,0.35,0.35h21.09
				c0.19,0,0.35-0.16,0.35-0.35v-10.19c0-0.35-0.35,0,0,0h20.39c0.35,0,0-0.35,0,0v10.19c0,0.19,0.16,0.35,0.35,0.35h21.09
				c0.19,0,0.35-0.16,0.35-0.35v-10.19c0-0.35-0.35,0,0,0h20.39c0.35,0,0-0.35,0,0v10.19c0,0.19,0.16,0.35,0.35,0.35h21.09
				c0.19,0,0.35-0.16,0.35-0.35v-10.19c0-0.35-0.35,0,0,0h20.39c0.35,0,0-0.35,0,0v10.19c0,0.19,0.16,0.35,0.35,0.35h21.09
				c0.19,0,0.35-0.16,0.35-0.35v-10.19c0-0.35-0.35,0,0,0h20.39c0.35,0,0-0.35,0,0v10.19c0,0.19,0.16,0.35,0.35,0.35h21.09
				c0.19,0,0.35-0.16,0.35-0.35v-10.19c0-0.35-0.35,0,0,0h22.67h10.54c0.19,0,0.35-0.16,0.35-0.35v-24.6v-24.6
				c0-0.19-0.16-0.35-0.35-0.35h-10.54H528.37h-10.54c-0.19,0-0.35,0.16-0.35,0.35v24.6v24.6c0,0.19,0.16,0.35,0.35,0.35H528.37"/>
		</g>
		<g id="p-4_3_">
			<path class="st1" d="M630.93,1030.15h38.49c0.35,0,0-0.35,0,0v10.19c0,0.19,0.16,0.35,0.35,0.35h21.09
				c0.19,0,0.35-0.16,0.35-0.35v-10.19c0-0.35-0.35,0,0,0h20.39c0.35,0,0-0.35,0,0v10.19c0,0.19,0.16,0.35,0.35,0.35h21.09
				c0.19,0,0.35-0.16,0.35-0.35v-10.19c0-0.35-0.35,0,0,0h20.39c0.35,0,0-0.35,0,0v10.19c0,0.19,0.16,0.35,0.35,0.35h21.09
				c0.19,0,0.35-0.16,0.35-0.35v-10.19c0-0.35-0.35,0,0,0h38.49c0.19,0,0.35-0.16,0.35-0.35v-24.6v-24.6c0-0.19-0.16-0.35-0.35-0.35
				H630.93c-0.19,0-0.35,0.16-0.35,0.35v24.6v24.6C630.58,1029.99,630.74,1030.15,630.93,1030.15"/>
		</g>
		<g id="p-5_3_">
			<path class="st1" d="M55.26,1180.24h34.8c0.35,0,0-0.35,0,0v10.19c0,0.19,0.16,0.35,0.35,0.35h21.09c0.19,0,0.35-0.16,0.35-0.35
				v-10.19c0-0.35-0.35,0,0,0h20.39c0.35,0,0-0.35,0,0v10.19c0,0.19,0.16,0.35,0.35,0.35h21.09c0.19,0,0.35-0.16,0.35-0.35v-10.19
				c0-0.35-0.35,0,0,0h20.39c0.35,0,0-0.35,0,0v10.19c0,0.19,0.16,0.35,0.35,0.35h21.09c0.19,0,0.35-0.16,0.35-0.35v-10.19
				c0-0.35-0.35,0,0,0h20.39c0.35,0,0-0.35,0,0v10.19c0,0.19,0.16,0.35,0.35,0.35h21.09c0.19,0,0.35-0.16,0.35-0.35v-10.19
				c0-0.35-0.35,0,0,0h20.39c0.35,0,0-0.35,0,0v10.19c0,0.19,0.16,0.35,0.35,0.35h21.09c0.19,0,0.35-0.16,0.35-0.35v-10.19
				c0-0.35-0.35,0,0,0h34.8h10.54c0.19,0,0.35-0.16,0.35-0.35v-24.6v-24.6c0-0.19-0.16-0.35-0.35-0.35h-10.54H55.26H44.71
				c-0.19,0-0.35,0.16-0.35,0.35v24.6v24.6c0,0.19,0.16,0.35,0.35,0.35H55.26"/>
		</g>
		<g id="p-6_3_">
			<path class="st1" d="M342.43,1180.24h29.53c0.35,0,0-0.35,0,0v10.19c0,0.19,0.16,0.35,0.35,0.35h21.09
				c0.19,0,0.35-0.16,0.35-0.35v-10.19c0-0.35-0.35,0,0,0h20.39c0.35,0,0-0.35,0,0v10.19c0,0.19,0.16,0.35,0.35,0.35h21.09
				c0.19,0,0.35-0.16,0.35-0.35v-10.19c0-0.35-0.35,0,0,0h20.39c0.35,0,0-0.35,0,0v10.19c0,0.19,0.16,0.35,0.35,0.35h21.09
				c0.19,0,0.35-0.16,0.35-0.35v-10.19c0-0.35-0.35,0,0,0h20.39c0.35,0,0-0.35,0,0v10.19c0,0.19,0.16,0.35,0.35,0.35h21.09
				c0.19,0,0.35-0.16,0.35-0.35v-10.19c0-0.35-0.35,0,0,0h29.53c0.19,0,0.35-0.16,0.35-0.35v-24.6v-24.6c0-0.19-0.16-0.35-0.35-0.35
				H342.43c-0.19,0-0.35,0.16-0.35,0.35v24.6v24.6C342.08,1180.08,342.24,1180.24,342.43,1180.24"/>
		</g>
		<g id="p-7_3_">
			<path class="st1" d="M576.88,1180.24h34.8c0.35,0,0-0.35,0,0v10.19c0,0.19,0.16,0.35,0.35,0.35h21.09c0.19,0,0.35-0.16,0.35-0.35
				v-10.19c0-0.35-0.35,0,0,0h20.39c0.35,0,0-0.35,0,0v10.19c0,0.19,0.16,0.35,0.35,0.35h21.09c0.19,0,0.35-0.16,0.35-0.35v-10.19
				c0-0.35-0.35,0,0,0h20.39c0.35,0,0-0.35,0,0v10.19c0,0.19,0.16,0.35,0.35,0.35h21.09c0.19,0,0.35-0.16,0.35-0.35v-10.19
				c0-0.35-0.35,0,0,0h20.39c0.35,0,0-0.35,0,0v10.19c0,0.19,0.16,0.35,0.35,0.35h21.09c0.19,0,0.35-0.16,0.35-0.35v-10.19
				c0-0.35-0.35,0,0,0h20.39c0.35,0,0-0.35,0,0v10.19c0,0.19,0.16,0.35,0.35,0.35h21.09c0.19,0,0.35-0.16,0.35-0.35v-10.19
				c0-0.35-0.35,0,0,0h34.8h10.54c0.19,0,0.35-0.16,0.35-0.35v-24.6v-24.6c0-0.19-0.16-0.35-0.35-0.35h-10.54H576.88h-10.54
				c-0.19,0-0.35,0.16-0.35,0.35v24.6v24.6c0,0.19,0.16,0.35,0.35,0.35H576.88"/>
		</g>
		<g id="p-8_3_">
			<path class="st1" d="M630.93,945.79h29.53c0.35,0,0-0.35,0,0v10.19c0,0.19,0.16,0.35,0.35,0.35h21.09c0.19,0,0.35-0.16,0.35-0.35
				v-10.19c0-0.35-0.35,0,0,0h20.39c0.35,0,0-0.35,0,0v10.19c0,0.19,0.16,0.35,0.35,0.35h21.09c0.19,0,0.35-0.16,0.35-0.35v-10.19
				c0-0.35-0.35,0,0,0h20.39c0.35,0,0-0.35,0,0v10.19c0,0.19,0.16,0.35,0.35,0.35h21.09c0.19,0,0.35-0.16,0.35-0.35v-10.19
				c0-0.35-0.35,0,0,0H787c0.35,0,0-0.35,0,0v10.19c0,0.19,0.16,0.35,0.35,0.35h21.09c0.19,0,0.35-0.16,0.35-0.35v-10.19
				c0-0.35-0.35,0,0,0h29.53c0.19,0,0.35-0.16,0.35-0.35v-24.6v-24.6c0-0.19-0.16-0.35-0.35-0.35H630.93
				c-0.19,0-0.35,0.16-0.35,0.35v24.6v24.6C630.58,945.64,630.74,945.79,630.93,945.79"/>
		</g>
		<g id="p-9_3_">
			<path class="st2" d="M100.95,1112.23H90.76c-0.35,0,0,0.35,0,0v-9.84c0-0.35-0.35,0,0,0h20.39c0.35,0,0-0.35,0,0v9.84
				c0,0.35,0.35,0,0,0H100.95z"/>
			<path class="st2" d="M143.13,1112.23h-10.19c-0.35,0,0,0.35,0,0v-9.84c0-0.35-0.35,0,0,0h20.39c0.35,0,0-0.35,0,0v9.84
				c0,0.35,0.35,0,0,0H143.13z"/>
			<path class="st2" d="M185.31,1112.23h-10.19c-0.35,0,0,0.35,0,0v-9.84c0-0.35-0.35,0,0,0h20.39c0.35,0,0-0.35,0,0v9.84
				c0,0.35,0.35,0,0,0H185.31z"/>
			<path class="st2" d="M227.49,1112.23H217.3c-0.35,0,0,0.35,0,0v-9.84c0-0.35-0.35,0,0,0h20.39c0.35,0,0-0.35,0,0v9.84
				c0,0.35,0.35,0,0,0H227.49z"/>
			<path class="st2" d="M269.67,1112.23h-10.19c-0.35,0,0,0.35,0,0v-9.84c0-0.35-0.35,0,0,0h20.39c0.35,0,0-0.35,0,0v9.84
				c0,0.35,0.35,0,0,0H269.67z"/>
			<path class="st1" d="M67.39,1125.06h235.85h22.67c0.19,0,0.35-0.16,0.35-0.35v-22.67V918.9v-22.67c0-0.19-0.16-0.35-0.35-0.35
				h-22.67H67.39H44.71c-0.19,0-0.35,0.16-0.35,0.35v22.67v183.13v22.67c0,0.19,0.16,0.35,0.35,0.35H67.39"/>
			<path class="st2" d="M313.43,1052.65v10.19c0,0.35,0.35,0,0,0h-9.84c-0.35,0,0,0.35,0,0v-20.39c0-0.35-0.35,0,0,0h9.84
				c0.35,0,0-0.35,0,0V1052.65z"/>
			<path class="st2" d="M313.43,1010.47v10.19c0,0.35,0.35,0,0,0h-9.84c-0.35,0,0,0.35,0,0v-20.39c0-0.35-0.35,0,0,0h9.84
				c0.35,0,0-0.35,0,0V1010.47z"/>
			<path class="st2" d="M313.43,968.29v10.19c0,0.35,0.35,0,0,0h-9.84c-0.35,0,0,0.35,0,0V958.1c0-0.35-0.35,0,0,0h9.84
				c0.35,0,0-0.35,0,0V968.29z"/>
			<path class="st2" d="M269.67,908.71h10.19c0.35,0,0-0.35,0,0v9.84c0,0.35,0.35,0,0,0h-20.39c-0.35,0,0,0.35,0,0v-9.84
				c0-0.35-0.35,0,0,0H269.67z"/>
			<path class="st2" d="M227.49,908.71h10.19c0.35,0,0-0.35,0,0v9.84c0,0.35,0.35,0,0,0H217.3c-0.35,0,0,0.35,0,0v-9.84
				c0-0.35-0.35,0,0,0H227.49z"/>
			<path class="st2" d="M185.31,908.71h10.19c0.35,0,0-0.35,0,0v9.84c0,0.35,0.35,0,0,0h-20.39c-0.35,0,0,0.35,0,0v-9.84
				c0-0.35-0.35,0,0,0H185.31z"/>
			<path class="st2" d="M143.13,908.71h10.19c0.35,0,0-0.35,0,0v9.84c0,0.35,0.35,0,0,0h-20.39c-0.35,0,0,0.35,0,0v-9.84
				c0-0.35-0.35,0,0,0H143.13z"/>
			<path class="st2" d="M100.95,908.71h10.19c0.35,0,0-0.35,0,0v9.84c0,0.35,0.35,0,0,0H90.76c-0.35,0,0,0.35,0,0v-9.84
				c0-0.35-0.35,0,0,0H100.95z"/>
			<path class="st2" d="M57.19,968.29V958.1c0-0.35-0.35,0,0,0h9.84c0.35,0,0-0.35,0,0v20.39c0,0.35,0.35,0,0,0h-9.84
				c-0.35,0,0,0.35,0,0V968.29z"/>
			<path class="st2" d="M57.19,1010.47v-10.19c0-0.35-0.35,0,0,0h9.84c0.35,0,0-0.35,0,0v20.39c0,0.35,0.35,0,0,0h-9.84
				c-0.35,0,0,0.35,0,0V1010.47z"/>
			<path class="st2" d="M57.19,1052.65v-10.19c0-0.35-0.35,0,0,0h9.84c0.35,0,0-0.35,0,0v20.39c0,0.35,0.35,0,0,0h-9.84
				c-0.35,0,0,0.35,0,0V1052.65z"/>
		</g>
		<g id="p-10_3_">
			<path class="st1" d="M342.43,1125.06h35.15c0.19,0,0.35-0.16,0.35-0.35v-10.19c0-0.35-0.35,0,0,0h20.39c0.35,0,0-0.35,0,0v10.19
				c0,0.19,0.16,0.35,0.35,0.35h21.09c0.19,0,0.35-0.16,0.35-0.35v-10.19c0-0.35-0.35,0,0,0h20.39c0.35,0,0-0.35,0,0v10.19
				c0,0.19,0.16,0.35,0.35,0.35h21.09c0.19,0,0.35-0.16,0.35-0.35v-10.19c0-0.35-0.35,0,0,0h20.39c0.35,0,0-0.35,0,0v10.19
				c0,0.19,0.16,0.35,0.35,0.35h21.09c0.19,0,0.35-0.16,0.35-0.35v-10.19c0-0.35-0.35,0,0,0h20.39c0.35,0,0-0.35,0,0v10.19
				c0,0.19,0.16,0.35,0.35,0.35h21.09c0.19,0,0.35-0.16,0.35-0.35v-10.19c0-0.35-0.35,0,0,0h20.39c0.35,0,0-0.35,0,0v10.19
				c0,0.19,0.16,0.35,0.35,0.35h35.15h10.54c0.19,0,0.35-0.16,0.35-0.35v-10.54v-29.88c0-0.19-0.16-0.35-0.35-0.35h-10.19
				c-0.35,0,0,0.35,0,0v-20.39c0-0.35-0.35,0,0,0h10.19c0.19,0,0.35-0.16,0.35-0.35v-21.09c0-0.19-0.16-0.35-0.35-0.35h-10.19
				c-0.35,0,0,0.35,0,0v-20.39c0-0.35-0.35,0,0,0h10.19c0.19,0,0.35-0.16,0.35-0.35v-21.09c0-0.19-0.16-0.35-0.35-0.35h-10.19
				c-0.35,0,0,0.35,0,0v-20.39c0-0.35-0.35,0,0,0h10.19c0.19,0,0.35-0.16,0.35-0.35v-21.09c0-0.19-0.16-0.35-0.35-0.35h-10.19
				c-0.35,0,0,0.35,0,0v-20.39c0-0.35-0.35,0,0,0h10.19c0.19,0,0.35-0.16,0.35-0.35v-29.88v-10.54c0-0.19-0.16-0.35-0.35-0.35
				h-10.54h-35.15c-0.19,0-0.35,0.16-0.35,0.35v10.19c0,0.35,0.35,0,0,0h-20.39c-0.35,0,0,0.35,0,0v-10.19
				c0-0.19-0.16-0.35-0.35-0.35h-21.09c-0.19,0-0.35,0.16-0.35,0.35v10.19c0,0.35,0.35,0,0,0h-20.39c-0.35,0,0,0.35,0,0v-10.19
				c0-0.19-0.16-0.35-0.35-0.35h-21.09c-0.19,0-0.35,0.16-0.35,0.35v10.19c0,0.35,0.35,0,0,0h-20.39c-0.35,0,0,0.35,0,0v-10.19
				c0-0.19-0.16-0.35-0.35-0.35h-21.09c-0.19,0-0.35,0.16-0.35,0.35v10.19c0,0.35,0.35,0,0,0h-20.39c-0.35,0,0,0.35,0,0v-10.19
				c0-0.19-0.16-0.35-0.35-0.35h-21.09c-0.19,0-0.35,0.16-0.35,0.35v10.19c0,0.35,0.35,0,0,0h-20.39c-0.35,0,0,0.35,0,0v-10.19
				c0-0.19-0.16-0.35-0.35-0.35h-35.15h-10.54c-0.19,0-0.35,0.16-0.35,0.35v10.54v29.88c0,0.19,0.16,0.35,0.35,0.35h10.19
				c0.35,0,0-0.35,0,0v20.39c0,0.35,0.35,0,0,0h-10.19c-0.19,0-0.35,0.16-0.35,0.35v21.09c0,0.19,0.16,0.35,0.35,0.35h10.19
				c0.35,0,0-0.35,0,0v20.39c0,0.35,0.35,0,0,0h-10.19c-0.19,0-0.35,0.16-0.35,0.35v21.09c0,0.19,0.16,0.35,0.35,0.35h10.19
				c0.35,0,0-0.35,0,0v20.39c0,0.35,0.35,0,0,0h-10.19c-0.19,0-0.35,0.16-0.35,0.35v21.09c0,0.19,0.16,0.35,0.35,0.35h10.19
				c0.35,0,0-0.35,0,0v20.39c0,0.35,0.35,0,0,0h-10.19c-0.19,0-0.35,0.16-0.35,0.35v29.88v10.54c0,0.19,0.16,0.35,0.35,0.35H342.43"
				/>
		</g>
	</g>
</g>
<g id="Layer_2">
	<text transform="matrix(1 0 0 1 476.2546 351.8674)" class="st3 st4 st5">Bottom</text>
	<text transform="matrix(1 0 0 1 119.5334 585.7868)" class="st3 st4 st5">Brace</text>
</g>
</svg>
