<?xml version='1.0' encoding='us-ascii'?>
<svg height="899.52mm" viewBox="0.0 0.0 191.58 899.52" width="191.58mm" xmlns="http://www.w3.org/2000/svg" xmlns:cc="http://creativecommons.org/ns#" xmlns:dc="http://purl.org/dc/elements/1.1/" xmlns:inkscape="http://www.inkscape.org/namespaces/inkscape" xmlns:rdf="http://www.w3.org/1999/02/22-rdf-syntax-ns#" xmlns:svg="http://www.w3.org/2000/svg" xmlns:xlink="http://www.w3.org/1999/xlink">
<!--
IntegratedHingeBox - Box with lid and integraded hinge

Created with Boxes.py (https://festi.info/boxes.py)
Creation date: 2021-08-17 21:02:13
Command line (remove spaces between dashes): boxes IntegratedHingeBox - -FingerJoint_angle=90.0 - -FingerJoint_style=rectangular - -FingerJoint_surroundingspaces=2.0 - -FingerJoint_edge_width=1.0 - -FingerJoint_finger=2.0 - -FingerJoint_play=0.0 - -FingerJoint_space=2.0 - -FingerJoint_width=1.0 - -ChestHinge_hinge_strength=1.0 - -ChestHinge_pin_height=2.0 - -ChestHinge_play=0.1 - -x=140 - -y=100.0 - -h=90 - -outside=0 - -lidheight=30 - -thickness=6.35 - -format=svg - -tabs=0.0 - -debug=0 - -labels=0 - -labels=1 - -reference=100 - -burn=0.1
Url: http://www.festi.info/IntegratedHingeBox?FingerJoint_angle=90.0&FingerJoint_style=rectangular&FingerJoint_surroundingspaces=2.0&FingerJoint_edge_width=1.0&FingerJoint_finger=2.0&FingerJoint_play=0.0&FingerJoint_space=2.0&FingerJoint_width=1.0&ChestHinge_hinge_strength=1.0&ChestHinge_pin_height=2.0&ChestHinge_play=0.1&x=140&y=100.0&h=90&outside=0&lidheight=30&thickness=6.35&format=svg&tabs=0.0&debug=0&labels=0&labels=1&reference=100&burn=0.1&render=1
SettingsUrl: http://www.festi.info/IntegratedHingeBox?FingerJoint_angle=90.0&FingerJoint_style=rectangular&FingerJoint_surroundingspaces=2.0&FingerJoint_edge_width=1.0&FingerJoint_finger=2.0&FingerJoint_play=0.0&FingerJoint_space=2.0&FingerJoint_width=1.0&ChestHinge_hinge_strength=1.0&ChestHinge_pin_height=2.0&ChestHinge_play=0.1&x=140&y=100.0&h=90&outside=0&lidheight=30&thickness=6.35&format=svg&tabs=0.0&debug=0&labels=0&labels=1&reference=100&burn=0.1
-->
<title>IntegratedHingeBox</title>
<metadata>
<rdf:RDF><cc:Work>
<dc:title>Box - IntegratedHingeBox</dc:title>
<dc:date>2021-08-17 21:02:13</dc:date>
<dc:source>http://www.festi.info/IntegratedHingeBox?FingerJoint_angle=90.0&amp;FingerJoint_style=rectangular&amp;FingerJoint_surroundingspaces=2.0&amp;FingerJoint_edge_width=1.0&amp;FingerJoint_finger=2.0&amp;FingerJoint_play=0.0&amp;FingerJoint_space=2.0&amp;FingerJoint_width=1.0&amp;ChestHinge_hinge_strength=1.0&amp;ChestHinge_pin_height=2.0&amp;ChestHinge_play=0.1&amp;x=140&amp;y=100.0&amp;h=90&amp;outside=0&amp;lidheight=30&amp;thickness=6.35&amp;format=svg&amp;tabs=0.0&amp;debug=0&amp;labels=0&amp;labels=1&amp;reference=100&amp;burn=0.1&amp;render=1</dc:source>
<dc:description>Box with lid and integraded hinge

Created with Boxes.py (https://festi.info/boxes.py)
Command line: boxes IntegratedHingeBox --FingerJoint_angle=90.0 --FingerJoint_style=rectangular --FingerJoint_surroundingspaces=2.0 --FingerJoint_edge_width=1.0 --FingerJoint_finger=2.0 --FingerJoint_play=0.0 --FingerJoint_space=2.0 --FingerJoint_width=1.0 --ChestHinge_hinge_strength=1.0 --ChestHinge_pin_height=2.0 --ChestHinge_play=0.1 --x=140 --y=100.0 --h=90 --outside=0 --lidheight=30 --thickness=6.35 --format=svg --tabs=0.0 --debug=0 --labels=0 --labels=1 --reference=100 --burn=0.1
Url: http://www.festi.info/IntegratedHingeBox?FingerJoint_angle=90.0&amp;FingerJoint_style=rectangular&amp;FingerJoint_surroundingspaces=2.0&amp;FingerJoint_edge_width=1.0&amp;FingerJoint_finger=2.0&amp;FingerJoint_play=0.0&amp;FingerJoint_space=2.0&amp;FingerJoint_width=1.0&amp;ChestHinge_hinge_strength=1.0&amp;ChestHinge_pin_height=2.0&amp;ChestHinge_play=0.1&amp;x=140&amp;y=100.0&amp;h=90&amp;outside=0&amp;lidheight=30&amp;thickness=6.35&amp;format=svg&amp;tabs=0.0&amp;debug=0&amp;labels=0&amp;labels=1&amp;reference=100&amp;burn=0.1&amp;render=1
SettingsUrl: http://www.festi.info/IntegratedHingeBox?FingerJoint_angle=90.0&amp;FingerJoint_style=rectangular&amp;FingerJoint_surroundingspaces=2.0&amp;FingerJoint_edge_width=1.0&amp;FingerJoint_finger=2.0&amp;FingerJoint_play=0.0&amp;FingerJoint_space=2.0&amp;FingerJoint_width=1.0&amp;ChestHinge_hinge_strength=1.0&amp;ChestHinge_pin_height=2.0&amp;ChestHinge_play=0.1&amp;x=140&amp;y=100.0&amp;h=90&amp;outside=0&amp;lidheight=30&amp;thickness=6.35&amp;format=svg&amp;tabs=0.0&amp;debug=0&amp;labels=0&amp;labels=1&amp;reference=100&amp;burn=0.1
</dc:description>
</cc:Work></rdf:RDF></metadata>
<g id="p-0" style="fill:none;stroke-linecap:round;stroke-linejoin:round;">
  <path d="M 28.782 889.515 H 128.782 V 879.515 H 28.782 V 889.515 Z" stroke="rgb(0,0,0)" stroke-width="0.20" />
  <text alignment-baseline="hanging" font-size="10px" style="font-family: sans-serif ; font-weight: normal; font-style: normal; fill: rgb(0,0,0)" text-anchor="middle" transform="matrix( 1.000 0.000 0.000 1.000 78.782 879.515 )">100mm</text><text alignment-baseline="hanging" font-size="4px" style="font-family: sans-serif ; font-weight: normal; font-style: normal; fill: rgb(255,0,0)" text-anchor="middle" transform="matrix( 1.000 0.000 0.000 1.000 33.782 882.515 )" />
</g>
<g id="p-1" style="fill:none;stroke-linecap:round;stroke-linejoin:round;">
  <text alignment-baseline="hanging" font-size="4px" style="font-family: sans-serif ; font-weight: normal; font-style: normal; fill: rgb(255,0,0)" text-anchor="middle" transform="matrix( 1.000 0.000 0.000 1.000 85.132 825.965 )" /><path d="M 35.132 876.140 H 53.382 C 53.437 876.140 53.482 876.095 53.482 876.040 V 869.790 C 53.482 869.690 53.382 869.790 53.482 869.790 H 65.982 C 66.082 869.790 65.982 869.690 65.982 869.790 V 876.040 C 65.982 876.095 66.027 876.140 66.082 876.140 H 78.782 C 78.837 876.140 78.882 876.095 78.882 876.040 V 869.790 C 78.882 869.690 78.782 869.790 78.882 869.790 H 91.382 C 91.482 869.790 91.382 869.690 91.382 869.790 V 876.040 C 91.382 876.095 91.427 876.140 91.482 876.140 H 104.182 C 104.237 876.140 104.282 876.095 104.282 876.040 V 869.790 C 104.282 869.690 104.182 869.790 104.282 869.790 H 116.782 C 116.882 869.790 116.782 869.690 116.782 869.790 V 876.040 C 116.782 876.095 116.827 876.140 116.882 876.140 H 135.132 C 135.187 876.140 135.232 876.095 135.232 876.040 V 869.690 V 856.540 C 135.232 856.440 135.132 856.540 135.232 856.540 H 141.482 C 141.537 856.540 141.582 856.495 141.582 856.440 V 843.740 C 141.582 843.685 141.537 843.640 141.482 843.640 H 135.232 C 135.132 843.640 135.232 843.740 135.232 843.640 V 831.140 C 135.232 831.040 135.132 831.140 135.232 831.140 H 141.482 C 141.537 831.140 141.582 831.095 141.582 831.040 V 818.340 C 141.582 818.285 141.537 818.240 141.482 818.240 H 135.232 C 135.132 818.240 135.232 818.340 135.232 818.240 V 805.740 C 135.232 805.640 135.132 805.740 135.232 805.740 H 141.482 C 141.537 805.740 141.582 805.695 141.582 805.640 V 792.940 C 141.582 792.885 141.537 792.840 141.482 792.840 H 135.232 C 135.132 792.840 135.232 792.940 135.232 792.840 V 779.690 C 135.232 779.635 135.187 779.590 135.132 779.590 H 47.832 C 47.887 779.590 47.932 779.635 47.932 779.690 C 47.932 775.902 46.809 772.200 44.705 769.051 C 42.600 765.902 39.610 763.447 36.110 761.998 C 32.611 760.548 28.761 760.169 25.046 760.908 C 21.331 761.647 17.919 763.471 15.241 766.149 C 12.563 768.827 10.739 772.239 10.000 775.954 C 9.261 779.669 9.640 783.519 11.090 787.018 C 12.539 790.518 14.994 793.508 18.143 795.613 C 21.292 797.717 24.995 798.840 28.782 798.840 H 35.132 C 35.114 798.840 35.097 798.835 35.082 798.827 C 35.067 798.818 35.054 798.805 35.045 798.790 C 35.037 798.775 35.032 798.758 35.032 798.740 C 35.032 798.722 35.037 798.705 35.045 798.690 C 35.054 798.675 35.067 798.662 35.082 798.653 C 35.097 798.645 35.114 798.640 35.132 798.640 C 35.077 798.640 35.032 798.685 35.032 798.740 V 815.065 C 35.032 815.165 35.132 815.065 35.032 815.065 H 28.782 C 28.727 815.065 28.682 815.110 28.682 815.165 V 827.865 C 28.682 827.920 28.727 827.965 28.782 827.965 H 35.032 C 35.132 827.965 35.032 827.865 35.032 827.965 V 840.465 C 35.032 840.565 35.132 840.465 35.032 840.465 H 28.782 C 28.727 840.465 28.682 840.510 28.682 840.565 V 853.265 C 28.682 853.320 28.727 853.365 28.782 853.365 H 35.032 C 35.132 853.365 35.032 853.265 35.032 853.365 V 869.690 V 876.040 C 35.032 876.095 35.077 876.140 35.132 876.140" stroke="rgb(0,0,0)" stroke-width="0.20" />
  <path d="M 16.182 779.590 C 16.182 777.175 16.876 774.810 18.182 772.778 C 19.488 770.746 21.351 769.132 23.548 768.129 C 25.745 767.125 28.184 766.774 30.575 767.118 C 32.966 767.462 35.208 768.486 37.033 770.068 C 38.859 771.649 40.191 773.723 40.872 776.040 C 41.552 778.358 41.552 780.822 40.872 783.140 C 40.191 785.457 38.859 787.531 37.033 789.112 C 35.208 790.694 32.966 791.718 30.575 792.062 C 28.184 792.406 25.745 792.055 23.548 791.051 C 21.351 790.048 19.488 788.434 18.182 786.402 C 16.876 784.370 16.182 782.005 16.182 779.590 Z" stroke="rgb(0,0,255)" stroke-width="0.20" />
  <path d="M 31.957 770.186 H 35.032 C 35.132 770.186 35.032 770.086 35.032 770.186 V 779.490 C 35.032 779.590 35.132 779.490 35.032 779.490 H 28.882 C 28.782 779.490 28.882 779.590 28.882 779.490 V 770.186 C 28.882 770.086 28.782 770.186 28.882 770.186 H 31.957 Z" stroke="rgb(0,0,255)" stroke-width="0.20" />
</g>
<g id="p-2" style="fill:none;stroke-linecap:round;stroke-linejoin:round;">
  <text alignment-baseline="hanging" font-size="4px" style="font-family: sans-serif ; font-weight: normal; font-style: normal; fill: rgb(255,0,0)" text-anchor="middle" transform="matrix( 1.000 0.000 0.000 1.000 85.132 756.240 )" /><path d="M 35.132 756.730 C 35.114 756.730 35.097 756.725 35.082 756.717 C 35.067 756.708 35.054 756.695 35.045 756.680 C 35.037 756.665 35.032 756.648 35.032 756.630 C 35.032 756.612 35.037 756.595 35.045 756.580 C 35.054 756.565 35.067 756.552 35.082 756.543 C 35.097 756.535 35.114 756.530 35.132 756.530 H 28.782 C 28.800 756.530 28.817 756.535 28.832 756.543 C 28.847 756.552 28.860 756.565 28.869 756.580 C 28.877 756.595 28.882 756.612 28.882 756.630 C 28.882 756.648 28.877 756.665 28.869 756.680 C 28.860 756.695 28.847 756.708 28.832 756.717 C 28.817 756.725 28.800 756.730 28.782 756.730 C 32.220 756.730 35.597 757.635 38.575 759.354 C 41.552 761.073 44.024 763.545 45.743 766.523 C 47.462 769.500 48.367 772.877 48.367 776.315 C 48.367 776.370 48.412 776.415 48.467 776.415 H 135.132 C 135.187 776.415 135.232 776.370 135.232 776.315 V 761.315 V 746.315 V 739.965 C 135.232 739.910 135.187 739.865 135.132 739.865 H 116.882 C 116.827 739.865 116.782 739.910 116.782 739.965 V 746.215 C 116.782 746.315 116.882 746.215 116.782 746.215 H 104.282 C 104.182 746.215 104.282 746.315 104.282 746.215 V 739.965 C 104.282 739.910 104.237 739.865 104.182 739.865 H 91.482 C 91.427 739.865 91.382 739.910 91.382 739.965 V 746.215 C 91.382 746.315 91.482 746.215 91.382 746.215 H 78.882 C 78.782 746.215 78.882 746.315 78.882 746.215 V 739.965 C 78.882 739.910 78.837 739.865 78.782 739.865 H 66.082 C 66.027 739.865 65.982 739.910 65.982 739.965 V 746.215 C 65.982 746.315 66.082 746.215 65.982 746.215 H 53.482 C 53.382 746.215 53.482 746.315 53.482 746.215 V 739.965 C 53.482 739.910 53.437 739.865 53.382 739.865 H 35.132 C 35.077 739.865 35.032 739.910 35.032 739.965 V 746.315 V 751.473 V 756.630 C 35.032 756.685 35.077 756.730 35.132 756.730" stroke="rgb(0,0,0)" stroke-width="0.20" />
</g>
<g id="p-3" style="fill:none;stroke-linecap:round;stroke-linejoin:round;">
  <text alignment-baseline="hanging" font-size="4px" style="font-family: sans-serif ; font-weight: normal; font-style: normal; fill: rgb(255,0,0)" text-anchor="middle" transform="matrix( 1.000 0.000 0.000 1.000 85.132 686.515 )" /><path d="M 35.132 736.690 H 53.382 C 53.437 736.690 53.482 736.645 53.482 736.590 V 730.340 C 53.482 730.240 53.382 730.340 53.482 730.340 H 65.982 C 66.082 730.340 65.982 730.240 65.982 730.340 V 736.590 C 65.982 736.645 66.027 736.690 66.082 736.690 H 78.782 C 78.837 736.690 78.882 736.645 78.882 736.590 V 730.340 C 78.882 730.240 78.782 730.340 78.882 730.340 H 91.382 C 91.482 730.340 91.382 730.240 91.382 730.340 V 736.590 C 91.382 736.645 91.427 736.690 91.482 736.690 H 104.182 C 104.237 736.690 104.282 736.645 104.282 736.590 V 730.340 C 104.282 730.240 104.182 730.340 104.282 730.340 H 116.782 C 116.882 730.340 116.782 730.240 116.782 730.340 V 736.590 C 116.782 736.645 116.827 736.690 116.882 736.690 H 135.132 C 135.187 736.690 135.232 736.645 135.232 736.590 V 730.240 V 713.915 C 135.232 713.815 135.132 713.915 135.232 713.915 H 141.482 C 141.537 713.915 141.582 713.870 141.582 713.815 V 701.115 C 141.582 701.060 141.537 701.015 141.482 701.015 H 135.232 C 135.132 701.015 135.232 701.115 135.232 701.015 V 688.515 C 135.232 688.415 135.132 688.515 135.232 688.515 H 141.482 C 141.537 688.515 141.582 688.470 141.582 688.415 V 675.715 C 141.582 675.660 141.537 675.615 141.482 675.615 H 135.232 C 135.132 675.615 135.232 675.715 135.232 675.615 V 659.290 C 135.232 659.235 135.187 659.190 135.132 659.190 C 135.150 659.190 135.167 659.195 135.182 659.203 C 135.197 659.212 135.210 659.225 135.219 659.240 C 135.227 659.255 135.232 659.272 135.232 659.290 C 135.232 659.308 135.227 659.325 135.219 659.340 C 135.210 659.355 135.197 659.368 135.182 659.377 C 135.167 659.385 135.150 659.390 135.132 659.390 H 141.482 C 145.270 659.390 148.972 658.267 152.121 656.163 C 155.270 654.058 157.725 651.068 159.174 647.568 C 160.624 644.069 161.003 640.219 160.264 636.504 C 159.525 632.789 157.701 629.377 155.023 626.699 C 152.345 624.021 148.933 622.197 145.218 621.458 C 141.503 620.719 137.653 621.098 134.154 622.548 C 130.654 623.997 127.664 626.452 125.559 629.601 C 123.455 632.750 122.332 636.452 122.332 640.240 C 122.332 640.185 122.377 640.140 122.432 640.140 H 35.132 C 35.077 640.140 35.032 640.185 35.032 640.240 V 653.390 C 35.032 653.490 35.132 653.390 35.032 653.390 H 28.782 C 28.727 653.390 28.682 653.435 28.682 653.490 V 666.190 C 28.682 666.245 28.727 666.290 28.782 666.290 H 35.032 C 35.132 666.290 35.032 666.190 35.032 666.290 V 678.790 C 35.032 678.890 35.132 678.790 35.032 678.790 H 28.782 C 28.727 678.790 28.682 678.835 28.682 678.890 V 691.590 C 28.682 691.645 28.727 691.690 28.782 691.690 H 35.032 C 35.132 691.690 35.032 691.590 35.032 691.690 V 704.190 C 35.032 704.290 35.132 704.190 35.032 704.190 H 28.782 C 28.727 704.190 28.682 704.235 28.682 704.290 V 716.990 C 28.682 717.045 28.727 717.090 28.782 717.090 H 35.032 C 35.132 717.090 35.032 716.990 35.032 717.090 V 730.240 V 736.590 C 35.032 736.645 35.077 736.690 35.132 736.690" stroke="rgb(0,0,0)" stroke-width="0.20" />
  <path d="M 128.882 640.140 C 128.882 637.725 129.576 635.360 130.882 633.328 C 132.188 631.296 134.051 629.682 136.248 628.679 C 138.445 627.675 140.884 627.324 143.275 627.668 C 145.666 628.012 147.908 629.036 149.733 630.618 C 151.559 632.199 152.891 634.273 153.572 636.590 C 154.252 638.908 154.252 641.372 153.572 643.690 C 152.891 646.007 151.559 648.081 149.733 649.662 C 147.908 651.244 145.666 652.268 143.275 652.612 C 140.884 652.956 138.445 652.605 136.248 651.601 C 134.051 650.598 132.188 648.984 130.882 646.952 C 129.576 644.920 128.882 642.555 128.882 640.140 Z" stroke="rgb(0,0,255)" stroke-width="0.20" />
  <path d="M 138.307 630.736 H 141.382 C 141.482 630.736 141.382 630.636 141.382 630.736 V 640.040 C 141.382 640.140 141.482 640.040 141.382 640.040 H 135.232 C 135.132 640.040 135.232 640.140 135.232 640.040 V 630.736 C 135.232 630.636 135.132 630.736 135.232 630.736 H 138.307 Z" stroke="rgb(0,0,255)" stroke-width="0.20" />
</g>
<g id="p-4" style="fill:none;stroke-linecap:round;stroke-linejoin:round;">
  <text alignment-baseline="hanging" font-size="4px" style="font-family: sans-serif ; font-weight: normal; font-style: normal; fill: rgb(255,0,0)" text-anchor="middle" transform="matrix( 1.000 0.000 0.000 1.000 85.132 616.790 )" /><path d="M 35.132 636.965 H 121.797 C 121.852 636.965 121.897 636.920 121.897 636.865 C 121.897 633.427 122.802 630.050 124.521 627.073 C 126.240 624.095 128.712 621.623 131.690 619.904 C 134.667 618.185 138.044 617.280 141.482 617.280 C 141.464 617.280 141.447 617.275 141.432 617.267 C 141.417 617.258 141.404 617.245 141.395 617.230 C 141.387 617.215 141.382 617.198 141.382 617.180 C 141.382 617.162 141.387 617.145 141.395 617.130 C 141.404 617.115 141.417 617.102 141.432 617.093 C 141.447 617.085 141.464 617.080 141.482 617.080 H 135.132 C 135.150 617.080 135.167 617.085 135.182 617.093 C 135.197 617.102 135.210 617.115 135.219 617.130 C 135.227 617.145 135.232 617.162 135.232 617.180 C 135.232 617.198 135.227 617.215 135.219 617.230 C 135.210 617.245 135.197 617.258 135.182 617.267 C 135.167 617.275 135.150 617.280 135.132 617.280 C 135.187 617.280 135.232 617.235 135.232 617.180 V 612.023 V 606.865 V 600.515 C 135.232 600.460 135.187 600.415 135.132 600.415 H 116.882 C 116.827 600.415 116.782 600.460 116.782 600.515 V 606.765 C 116.782 606.865 116.882 606.765 116.782 606.765 H 104.282 C 104.182 606.765 104.282 606.865 104.282 606.765 V 600.515 C 104.282 600.460 104.237 600.415 104.182 600.415 H 91.482 C 91.427 600.415 91.382 600.460 91.382 600.515 V 606.765 C 91.382 606.865 91.482 606.765 91.382 606.765 H 78.882 C 78.782 606.765 78.882 606.865 78.882 606.765 V 600.515 C 78.882 600.460 78.837 600.415 78.782 600.415 H 66.082 C 66.027 600.415 65.982 600.460 65.982 600.515 V 606.765 C 65.982 606.865 66.082 606.765 65.982 606.765 H 53.482 C 53.382 606.765 53.482 606.865 53.482 606.765 V 600.515 C 53.482 600.460 53.437 600.415 53.382 600.415 H 35.132 C 35.077 600.415 35.032 600.460 35.032 600.515 V 606.865 V 621.865 V 636.865 C 35.032 636.920 35.077 636.965 35.132 636.965" stroke="rgb(0,0,0)" stroke-width="0.20" />
</g>
<g id="p-5" style="fill:none;stroke-linecap:round;stroke-linejoin:round;">
  <text alignment-baseline="hanging" font-size="4px" style="font-family: sans-serif ; font-weight: normal; font-style: normal; fill: rgb(255,0,0)" text-anchor="middle" transform="matrix( 1.000 0.000 0.000 1.000 105.132 547.065 )" /><path d="M 35.132 597.240 H 47.982 C 48.037 597.240 48.082 597.195 48.082 597.140 V 590.890 C 48.082 590.790 47.982 590.890 48.082 590.890 H 60.582 C 60.682 590.890 60.582 590.790 60.582 590.890 V 597.140 C 60.582 597.195 60.627 597.240 60.682 597.240 H 73.382 C 73.437 597.240 73.482 597.195 73.482 597.140 V 590.890 C 73.482 590.790 73.382 590.890 73.482 590.890 H 85.982 C 86.082 590.890 85.982 590.790 85.982 590.890 V 597.140 C 85.982 597.195 86.027 597.240 86.082 597.240 H 98.782 C 98.837 597.240 98.882 597.195 98.882 597.140 V 590.890 C 98.882 590.790 98.782 590.890 98.882 590.890 H 111.382 C 111.482 590.890 111.382 590.790 111.382 590.890 V 597.140 C 111.382 597.195 111.427 597.240 111.482 597.240 H 124.182 C 124.237 597.240 124.282 597.195 124.282 597.140 V 590.890 C 124.282 590.790 124.182 590.890 124.282 590.890 H 136.782 C 136.882 590.890 136.782 590.790 136.782 590.890 V 597.140 C 136.782 597.195 136.827 597.240 136.882 597.240 H 149.582 C 149.637 597.240 149.682 597.195 149.682 597.140 V 590.890 C 149.682 590.790 149.582 590.890 149.682 590.890 H 162.182 C 162.282 590.890 162.182 590.790 162.182 590.890 V 597.140 C 162.182 597.195 162.227 597.240 162.282 597.240 H 175.132 H 181.482 C 181.537 597.240 181.582 597.195 181.582 597.140 V 590.790 V 577.540 C 181.582 577.485 181.537 577.440 181.482 577.440 H 175.232 C 175.132 577.440 175.232 577.540 175.232 577.440 V 564.940 C 175.232 564.840 175.132 564.940 175.232 564.940 H 181.482 C 181.537 564.940 181.582 564.895 181.582 564.840 V 552.140 C 181.582 552.085 181.537 552.040 181.482 552.040 H 175.232 C 175.132 552.040 175.232 552.140 175.232 552.040 V 539.540 C 175.232 539.440 175.132 539.540 175.232 539.540 H 181.482 C 181.537 539.540 181.582 539.495 181.582 539.440 V 526.740 C 181.582 526.685 181.537 526.640 181.482 526.640 H 175.232 C 175.132 526.640 175.232 526.740 175.232 526.640 V 514.140 C 175.232 514.040 175.132 514.140 175.232 514.140 H 181.482 C 181.537 514.140 181.582 514.095 181.582 514.040 V 500.790 C 181.582 500.735 181.537 500.690 181.482 500.690 H 175.132 H 35.132 H 28.782 C 28.727 500.690 28.682 500.735 28.682 500.790 V 514.040 C 28.682 514.095 28.727 514.140 28.782 514.140 H 35.032 C 35.132 514.140 35.032 514.040 35.032 514.140 V 526.640 C 35.032 526.740 35.132 526.640 35.032 526.640 H 28.782 C 28.727 526.640 28.682 526.685 28.682 526.740 V 539.440 C 28.682 539.495 28.727 539.540 28.782 539.540 H 35.032 C 35.132 539.540 35.032 539.440 35.032 539.540 V 552.040 C 35.032 552.140 35.132 552.040 35.032 552.040 H 28.782 C 28.727 552.040 28.682 552.085 28.682 552.140 V 564.840 C 28.682 564.895 28.727 564.940 28.782 564.940 H 35.032 C 35.132 564.940 35.032 564.840 35.032 564.940 V 577.440 C 35.032 577.540 35.132 577.440 35.032 577.440 H 28.782 C 28.727 577.440 28.682 577.485 28.682 577.540 V 590.790 V 597.140 C 28.682 597.195 28.727 597.240 28.782 597.240 H 35.132" stroke="rgb(0,0,0)" stroke-width="0.20" />
</g>
<g id="p-6" style="fill:none;stroke-linecap:round;stroke-linejoin:round;">
  <text alignment-baseline="hanging" font-size="4px" style="font-family: sans-serif ; font-weight: normal; font-style: normal; fill: rgb(255,0,0)" text-anchor="middle" transform="matrix( 1.000 0.000 0.000 1.000 105.132 447.340 )" /><path d="M 35.132 497.515 H 47.982 C 48.037 497.515 48.082 497.470 48.082 497.415 V 491.165 C 48.082 491.065 47.982 491.165 48.082 491.165 H 60.582 C 60.682 491.165 60.582 491.065 60.582 491.165 V 497.415 C 60.582 497.470 60.627 497.515 60.682 497.515 H 73.382 C 73.437 497.515 73.482 497.470 73.482 497.415 V 491.165 C 73.482 491.065 73.382 491.165 73.482 491.165 H 85.982 C 86.082 491.165 85.982 491.065 85.982 491.165 V 497.415 C 85.982 497.470 86.027 497.515 86.082 497.515 H 98.782 C 98.837 497.515 98.882 497.470 98.882 497.415 V 491.165 C 98.882 491.065 98.782 491.165 98.882 491.165 H 111.382 C 111.482 491.165 111.382 491.065 111.382 491.165 V 497.415 C 111.382 497.470 111.427 497.515 111.482 497.515 H 124.182 C 124.237 497.515 124.282 497.470 124.282 497.415 V 491.165 C 124.282 491.065 124.182 491.165 124.282 491.165 H 136.782 C 136.882 491.165 136.782 491.065 136.782 491.165 V 497.415 C 136.782 497.470 136.827 497.515 136.882 497.515 H 149.582 C 149.637 497.515 149.682 497.470 149.682 497.415 V 491.165 C 149.682 491.065 149.582 491.165 149.682 491.165 H 162.182 C 162.282 491.165 162.182 491.065 162.182 491.165 V 497.415 C 162.182 497.470 162.227 497.515 162.282 497.515 H 175.132 H 181.482 C 181.537 497.515 181.582 497.470 181.582 497.415 V 491.065 V 474.640 C 181.582 474.585 181.537 474.540 181.482 474.540 H 175.232 C 175.132 474.540 175.232 474.640 175.232 474.540 V 462.040 C 175.232 461.940 175.132 462.040 175.232 462.040 H 181.482 C 181.537 462.040 181.582 461.995 181.582 461.940 V 449.240 C 181.582 449.185 181.537 449.140 181.482 449.140 H 175.232 C 175.132 449.140 175.232 449.240 175.232 449.140 V 436.640 C 175.232 436.540 175.132 436.640 175.232 436.640 H 181.482 C 181.537 436.640 181.582 436.595 181.582 436.540 V 420.115 C 181.582 420.060 181.537 420.015 181.482 420.015 H 175.232 C 175.132 420.015 175.232 420.115 175.232 420.015 V 401.065 C 175.232 401.010 175.187 400.965 175.132 400.965 H 35.132 C 35.077 400.965 35.032 401.010 35.032 401.065 V 420.015 C 35.032 420.115 35.132 420.015 35.032 420.015 H 28.782 C 28.727 420.015 28.682 420.060 28.682 420.115 V 436.540 C 28.682 436.595 28.727 436.640 28.782 436.640 H 35.032 C 35.132 436.640 35.032 436.540 35.032 436.640 V 449.140 C 35.032 449.240 35.132 449.140 35.032 449.140 H 28.782 C 28.727 449.140 28.682 449.185 28.682 449.240 V 461.940 C 28.682 461.995 28.727 462.040 28.782 462.040 H 35.032 C 35.132 462.040 35.032 461.940 35.032 462.040 V 474.540 C 35.032 474.640 35.132 474.540 35.032 474.540 H 28.782 C 28.727 474.540 28.682 474.585 28.682 474.640 V 491.065 V 497.415 C 28.682 497.470 28.727 497.515 28.782 497.515 H 35.132" stroke="rgb(0,0,0)" stroke-width="0.20" />
</g>
<g id="p-7" style="fill:none;stroke-linecap:round;stroke-linejoin:round;">
  <text alignment-baseline="hanging" font-size="4px" style="font-family: sans-serif ; font-weight: normal; font-style: normal; fill: rgb(255,0,0)" text-anchor="middle" transform="matrix( 1.000 0.000 0.000 1.000 105.132 377.615 )" /><path d="M 35.132 397.790 H 47.982 C 48.037 397.790 48.082 397.745 48.082 397.690 V 391.440 C 48.082 391.340 47.982 391.440 48.082 391.440 H 60.582 C 60.682 391.440 60.582 391.340 60.582 391.440 V 397.690 C 60.582 397.745 60.627 397.790 60.682 397.790 H 73.382 C 73.437 397.790 73.482 397.745 73.482 397.690 V 391.440 C 73.482 391.340 73.382 391.440 73.482 391.440 H 85.982 C 86.082 391.440 85.982 391.340 85.982 391.440 V 397.690 C 85.982 397.745 86.027 397.790 86.082 397.790 H 98.782 C 98.837 397.790 98.882 397.745 98.882 397.690 V 391.440 C 98.882 391.340 98.782 391.440 98.882 391.440 H 111.382 C 111.482 391.440 111.382 391.340 111.382 391.440 V 397.690 C 111.382 397.745 111.427 397.790 111.482 397.790 H 124.182 C 124.237 397.790 124.282 397.745 124.282 397.690 V 391.440 C 124.282 391.340 124.182 391.440 124.282 391.440 H 136.782 C 136.882 391.440 136.782 391.340 136.782 391.440 V 397.690 C 136.782 397.745 136.827 397.790 136.882 397.790 H 149.582 C 149.637 397.790 149.682 397.745 149.682 397.690 V 391.440 C 149.682 391.340 149.582 391.440 149.682 391.440 H 162.182 C 162.282 391.440 162.182 391.340 162.182 391.440 V 397.690 C 162.182 397.745 162.227 397.790 162.282 397.790 H 175.132 H 181.482 C 181.537 397.790 181.582 397.745 181.582 397.690 V 391.340 V 376.340 V 361.340 C 181.582 361.285 181.537 361.240 181.482 361.240 H 175.132 H 35.132 H 28.782 C 28.727 361.240 28.682 361.285 28.682 361.340 V 376.340 V 391.340 V 397.690 C 28.682 397.745 28.727 397.790 28.782 397.790 H 35.132" stroke="rgb(0,0,0)" stroke-width="0.20" />
</g>
<g id="p-8" style="fill:none;stroke-linecap:round;stroke-linejoin:round;">
  <text alignment-baseline="hanging" font-size="4px" style="font-family: sans-serif ; font-weight: normal; font-style: normal; fill: rgb(255,0,0)" text-anchor="middle" transform="matrix( 1.000 0.000 0.000 1.000 105.132 338.208 )" /><path d="M 35.132 358.065 H 47.982 C 48.037 358.065 48.082 358.020 48.082 357.965 V 351.715 C 48.082 351.615 47.982 351.715 48.082 351.715 H 60.582 C 60.682 351.715 60.582 351.615 60.582 351.715 V 357.965 C 60.582 358.020 60.627 358.065 60.682 358.065 H 73.382 C 73.437 358.065 73.482 358.020 73.482 357.965 V 351.715 C 73.482 351.615 73.382 351.715 73.482 351.715 H 85.982 C 86.082 351.715 85.982 351.615 85.982 351.715 V 357.965 C 85.982 358.020 86.027 358.065 86.082 358.065 H 98.782 C 98.837 358.065 98.882 358.020 98.882 357.965 V 351.715 C 98.882 351.615 98.782 351.715 98.882 351.715 H 111.382 C 111.482 351.715 111.382 351.615 111.382 351.715 V 357.965 C 111.382 358.020 111.427 358.065 111.482 358.065 H 124.182 C 124.237 358.065 124.282 358.020 124.282 357.965 V 351.715 C 124.282 351.615 124.182 351.715 124.282 351.715 H 136.782 C 136.882 351.715 136.782 351.615 136.782 351.715 V 357.965 C 136.782 358.020 136.827 358.065 136.882 358.065 H 149.582 C 149.637 358.065 149.682 358.020 149.682 357.965 V 351.715 C 149.682 351.615 149.582 351.715 149.682 351.715 H 162.182 C 162.282 351.715 162.182 351.615 162.182 351.715 V 357.965 C 162.182 358.020 162.227 358.065 162.282 358.065 H 175.132 H 181.482 C 181.537 358.065 181.582 358.020 181.582 357.965 V 351.615 V 346.458 V 341.300 C 181.582 341.245 181.537 341.200 181.482 341.200 H 175.232 C 175.132 341.200 175.232 341.300 175.232 341.200 V 331.854 C 175.232 331.754 175.132 331.854 175.232 331.854 H 181.482 C 181.537 331.854 181.582 331.809 181.582 331.754 V 322.250 C 181.582 322.195 181.537 322.150 181.482 322.150 H 28.782 C 28.727 322.150 28.682 322.195 28.682 322.250 V 331.754 C 28.682 331.809 28.727 331.854 28.782 331.854 H 35.032 C 35.132 331.854 35.032 331.754 35.032 331.854 V 341.200 C 35.032 341.300 35.132 341.200 35.032 341.200 H 28.782 C 28.727 341.200 28.682 341.245 28.682 341.300 V 346.458 V 351.615 V 357.965 C 28.682 358.020 28.727 358.065 28.782 358.065 H 35.132" stroke="rgb(0,0,0)" stroke-width="0.20" />
</g>
<g id="p-9" style="fill:none;stroke-linecap:round;stroke-linejoin:round;">
  <text alignment-baseline="hanging" font-size="4px" style="font-family: sans-serif ; font-weight: normal; font-style: normal; fill: rgb(255,0,0)" text-anchor="middle" transform="matrix( 1.000 0.000 0.000 1.000 85.132 240.625 )" /><path d="M 35.132 312.625 H 53.282 C 53.382 312.625 53.282 312.525 53.282 312.625 V 318.875 C 53.282 318.930 53.327 318.975 53.382 318.975 H 66.082 C 66.137 318.975 66.182 318.930 66.182 318.875 V 312.625 C 66.182 312.525 66.082 312.625 66.182 312.625 H 78.682 C 78.782 312.625 78.682 312.525 78.682 312.625 V 318.875 C 78.682 318.930 78.727 318.975 78.782 318.975 H 91.482 C 91.537 318.975 91.582 318.930 91.582 318.875 V 312.625 C 91.582 312.525 91.482 312.625 91.582 312.625 H 104.082 C 104.182 312.625 104.082 312.525 104.082 312.625 V 318.875 C 104.082 318.930 104.127 318.975 104.182 318.975 H 116.882 C 116.937 318.975 116.982 318.930 116.982 318.875 V 312.625 C 116.982 312.525 116.882 312.625 116.982 312.625 H 135.132 C 135.187 312.625 135.232 312.580 135.232 312.525 V 299.775 C 135.232 299.675 135.132 299.775 135.232 299.775 H 141.482 C 141.537 299.775 141.582 299.730 141.582 299.675 V 286.975 C 141.582 286.920 141.537 286.875 141.482 286.875 H 135.232 C 135.132 286.875 135.232 286.975 135.232 286.875 V 274.375 C 135.232 274.275 135.132 274.375 135.232 274.375 H 141.482 C 141.537 274.375 141.582 274.330 141.582 274.275 V 261.575 C 141.582 261.520 141.537 261.475 141.482 261.475 H 135.232 C 135.132 261.475 135.232 261.575 135.232 261.475 V 248.975 C 135.232 248.875 135.132 248.975 135.232 248.975 H 141.482 C 141.537 248.975 141.582 248.930 141.582 248.875 V 236.175 C 141.582 236.120 141.537 236.075 141.482 236.075 H 135.232 C 135.132 236.075 135.232 236.175 135.232 236.075 V 223.575 C 135.232 223.475 135.132 223.575 135.232 223.575 H 141.482 C 141.537 223.575 141.582 223.530 141.582 223.475 V 210.775 C 141.582 210.720 141.537 210.675 141.482 210.675 H 135.232 C 135.132 210.675 135.232 210.775 135.232 210.675 V 198.175 C 135.232 198.075 135.132 198.175 135.232 198.175 H 141.482 C 141.537 198.175 141.582 198.130 141.582 198.075 V 185.375 C 141.582 185.320 141.537 185.275 141.482 185.275 H 135.232 C 135.132 185.275 135.232 185.375 135.232 185.275 V 172.525 C 135.232 172.470 135.187 172.425 135.132 172.425 H 116.982 C 116.882 172.425 116.982 172.525 116.982 172.425 V 166.175 C 116.982 166.120 116.937 166.075 116.882 166.075 H 104.182 C 104.127 166.075 104.082 166.120 104.082 166.175 V 172.425 C 104.082 172.525 104.182 172.425 104.082 172.425 H 91.582 C 91.482 172.425 91.582 172.525 91.582 172.425 V 166.175 C 91.582 166.120 91.537 166.075 91.482 166.075 H 78.782 C 78.727 166.075 78.682 166.120 78.682 166.175 V 172.425 C 78.682 172.525 78.782 172.425 78.682 172.425 H 66.182 C 66.082 172.425 66.182 172.525 66.182 172.425 V 166.175 C 66.182 166.120 66.137 166.075 66.082 166.075 H 53.382 C 53.327 166.075 53.282 166.120 53.282 166.175 V 172.425 C 53.282 172.525 53.382 172.425 53.282 172.425 H 35.132 C 35.077 172.425 35.032 172.470 35.032 172.525 V 185.275 C 35.032 185.375 35.132 185.275 35.032 185.275 H 28.782 C 28.727 185.275 28.682 185.320 28.682 185.375 V 198.075 C 28.682 198.130 28.727 198.175 28.782 198.175 H 35.032 C 35.132 198.175 35.032 198.075 35.032 198.175 V 210.675 C 35.032 210.775 35.132 210.675 35.032 210.675 H 28.782 C 28.727 210.675 28.682 210.720 28.682 210.775 V 223.475 C 28.682 223.530 28.727 223.575 28.782 223.575 H 35.032 C 35.132 223.575 35.032 223.475 35.032 223.575 V 236.075 C 35.032 236.175 35.132 236.075 35.032 236.075 H 28.782 C 28.727 236.075 28.682 236.120 28.682 236.175 V 248.875 C 28.682 248.930 28.727 248.975 28.782 248.975 H 35.032 C 35.132 248.975 35.032 248.875 35.032 248.975 V 261.475 C 35.032 261.575 35.132 261.475 35.032 261.475 H 28.782 C 28.727 261.475 28.682 261.520 28.682 261.575 V 274.275 C 28.682 274.330 28.727 274.375 28.782 274.375 H 35.032 C 35.132 274.375 35.032 274.275 35.032 274.375 V 286.875 C 35.032 286.975 35.132 286.875 35.032 286.875 H 28.782 C 28.727 286.875 28.682 286.920 28.682 286.975 V 299.675 C 28.682 299.730 28.727 299.775 28.782 299.775 H 35.032 C 35.132 299.775 35.032 299.675 35.032 299.775 V 312.525 C 35.032 312.580 35.077 312.625 35.132 312.625" stroke="rgb(0,0,0)" stroke-width="0.20" />
</g>
<g id="p-10" style="fill:none;stroke-linecap:round;stroke-linejoin:round;">
  <text alignment-baseline="hanging" font-size="4px" style="font-family: sans-serif ; font-weight: normal; font-style: normal; fill: rgb(255,0,0)" text-anchor="middle" transform="matrix( 1.000 0.000 0.000 1.000 85.132 84.550 )" /><path d="M 35.132 156.550 H 53.282 C 53.382 156.550 53.282 156.450 53.282 156.550 V 162.800 C 53.282 162.855 53.327 162.900 53.382 162.900 H 66.082 C 66.137 162.900 66.182 162.855 66.182 162.800 V 156.550 C 66.182 156.450 66.082 156.550 66.182 156.550 H 78.682 C 78.782 156.550 78.682 156.450 78.682 156.550 V 162.800 C 78.682 162.855 78.727 162.900 78.782 162.900 H 91.482 C 91.537 162.900 91.582 162.855 91.582 162.800 V 156.550 C 91.582 156.450 91.482 156.550 91.582 156.550 H 104.082 C 104.182 156.550 104.082 156.450 104.082 156.550 V 162.800 C 104.082 162.855 104.127 162.900 104.182 162.900 H 116.882 C 116.937 162.900 116.982 162.855 116.982 162.800 V 156.550 C 116.982 156.450 116.882 156.550 116.982 156.550 H 135.132 C 135.187 156.550 135.232 156.505 135.232 156.450 V 143.700 C 135.232 143.600 135.132 143.700 135.232 143.700 H 141.482 C 141.537 143.700 141.582 143.655 141.582 143.600 V 130.900 C 141.582 130.845 141.537 130.800 141.482 130.800 H 135.232 C 135.132 130.800 135.232 130.900 135.232 130.800 V 118.300 C 135.232 118.200 135.132 118.300 135.232 118.300 H 141.482 C 141.537 118.300 141.582 118.255 141.582 118.200 V 105.500 C 141.582 105.445 141.537 105.400 141.482 105.400 H 135.232 C 135.132 105.400 135.232 105.500 135.232 105.400 V 92.900 C 135.232 92.800 135.132 92.900 135.232 92.900 H 141.482 C 141.537 92.900 141.582 92.855 141.582 92.800 V 80.100 C 141.582 80.045 141.537 80.000 141.482 80.000 H 135.232 C 135.132 80.000 135.232 80.100 135.232 80.000 V 67.500 C 135.232 67.400 135.132 67.500 135.232 67.500 H 141.482 C 141.537 67.500 141.582 67.455 141.582 67.400 V 54.700 C 141.582 54.645 141.537 54.600 141.482 54.600 H 135.232 C 135.132 54.600 135.232 54.700 135.232 54.600 V 42.100 C 135.232 42.000 135.132 42.100 135.232 42.100 H 141.482 C 141.537 42.100 141.582 42.055 141.582 42.000 V 29.300 C 141.582 29.245 141.537 29.200 141.482 29.200 H 135.232 C 135.132 29.200 135.232 29.300 135.232 29.200 V 16.450 C 135.232 16.395 135.187 16.350 135.132 16.350 H 116.982 C 116.882 16.350 116.982 16.450 116.982 16.350 V 10.100 C 116.982 10.045 116.937 10.000 116.882 10.000 H 104.182 C 104.127 10.000 104.082 10.045 104.082 10.100 V 16.350 C 104.082 16.450 104.182 16.350 104.082 16.350 H 91.582 C 91.482 16.350 91.582 16.450 91.582 16.350 V 10.100 C 91.582 10.045 91.537 10.000 91.482 10.000 H 78.782 C 78.727 10.000 78.682 10.045 78.682 10.100 V 16.350 C 78.682 16.450 78.782 16.350 78.682 16.350 H 66.182 C 66.082 16.350 66.182 16.450 66.182 16.350 V 10.100 C 66.182 10.045 66.137 10.000 66.082 10.000 H 53.382 C 53.327 10.000 53.282 10.045 53.282 10.100 V 16.350 C 53.282 16.450 53.382 16.350 53.282 16.350 H 35.132 C 35.077 16.350 35.032 16.395 35.032 16.450 V 29.200 C 35.032 29.300 35.132 29.200 35.032 29.200 H 28.782 C 28.727 29.200 28.682 29.245 28.682 29.300 V 42.000 C 28.682 42.055 28.727 42.100 28.782 42.100 H 35.032 C 35.132 42.100 35.032 42.000 35.032 42.100 V 54.600 C 35.032 54.700 35.132 54.600 35.032 54.600 H 28.782 C 28.727 54.600 28.682 54.645 28.682 54.700 V 67.400 C 28.682 67.455 28.727 67.500 28.782 67.500 H 35.032 C 35.132 67.500 35.032 67.400 35.032 67.500 V 80.000 C 35.032 80.100 35.132 80.000 35.032 80.000 H 28.782 C 28.727 80.000 28.682 80.045 28.682 80.100 V 92.800 C 28.682 92.855 28.727 92.900 28.782 92.900 H 35.032 C 35.132 92.900 35.032 92.800 35.032 92.900 V 105.400 C 35.032 105.500 35.132 105.400 35.032 105.400 H 28.782 C 28.727 105.400 28.682 105.445 28.682 105.500 V 118.200 C 28.682 118.255 28.727 118.300 28.782 118.300 H 35.032 C 35.132 118.300 35.032 118.200 35.032 118.300 V 130.800 C 35.032 130.900 35.132 130.800 35.032 130.800 H 28.782 C 28.727 130.800 28.682 130.845 28.682 130.900 V 143.600 C 28.682 143.655 28.727 143.700 28.782 143.700 H 35.032 C 35.132 143.700 35.032 143.600 35.032 143.700 V 156.450 C 35.032 156.505 35.077 156.550 35.132 156.550" stroke="rgb(0,0,0)" stroke-width="0.20" />
</g>
</svg>