<?xml version="1.0" encoding="UTF-8" standalone="no"?>
<svg
   xmlns:dc="http://purl.org/dc/elements/1.1/"
   xmlns:cc="http://creativecommons.org/ns#"
   xmlns:rdf="http://www.w3.org/1999/02/22-rdf-syntax-ns#"
   xmlns:svg="http://www.w3.org/2000/svg"
   xmlns="http://www.w3.org/2000/svg"
   xmlns:sodipodi="http://sodipodi.sourceforge.net/DTD/sodipodi-0.dtd"
   xmlns:inkscape="http://www.inkscape.org/namespaces/inkscape"
   height="185.30mm"
   viewBox="0.0 0.0 136.90 185.30"
   width="136.90mm"
   version="1.1"
   id="svg1696"
   sodipodi:docname="JDA_large_organizer_single.svg"
   inkscape:version="1.0.2 (e86c8708, 2021-01-15)">
  <defs
     id="defs1700">
    <rect
       x="19.182195"
       y="79.606109"
       width="46.996377"
       height="21.67588"
       id="rect1718" />
    <rect
       x="28.965114"
       y="122.76605"
       width="32.993375"
       height="14.77029"
       id="rect1706" />
  </defs>
  <sodipodi:namedview
     pagecolor="#ffffff"
     bordercolor="#666666"
     borderopacity="1"
     objecttolerance="10"
     gridtolerance="10"
     guidetolerance="10"
     inkscape:pageopacity="0"
     inkscape:pageshadow="2"
     inkscape:window-width="1867"
     inkscape:window-height="1061"
     id="namedview1698"
     showgrid="false"
     inkscape:zoom="1.3793173"
     inkscape:cx="189.834"
     inkscape:cy="316.09841"
     inkscape:window-x="2158"
     inkscape:window-y="175"
     inkscape:window-maximized="0"
     inkscape:current-layer="svg1696" />
  <!--
UniversalBox - Box with various options for different styles and lids

Created with Boxes.py (https://festi.info/boxes.py)
Creation date: 2021-11-10 21:30:36
Command line (remove spaces between dashes): boxes UniversalBox - -FingerJoint_angle=90.0 - -FingerJoint_style=rectangular - -FingerJoint_surroundingspaces=2.0 - -FingerJoint_edge_width=1.0 - -FingerJoint_finger=2.0 - -FingerJoint_play=0.0 - -FingerJoint_space=2.0 - -FingerJoint_width=1.0 - -Stackable_angle=60 - -Stackable_height=2.0 - -Stackable_holedistance=1.0 - -Stackable_width=4.0 - -Hinge_grip_percentage=0 - -Hinge_outset=0 - -Hinge_outset=1 - -Hinge_pinwidth=0.5 - -Hinge_style=outset - -Hinge_axle=2 - -Hinge_grip_length=0 - -Hinge_hingestrength=1 - -CabinetHinge_bore=3.2 - -CabinetHinge_eyes_per_hinge=5 - -CabinetHinge_hinges=2 - -CabinetHinge_style=inside - -CabinetHinge_eye=1.5 - -CabinetHinge_play=0.05 - -CabinetHinge_spacing=2.0 - -Lid_angle=90.0 - -Lid_hole_width=0 - -Lid_second_pin=0 - -Lid_second_pin=1 - -Lid_spring=both - -Lid_style=rectangular - -Lid_surroundingspaces=2.0 - -Lid_edge_width=1.0 - -Lid_finger=3.0 - -Lid_play=0.05 - -Lid_space=2.0 - -Lid_width=1.0 - -Click_angle=5.0 - -Click_bottom_radius=0.1 - -Click_depth=3.0 - -RoundedTriangleEdge_height=150.0 - -RoundedTriangleEdge_r_hole=2.0 - -RoundedTriangleEdge_radius=30.0 - -RoundedTriangleEdge_outset=1 - -Flex_stretch=1.05 - -Flex_connection=1.0 - -Flex_distance=0.5 - -Flex_width=5.0 - -top_edge=e - -bottom_edge=h - -x=65 - -y=50 - -h=50 - -outside=0 - -outside=1 '- -vertical_edges=finger joints' '- -lid=default (none)' - -thickness=3.0 - -format=svg - -tabs=0.0 - -debug=0 - -labels=0 - -labels=1 - -reference=100 - -burn=0.1
Url: http://www.festi.info/UniversalBox?FingerJoint_angle=90.0&FingerJoint_style=rectangular&FingerJoint_surroundingspaces=2.0&FingerJoint_edge_width=1.0&FingerJoint_finger=2.0&FingerJoint_play=0.0&FingerJoint_space=2.0&FingerJoint_width=1.0&Stackable_angle=60&Stackable_height=2.0&Stackable_holedistance=1.0&Stackable_width=4.0&Hinge_grip_percentage=0&Hinge_outset=0&Hinge_outset=1&Hinge_pinwidth=0.5&Hinge_style=outset&Hinge_axle=2&Hinge_grip_length=0&Hinge_hingestrength=1&CabinetHinge_bore=3.2&CabinetHinge_eyes_per_hinge=5&CabinetHinge_hinges=2&CabinetHinge_style=inside&CabinetHinge_eye=1.5&CabinetHinge_play=0.05&CabinetHinge_spacing=2.0&Lid_angle=90.0&Lid_hole_width=0&Lid_second_pin=0&Lid_second_pin=1&Lid_spring=both&Lid_style=rectangular&Lid_surroundingspaces=2.0&Lid_edge_width=1.0&Lid_finger=3.0&Lid_play=0.05&Lid_space=2.0&Lid_width=1.0&Click_angle=5.0&Click_bottom_radius=0.1&Click_depth=3.0&RoundedTriangleEdge_height=150.0&RoundedTriangleEdge_r_hole=2.0&RoundedTriangleEdge_radius=30.0&RoundedTriangleEdge_outset=1&Flex_stretch=1.05&Flex_connection=1.0&Flex_distance=0.5&Flex_width=5.0&top_edge=e&bottom_edge=h&x=65&y=50&h=50&outside=0&outside=1&vertical_edges=finger+joints&lid=default+%28none%29&thickness=3.0&format=svg&tabs=0.0&debug=0&labels=0&labels=1&reference=100&burn=0.1&render=1
SettingsUrl: http://www.festi.info/UniversalBox?FingerJoint_angle=90.0&FingerJoint_style=rectangular&FingerJoint_surroundingspaces=2.0&FingerJoint_edge_width=1.0&FingerJoint_finger=2.0&FingerJoint_play=0.0&FingerJoint_space=2.0&FingerJoint_width=1.0&Stackable_angle=60&Stackable_height=2.0&Stackable_holedistance=1.0&Stackable_width=4.0&Hinge_grip_percentage=0&Hinge_outset=0&Hinge_outset=1&Hinge_pinwidth=0.5&Hinge_style=outset&Hinge_axle=2&Hinge_grip_length=0&Hinge_hingestrength=1&CabinetHinge_bore=3.2&CabinetHinge_eyes_per_hinge=5&CabinetHinge_hinges=2&CabinetHinge_style=inside&CabinetHinge_eye=1.5&CabinetHinge_play=0.05&CabinetHinge_spacing=2.0&Lid_angle=90.0&Lid_hole_width=0&Lid_second_pin=0&Lid_second_pin=1&Lid_spring=both&Lid_style=rectangular&Lid_surroundingspaces=2.0&Lid_edge_width=1.0&Lid_finger=3.0&Lid_play=0.05&Lid_space=2.0&Lid_width=1.0&Click_angle=5.0&Click_bottom_radius=0.1&Click_depth=3.0&RoundedTriangleEdge_height=150.0&RoundedTriangleEdge_r_hole=2.0&RoundedTriangleEdge_radius=30.0&RoundedTriangleEdge_outset=1&Flex_stretch=1.05&Flex_connection=1.0&Flex_distance=0.5&Flex_width=5.0&top_edge=e&bottom_edge=h&x=65&y=50&h=50&outside=0&outside=1&vertical_edges=finger+joints&lid=default+%28none%29&thickness=3.0&format=svg&tabs=0.0&debug=0&labels=0&labels=1&reference=100&burn=0.1
-->
  <title
     id="title1632">UniversalBox</title>
  <metadata
     id="metadata1634">
    <rdf:RDF>
      <cc:Work>
        <dc:title>Box - UniversalBox</dc:title>
        <dc:date>2021-11-10 21:30:36</dc:date>
        <dc:source>http://www.festi.info/UniversalBox?FingerJoint_angle=90.0&amp;FingerJoint_style=rectangular&amp;FingerJoint_surroundingspaces=2.0&amp;FingerJoint_edge_width=1.0&amp;FingerJoint_finger=2.0&amp;FingerJoint_play=0.0&amp;FingerJoint_space=2.0&amp;FingerJoint_width=1.0&amp;Stackable_angle=60&amp;Stackable_height=2.0&amp;Stackable_holedistance=1.0&amp;Stackable_width=4.0&amp;Hinge_grip_percentage=0&amp;Hinge_outset=0&amp;Hinge_outset=1&amp;Hinge_pinwidth=0.5&amp;Hinge_style=outset&amp;Hinge_axle=2&amp;Hinge_grip_length=0&amp;Hinge_hingestrength=1&amp;CabinetHinge_bore=3.2&amp;CabinetHinge_eyes_per_hinge=5&amp;CabinetHinge_hinges=2&amp;CabinetHinge_style=inside&amp;CabinetHinge_eye=1.5&amp;CabinetHinge_play=0.05&amp;CabinetHinge_spacing=2.0&amp;Lid_angle=90.0&amp;Lid_hole_width=0&amp;Lid_second_pin=0&amp;Lid_second_pin=1&amp;Lid_spring=both&amp;Lid_style=rectangular&amp;Lid_surroundingspaces=2.0&amp;Lid_edge_width=1.0&amp;Lid_finger=3.0&amp;Lid_play=0.05&amp;Lid_space=2.0&amp;Lid_width=1.0&amp;Click_angle=5.0&amp;Click_bottom_radius=0.1&amp;Click_depth=3.0&amp;RoundedTriangleEdge_height=150.0&amp;RoundedTriangleEdge_r_hole=2.0&amp;RoundedTriangleEdge_radius=30.0&amp;RoundedTriangleEdge_outset=1&amp;Flex_stretch=1.05&amp;Flex_connection=1.0&amp;Flex_distance=0.5&amp;Flex_width=5.0&amp;top_edge=e&amp;bottom_edge=h&amp;x=65&amp;y=50&amp;h=50&amp;outside=0&amp;outside=1&amp;vertical_edges=finger+joints&amp;lid=default+%28none%29&amp;thickness=3.0&amp;format=svg&amp;tabs=0.0&amp;debug=0&amp;labels=0&amp;labels=1&amp;reference=100&amp;burn=0.1&amp;render=1</dc:source>
        <dc:description>Box with various options for different styles and lids

Created with Boxes.py (https://festi.info/boxes.py)
Command line: boxes UniversalBox --FingerJoint_angle=90.0 --FingerJoint_style=rectangular --FingerJoint_surroundingspaces=2.0 --FingerJoint_edge_width=1.0 --FingerJoint_finger=2.0 --FingerJoint_play=0.0 --FingerJoint_space=2.0 --FingerJoint_width=1.0 --Stackable_angle=60 --Stackable_height=2.0 --Stackable_holedistance=1.0 --Stackable_width=4.0 --Hinge_grip_percentage=0 --Hinge_outset=0 --Hinge_outset=1 --Hinge_pinwidth=0.5 --Hinge_style=outset --Hinge_axle=2 --Hinge_grip_length=0 --Hinge_hingestrength=1 --CabinetHinge_bore=3.2 --CabinetHinge_eyes_per_hinge=5 --CabinetHinge_hinges=2 --CabinetHinge_style=inside --CabinetHinge_eye=1.5 --CabinetHinge_play=0.05 --CabinetHinge_spacing=2.0 --Lid_angle=90.0 --Lid_hole_width=0 --Lid_second_pin=0 --Lid_second_pin=1 --Lid_spring=both --Lid_style=rectangular --Lid_surroundingspaces=2.0 --Lid_edge_width=1.0 --Lid_finger=3.0 --Lid_play=0.05 --Lid_space=2.0 --Lid_width=1.0 --Click_angle=5.0 --Click_bottom_radius=0.1 --Click_depth=3.0 --RoundedTriangleEdge_height=150.0 --RoundedTriangleEdge_r_hole=2.0 --RoundedTriangleEdge_radius=30.0 --RoundedTriangleEdge_outset=1 --Flex_stretch=1.05 --Flex_connection=1.0 --Flex_distance=0.5 --Flex_width=5.0 --top_edge=e --bottom_edge=h --x=65 --y=50 --h=50 --outside=0 --outside=1 '--vertical_edges=finger joints' '--lid=default (none)' --thickness=3.0 --format=svg --tabs=0.0 --debug=0 --labels=0 --labels=1 --reference=100 --burn=0.1
Url: http://www.festi.info/UniversalBox?FingerJoint_angle=90.0&amp;FingerJoint_style=rectangular&amp;FingerJoint_surroundingspaces=2.0&amp;FingerJoint_edge_width=1.0&amp;FingerJoint_finger=2.0&amp;FingerJoint_play=0.0&amp;FingerJoint_space=2.0&amp;FingerJoint_width=1.0&amp;Stackable_angle=60&amp;Stackable_height=2.0&amp;Stackable_holedistance=1.0&amp;Stackable_width=4.0&amp;Hinge_grip_percentage=0&amp;Hinge_outset=0&amp;Hinge_outset=1&amp;Hinge_pinwidth=0.5&amp;Hinge_style=outset&amp;Hinge_axle=2&amp;Hinge_grip_length=0&amp;Hinge_hingestrength=1&amp;CabinetHinge_bore=3.2&amp;CabinetHinge_eyes_per_hinge=5&amp;CabinetHinge_hinges=2&amp;CabinetHinge_style=inside&amp;CabinetHinge_eye=1.5&amp;CabinetHinge_play=0.05&amp;CabinetHinge_spacing=2.0&amp;Lid_angle=90.0&amp;Lid_hole_width=0&amp;Lid_second_pin=0&amp;Lid_second_pin=1&amp;Lid_spring=both&amp;Lid_style=rectangular&amp;Lid_surroundingspaces=2.0&amp;Lid_edge_width=1.0&amp;Lid_finger=3.0&amp;Lid_play=0.05&amp;Lid_space=2.0&amp;Lid_width=1.0&amp;Click_angle=5.0&amp;Click_bottom_radius=0.1&amp;Click_depth=3.0&amp;RoundedTriangleEdge_height=150.0&amp;RoundedTriangleEdge_r_hole=2.0&amp;RoundedTriangleEdge_radius=30.0&amp;RoundedTriangleEdge_outset=1&amp;Flex_stretch=1.05&amp;Flex_connection=1.0&amp;Flex_distance=0.5&amp;Flex_width=5.0&amp;top_edge=e&amp;bottom_edge=h&amp;x=65&amp;y=50&amp;h=50&amp;outside=0&amp;outside=1&amp;vertical_edges=finger+joints&amp;lid=default+%28none%29&amp;thickness=3.0&amp;format=svg&amp;tabs=0.0&amp;debug=0&amp;labels=0&amp;labels=1&amp;reference=100&amp;burn=0.1&amp;render=1
SettingsUrl: http://www.festi.info/UniversalBox?FingerJoint_angle=90.0&amp;FingerJoint_style=rectangular&amp;FingerJoint_surroundingspaces=2.0&amp;FingerJoint_edge_width=1.0&amp;FingerJoint_finger=2.0&amp;FingerJoint_play=0.0&amp;FingerJoint_space=2.0&amp;FingerJoint_width=1.0&amp;Stackable_angle=60&amp;Stackable_height=2.0&amp;Stackable_holedistance=1.0&amp;Stackable_width=4.0&amp;Hinge_grip_percentage=0&amp;Hinge_outset=0&amp;Hinge_outset=1&amp;Hinge_pinwidth=0.5&amp;Hinge_style=outset&amp;Hinge_axle=2&amp;Hinge_grip_length=0&amp;Hinge_hingestrength=1&amp;CabinetHinge_bore=3.2&amp;CabinetHinge_eyes_per_hinge=5&amp;CabinetHinge_hinges=2&amp;CabinetHinge_style=inside&amp;CabinetHinge_eye=1.5&amp;CabinetHinge_play=0.05&amp;CabinetHinge_spacing=2.0&amp;Lid_angle=90.0&amp;Lid_hole_width=0&amp;Lid_second_pin=0&amp;Lid_second_pin=1&amp;Lid_spring=both&amp;Lid_style=rectangular&amp;Lid_surroundingspaces=2.0&amp;Lid_edge_width=1.0&amp;Lid_finger=3.0&amp;Lid_play=0.05&amp;Lid_space=2.0&amp;Lid_width=1.0&amp;Click_angle=5.0&amp;Click_bottom_radius=0.1&amp;Click_depth=3.0&amp;RoundedTriangleEdge_height=150.0&amp;RoundedTriangleEdge_r_hole=2.0&amp;RoundedTriangleEdge_radius=30.0&amp;RoundedTriangleEdge_outset=1&amp;Flex_stretch=1.05&amp;Flex_connection=1.0&amp;Flex_distance=0.5&amp;Flex_width=5.0&amp;top_edge=e&amp;bottom_edge=h&amp;x=65&amp;y=50&amp;h=50&amp;outside=0&amp;outside=1&amp;vertical_edges=finger+joints&amp;lid=default+%28none%29&amp;thickness=3.0&amp;format=svg&amp;tabs=0.0&amp;debug=0&amp;labels=0&amp;labels=1&amp;reference=100&amp;burn=0.1
</dc:description>
        <dc:format>image/svg+xml</dc:format>
        <dc:type
           rdf:resource="http://purl.org/dc/dcmitype/StillImage" />
      </cc:Work>
    </rdf:RDF>
  </metadata>
  <g
     id="p-0"
     style="fill:none;stroke-linecap:round;stroke-linejoin:round"
     transform="translate(0,7.289234)">
    <path
       d="m 10.1,175.3 h 100 v -10 h -100 z"
       stroke="#000000"
       stroke-width="0.2"
       id="path1636" />
    <text
       alignment-baseline="hanging"
       font-size="10px"
       style="font-style:normal;font-weight:normal;font-family:sans-serif;fill:#000000"
       text-anchor="middle"
       transform="translate(60.1,165.3)"
       id="text1638">100mm</text>
    <text
       alignment-baseline="hanging"
       font-size="4px"
       style="font-style:normal;font-weight:normal;font-family:sans-serif;fill:#ff0000"
       text-anchor="middle"
       transform="translate(15.1,168.3)"
       id="text1640" />
  </g>
  <g
     id="p-1"
     style="fill:none;stroke-linecap:round;stroke-linejoin:round;">
    <path
       d="M 24.600 160.400 H 21.700 C 21.600 160.400 21.700 160.500 21.700 160.400 V 157.600 C 21.700 157.500 21.600 157.600 21.700 157.600 H 27.500 C 27.600 157.600 27.500 157.500 27.500 157.600 V 160.400 C 27.500 160.500 27.600 160.400 27.500 160.400 H 24.600 Z"
       stroke="rgb(0,0,255)"
       stroke-width="0.20"
       id="path1643" />
    <path
       d="M 36.600 160.400 H 33.700 C 33.600 160.400 33.700 160.500 33.700 160.400 V 157.600 C 33.700 157.500 33.600 157.600 33.700 157.600 H 39.500 C 39.600 157.600 39.500 157.500 39.500 157.600 V 160.400 C 39.500 160.500 39.600 160.400 39.500 160.400 H 36.600 Z"
       stroke="rgb(0,0,255)"
       stroke-width="0.20"
       id="path1645" />
    <path
       d="M 48.600 160.400 H 45.700 C 45.600 160.400 45.700 160.500 45.700 160.400 V 157.600 C 45.700 157.500 45.600 157.600 45.700 157.600 H 51.500 C 51.600 157.600 51.500 157.500 51.500 157.600 V 160.400 C 51.500 160.500 51.600 160.400 51.500 160.400 H 48.600 Z"
       stroke="rgb(0,0,255)"
       stroke-width="0.20"
       id="path1647" />
    <path
       d="M 60.600 160.400 H 57.700 C 57.600 160.400 57.700 160.500 57.700 160.400 V 157.600 C 57.700 157.500 57.600 157.600 57.700 157.600 H 63.500 C 63.600 157.600 63.500 157.500 63.500 157.600 V 160.400 C 63.500 160.500 63.600 160.400 63.500 160.400 H 60.600 Z"
       stroke="rgb(0,0,255)"
       stroke-width="0.20"
       id="path1649" />
    <text
       alignment-baseline="hanging"
       font-size="4px"
       style="font-family: sans-serif ; font-weight: normal; font-style: normal; fill: rgb(255,0,0)"
       text-anchor="middle"
       transform="matrix( 1.000 0.000 0.000 1.000 42.600 136.600 )"
       id="text1651" />
    <path
       d="M 13.100 163.600 H 72.100 H 75.100 C 75.155 163.600 75.200 163.555 75.200 163.500 V 153.500 C 75.200 153.445 75.155 153.400 75.100 153.400 H 72.200 C 72.100 153.400 72.200 153.500 72.200 153.400 V 147.600 C 72.200 147.500 72.100 147.600 72.200 147.600 H 75.100 C 75.155 147.600 75.200 147.555 75.200 147.500 V 141.500 C 75.200 141.445 75.155 141.400 75.100 141.400 H 72.200 C 72.100 141.400 72.200 141.500 72.200 141.400 V 135.600 C 72.200 135.500 72.100 135.600 72.200 135.600 H 75.100 C 75.155 135.600 75.200 135.555 75.200 135.500 V 129.500 C 75.200 129.445 75.155 129.400 75.100 129.400 H 72.200 C 72.100 129.400 72.200 129.500 72.200 129.400 V 123.600 C 72.200 123.500 72.100 123.600 72.200 123.600 H 75.100 C 75.155 123.600 75.200 123.555 75.200 123.500 V 113.500 C 75.200 113.445 75.155 113.400 75.100 113.400 H 72.100 H 13.100 H 10.100 C 10.045 113.400 10.000 113.445 10.000 113.500 V 123.500 C 10.000 123.555 10.045 123.600 10.100 123.600 H 13.000 C 13.100 123.600 13.000 123.500 13.000 123.600 V 129.400 C 13.000 129.500 13.100 129.400 13.000 129.400 H 10.100 C 10.045 129.400 10.000 129.445 10.000 129.500 V 135.500 C 10.000 135.555 10.045 135.600 10.100 135.600 H 13.000 C 13.100 135.600 13.000 135.500 13.000 135.600 V 141.400 C 13.000 141.500 13.100 141.400 13.000 141.400 H 10.100 C 10.045 141.400 10.000 141.445 10.000 141.500 V 147.500 C 10.000 147.555 10.045 147.600 10.100 147.600 H 13.000 C 13.100 147.600 13.000 147.500 13.000 147.600 V 153.400 C 13.000 153.500 13.100 153.400 13.000 153.400 H 10.100 C 10.045 153.400 10.000 153.445 10.000 153.500 V 163.500 C 10.000 163.555 10.045 163.600 10.100 163.600 H 13.100"
       stroke="rgb(0,0,0)"
       stroke-width="0.20"
       id="path1653" />
  </g>
  <g
     id="p-2"
     style="fill:none;stroke-linecap:round;stroke-linejoin:round;">
    <path
       d="M 24.600 108.700 H 21.700 C 21.600 108.700 21.700 108.800 21.700 108.700 V 105.900 C 21.700 105.800 21.600 105.900 21.700 105.900 H 27.500 C 27.600 105.900 27.500 105.800 27.500 105.900 V 108.700 C 27.500 108.800 27.600 108.700 27.500 108.700 H 24.600 Z"
       stroke="rgb(0,0,255)"
       stroke-width="0.20"
       id="path1656" />
    <path
       d="M 36.600 108.700 H 33.700 C 33.600 108.700 33.700 108.800 33.700 108.700 V 105.900 C 33.700 105.800 33.600 105.900 33.700 105.900 H 39.500 C 39.600 105.900 39.500 105.800 39.500 105.900 V 108.700 C 39.500 108.800 39.600 108.700 39.500 108.700 H 36.600 Z"
       stroke="rgb(0,0,255)"
       stroke-width="0.20"
       id="path1658" />
    <path
       d="M 48.600 108.700 H 45.700 C 45.600 108.700 45.700 108.800 45.700 108.700 V 105.900 C 45.700 105.800 45.600 105.900 45.700 105.900 H 51.500 C 51.600 105.900 51.500 105.800 51.500 105.900 V 108.700 C 51.500 108.800 51.600 108.700 51.500 108.700 H 48.600 Z"
       stroke="rgb(0,0,255)"
       stroke-width="0.20"
       id="path1660" />
    <path
       d="M 60.600 108.700 H 57.700 C 57.600 108.700 57.700 108.800 57.700 108.700 V 105.900 C 57.700 105.800 57.600 105.900 57.700 105.900 H 63.500 C 63.600 105.900 63.500 105.800 63.500 105.900 V 108.700 C 63.500 108.800 63.600 108.700 63.500 108.700 H 60.600 Z"
       stroke="rgb(0,0,255)"
       stroke-width="0.20"
       id="path1662" />
    <text
       alignment-baseline="hanging"
       font-size="4px"
       style="font-family: sans-serif ; font-weight: normal; font-style: normal; fill: rgb(255,0,0)"
       text-anchor="middle"
       transform="matrix( 1.000 0.000 0.000 1.000 42.600 84.900 )"
       id="text1664" />
    <path
       d="M 13.100 111.900 H 72.100 H 75.100 C 75.155 111.900 75.200 111.855 75.200 111.800 V 101.800 C 75.200 101.745 75.155 101.700 75.100 101.700 H 72.200 C 72.100 101.700 72.200 101.800 72.200 101.700 V 95.900 C 72.200 95.800 72.100 95.900 72.200 95.900 H 75.100 C 75.155 95.900 75.200 95.855 75.200 95.800 V 89.800 C 75.200 89.745 75.155 89.700 75.100 89.700 H 72.200 C 72.100 89.700 72.200 89.800 72.200 89.700 V 83.900 C 72.200 83.800 72.100 83.900 72.200 83.900 H 75.100 C 75.155 83.900 75.200 83.855 75.200 83.800 V 77.800 C 75.200 77.745 75.155 77.700 75.100 77.700 H 72.200 C 72.100 77.700 72.200 77.800 72.200 77.700 V 71.900 C 72.200 71.800 72.100 71.900 72.200 71.900 H 75.100 C 75.155 71.900 75.200 71.855 75.200 71.800 V 61.800 C 75.200 61.745 75.155 61.700 75.100 61.700 H 72.100 H 13.100 H 10.100 C 10.045 61.700 10.000 61.745 10.000 61.800 V 71.800 C 10.000 71.855 10.045 71.900 10.100 71.900 H 13.000 C 13.100 71.900 13.000 71.800 13.000 71.900 V 77.700 C 13.000 77.800 13.100 77.700 13.000 77.700 H 10.100 C 10.045 77.700 10.000 77.745 10.000 77.800 V 83.800 C 10.000 83.855 10.045 83.900 10.100 83.900 H 13.000 C 13.100 83.900 13.000 83.800 13.000 83.900 V 89.700 C 13.000 89.800 13.100 89.700 13.000 89.700 H 10.100 C 10.045 89.700 10.000 89.745 10.000 89.800 V 95.800 C 10.000 95.855 10.045 95.900 10.100 95.900 H 13.000 C 13.100 95.900 13.000 95.800 13.000 95.900 V 101.700 C 13.000 101.800 13.100 101.700 13.000 101.700 H 10.100 C 10.045 101.700 10.000 101.745 10.000 101.800 V 111.800 C 10.000 111.855 10.045 111.900 10.100 111.900 H 13.100"
       stroke="rgb(0,0,0)"
       stroke-width="0.20"
       id="path1666" />
  </g>
  <g
     id="p-3"
     style="fill:none;stroke-linecap:round;stroke-linejoin:round;">
    <text
       alignment-baseline="hanging"
       font-size="4px"
       style="font-family: sans-serif ; font-weight: normal; font-style: normal; fill: rgb(255,0,0)"
       text-anchor="middle"
       transform="matrix( 1.000 0.000 0.000 1.000 42.600 33.200 )"
       id="text1669" />
    <path
       d="M 13.100 57.200 H 21.500 C 21.600 57.200 21.500 57.100 21.500 57.200 V 60.100 C 21.500 60.155 21.545 60.200 21.600 60.200 H 27.600 C 27.655 60.200 27.700 60.155 27.700 60.100 V 57.200 C 27.700 57.100 27.600 57.200 27.700 57.200 H 33.500 C 33.600 57.200 33.500 57.100 33.500 57.200 V 60.100 C 33.500 60.155 33.545 60.200 33.600 60.200 H 39.600 C 39.655 60.200 39.700 60.155 39.700 60.100 V 57.200 C 39.700 57.100 39.600 57.200 39.700 57.200 H 45.500 C 45.600 57.200 45.500 57.100 45.500 57.200 V 60.100 C 45.500 60.155 45.545 60.200 45.600 60.200 H 51.600 C 51.655 60.200 51.700 60.155 51.700 60.100 V 57.200 C 51.700 57.100 51.600 57.200 51.700 57.200 H 57.500 C 57.600 57.200 57.500 57.100 57.500 57.200 V 60.100 C 57.500 60.155 57.545 60.200 57.600 60.200 H 63.600 C 63.655 60.200 63.700 60.155 63.700 60.100 V 57.200 C 63.700 57.100 63.600 57.200 63.700 57.200 H 72.100 C 72.155 57.200 72.200 57.155 72.200 57.100 V 50.200 C 72.200 50.100 72.100 50.200 72.200 50.200 H 75.100 C 75.155 50.200 75.200 50.155 75.200 50.100 V 44.100 C 75.200 44.045 75.155 44.000 75.100 44.000 H 72.200 C 72.100 44.000 72.200 44.100 72.200 44.000 V 38.200 C 72.200 38.100 72.100 38.200 72.200 38.200 H 75.100 C 75.155 38.200 75.200 38.155 75.200 38.100 V 32.100 C 75.200 32.045 75.155 32.000 75.100 32.000 H 72.200 C 72.100 32.000 72.200 32.100 72.200 32.000 V 26.200 C 72.200 26.100 72.100 26.200 72.200 26.200 H 75.100 C 75.155 26.200 75.200 26.155 75.200 26.100 V 20.100 C 75.200 20.045 75.155 20.000 75.100 20.000 H 72.200 C 72.100 20.000 72.200 20.100 72.200 20.000 V 13.100 C 72.200 13.045 72.155 13.000 72.100 13.000 H 63.700 C 63.600 13.000 63.700 13.100 63.700 13.000 V 10.100 C 63.700 10.045 63.655 10.000 63.600 10.000 H 57.600 C 57.545 10.000 57.500 10.045 57.500 10.100 V 13.000 C 57.500 13.100 57.600 13.000 57.500 13.000 H 51.700 C 51.600 13.000 51.700 13.100 51.700 13.000 V 10.100 C 51.700 10.045 51.655 10.000 51.600 10.000 H 45.600 C 45.545 10.000 45.500 10.045 45.500 10.100 V 13.000 C 45.500 13.100 45.600 13.000 45.500 13.000 H 39.700 C 39.600 13.000 39.700 13.100 39.700 13.000 V 10.100 C 39.700 10.045 39.655 10.000 39.600 10.000 H 33.600 C 33.545 10.000 33.500 10.045 33.500 10.100 V 13.000 C 33.500 13.100 33.600 13.000 33.500 13.000 H 27.700 C 27.600 13.000 27.700 13.100 27.700 13.000 V 10.100 C 27.700 10.045 27.655 10.000 27.600 10.000 H 21.600 C 21.545 10.000 21.500 10.045 21.500 10.100 V 13.000 C 21.500 13.100 21.600 13.000 21.500 13.000 H 13.100 C 13.045 13.000 13.000 13.045 13.000 13.100 V 20.000 C 13.000 20.100 13.100 20.000 13.000 20.000 H 10.100 C 10.045 20.000 10.000 20.045 10.000 20.100 V 26.100 C 10.000 26.155 10.045 26.200 10.100 26.200 H 13.000 C 13.100 26.200 13.000 26.100 13.000 26.200 V 32.000 C 13.000 32.100 13.100 32.000 13.000 32.000 H 10.100 C 10.045 32.000 10.000 32.045 10.000 32.100 V 38.100 C 10.000 38.155 10.045 38.200 10.100 38.200 H 13.000 C 13.100 38.200 13.000 38.100 13.000 38.200 V 44.000 C 13.000 44.100 13.100 44.000 13.000 44.000 H 10.100 C 10.045 44.000 10.000 44.045 10.000 44.100 V 50.100 C 10.000 50.155 10.045 50.200 10.100 50.200 H 13.000 C 13.100 50.200 13.000 50.100 13.000 50.200 V 57.100 C 13.000 57.155 13.045 57.200 13.100 57.200"
       stroke="rgb(0,0,0)"
       stroke-width="0.20"
       id="path1671" />
  </g>
  <g
     id="p-4"
     style="fill:none;stroke-linecap:round;stroke-linejoin:round;">
    <path
       d="M 89.800 160.400 H 86.900 C 86.800 160.400 86.900 160.500 86.900 160.400 V 157.600 C 86.900 157.500 86.800 157.600 86.900 157.600 H 92.700 C 92.800 157.600 92.700 157.500 92.700 157.600 V 160.400 C 92.700 160.500 92.800 160.400 92.700 160.400 H 89.800 Z"
       stroke="rgb(0,0,255)"
       stroke-width="0.20"
       id="path1674" />
    <path
       d="M 101.800 160.400 H 98.900 C 98.800 160.400 98.900 160.500 98.900 160.400 V 157.600 C 98.900 157.500 98.800 157.600 98.900 157.600 H 104.700 C 104.800 157.600 104.700 157.500 104.700 157.600 V 160.400 C 104.700 160.500 104.800 160.400 104.700 160.400 H 101.800 Z"
       stroke="rgb(0,0,255)"
       stroke-width="0.20"
       id="path1676" />
    <path
       d="M 113.800 160.400 H 110.900 C 110.800 160.400 110.900 160.500 110.900 160.400 V 157.600 C 110.900 157.500 110.800 157.600 110.900 157.600 H 116.700 C 116.800 157.600 116.700 157.500 116.700 157.600 V 160.400 C 116.700 160.500 116.800 160.400 116.700 160.400 H 113.800 Z"
       stroke="rgb(0,0,255)"
       stroke-width="0.20"
       id="path1678" />
    <text
       alignment-baseline="hanging"
       font-size="4px"
       style="font-family: sans-serif ; font-weight: normal; font-style: normal; fill: rgb(255,0,0)"
       text-anchor="middle"
       transform="matrix( 1.000 0.000 0.000 1.000 101.800 136.600 )"
       id="text1680" />
    <path
       d="M 79.800 163.600 H 123.800 C 123.855 163.600 123.900 163.555 123.900 163.500 V 153.600 C 123.900 153.500 123.800 153.600 123.900 153.600 H 126.800 C 126.855 153.600 126.900 153.555 126.900 153.500 V 147.500 C 126.900 147.445 126.855 147.400 126.800 147.400 H 123.900 C 123.800 147.400 123.900 147.500 123.900 147.400 V 141.600 C 123.900 141.500 123.800 141.600 123.900 141.600 H 126.800 C 126.855 141.600 126.900 141.555 126.900 141.500 V 135.500 C 126.900 135.445 126.855 135.400 126.800 135.400 H 123.900 C 123.800 135.400 123.900 135.500 123.900 135.400 V 129.600 C 123.900 129.500 123.800 129.600 123.900 129.600 H 126.800 C 126.855 129.600 126.900 129.555 126.900 129.500 V 123.500 C 126.900 123.445 126.855 123.400 126.800 123.400 H 123.900 C 123.800 123.400 123.900 123.500 123.900 123.400 V 113.500 C 123.900 113.445 123.855 113.400 123.800 113.400 H 79.800 C 79.745 113.400 79.700 113.445 79.700 113.500 V 123.400 C 79.700 123.500 79.800 123.400 79.700 123.400 H 76.800 C 76.745 123.400 76.700 123.445 76.700 123.500 V 129.500 C 76.700 129.555 76.745 129.600 76.800 129.600 H 79.700 C 79.800 129.600 79.700 129.500 79.700 129.600 V 135.400 C 79.700 135.500 79.800 135.400 79.700 135.400 H 76.800 C 76.745 135.400 76.700 135.445 76.700 135.500 V 141.500 C 76.700 141.555 76.745 141.600 76.800 141.600 H 79.700 C 79.800 141.600 79.700 141.500 79.700 141.600 V 147.400 C 79.700 147.500 79.800 147.400 79.700 147.400 H 76.800 C 76.745 147.400 76.700 147.445 76.700 147.500 V 153.500 C 76.700 153.555 76.745 153.600 76.800 153.600 H 79.700 C 79.800 153.600 79.700 153.500 79.700 153.600 V 163.500 C 79.700 163.555 79.745 163.600 79.800 163.600"
       stroke="rgb(0,0,0)"
       stroke-width="0.20"
       id="path1682" />
  </g>
  <g
     id="p-5"
     style="fill:none;stroke-linecap:round;stroke-linejoin:round;">
    <path
       d="M 89.800 108.700 H 86.900 C 86.800 108.700 86.900 108.800 86.900 108.700 V 105.900 C 86.900 105.800 86.800 105.900 86.900 105.900 H 92.700 C 92.800 105.900 92.700 105.800 92.700 105.900 V 108.700 C 92.700 108.800 92.800 108.700 92.700 108.700 H 89.800 Z"
       stroke="rgb(0,0,255)"
       stroke-width="0.20"
       id="path1685" />
    <path
       d="M 101.800 108.700 H 98.900 C 98.800 108.700 98.900 108.800 98.900 108.700 V 105.900 C 98.900 105.800 98.800 105.900 98.900 105.900 H 104.700 C 104.800 105.900 104.700 105.800 104.700 105.900 V 108.700 C 104.700 108.800 104.800 108.700 104.700 108.700 H 101.800 Z"
       stroke="rgb(0,0,255)"
       stroke-width="0.20"
       id="path1687" />
    <path
       d="M 113.800 108.700 H 110.900 C 110.800 108.700 110.900 108.800 110.900 108.700 V 105.900 C 110.900 105.800 110.800 105.900 110.900 105.900 H 116.700 C 116.800 105.900 116.700 105.800 116.700 105.900 V 108.700 C 116.700 108.800 116.800 108.700 116.700 108.700 H 113.800 Z"
       stroke="rgb(0,0,255)"
       stroke-width="0.20"
       id="path1689" />
    <text
       alignment-baseline="hanging"
       font-size="4px"
       style="font-family: sans-serif ; font-weight: normal; font-style: normal; fill: rgb(255,0,0)"
       text-anchor="middle"
       transform="matrix( 1.000 0.000 0.000 1.000 101.800 84.900 )"
       id="text1691" />
    <path
       d="M 79.800 111.900 H 123.800 C 123.855 111.900 123.900 111.855 123.900 111.800 V 101.900 C 123.900 101.800 123.800 101.900 123.900 101.900 H 126.800 C 126.855 101.900 126.900 101.855 126.900 101.800 V 95.800 C 126.900 95.745 126.855 95.700 126.800 95.700 H 123.900 C 123.800 95.700 123.900 95.800 123.900 95.700 V 89.900 C 123.900 89.800 123.800 89.900 123.900 89.900 H 126.800 C 126.855 89.900 126.900 89.855 126.900 89.800 V 83.800 C 126.900 83.745 126.855 83.700 126.800 83.700 H 123.900 C 123.800 83.700 123.900 83.800 123.900 83.700 V 77.900 C 123.900 77.800 123.800 77.900 123.900 77.900 H 126.800 C 126.855 77.900 126.900 77.855 126.900 77.800 V 71.800 C 126.900 71.745 126.855 71.700 126.800 71.700 H 123.900 C 123.800 71.700 123.900 71.800 123.900 71.700 V 61.800 C 123.900 61.745 123.855 61.700 123.800 61.700 H 79.800 C 79.745 61.700 79.700 61.745 79.700 61.800 V 71.700 C 79.700 71.800 79.800 71.700 79.700 71.700 H 76.800 C 76.745 71.700 76.700 71.745 76.700 71.800 V 77.800 C 76.700 77.855 76.745 77.900 76.800 77.900 H 79.700 C 79.800 77.900 79.700 77.800 79.700 77.900 V 83.700 C 79.700 83.800 79.800 83.700 79.700 83.700 H 76.800 C 76.745 83.700 76.700 83.745 76.700 83.800 V 89.800 C 76.700 89.855 76.745 89.900 76.800 89.900 H 79.700 C 79.800 89.900 79.700 89.800 79.700 89.900 V 95.700 C 79.700 95.800 79.800 95.700 79.700 95.700 H 76.800 C 76.745 95.700 76.700 95.745 76.700 95.800 V 101.800 C 76.700 101.855 76.745 101.900 76.800 101.900 H 79.700 C 79.800 101.900 79.700 101.800 79.700 101.900 V 111.800 C 79.700 111.855 79.745 111.900 79.800 111.900"
       stroke="rgb(0,0,0)"
       stroke-width="0.20"
       id="path1693" />
  </g>
  <ellipse
     style="fill:none;stroke:#000000;stroke-width:0.3"
     id="path1702"
     cx="42.599998"
     cy="70.266388"
     rx="11.317494"
     ry="4.9873705" />
  <text
     xml:space="preserve"
     id="text1704"
     style="font-style:normal;font-weight:normal;font-size:4.23332999999999959px;line-height:1.25;font-family:sans-serif;white-space:pre;shape-inside:url(#rect1706);fill:#000000;fill-opacity:1;stroke:none;"
     x="15.961802"
     y="0"><tspan
       x="29.392624"
       y="126.62782"><tspan
         style="text-align:center;text-anchor:middle">large organizer
</tspan></tspan><tspan
       x="39.27315"
       y="131.91948"><tspan
         style="text-align:center;text-anchor:middle">single</tspan></tspan></text>
  <text
     xml:space="preserve"
     id="text1716"
     style="fill:black;fill-opacity:1;line-height:1.25;stroke:none;font-family:sans-serif;font-style:normal;font-weight:normal;font-size:10.58333329000000056px;white-space:pre;shape-inside:url(#rect1718);" />
</svg>
