<?xml version="1.0" encoding="UTF-8" standalone="no"?>
<svg
   xmlns:dc="http://purl.org/dc/elements/1.1/"
   xmlns:cc="http://creativecommons.org/ns#"
   xmlns:rdf="http://www.w3.org/1999/02/22-rdf-syntax-ns#"
   xmlns:svg="http://www.w3.org/2000/svg"
   xmlns="http://www.w3.org/2000/svg"
   xmlns:sodipodi="http://sodipodi.sourceforge.net/DTD/sodipodi-0.dtd"
   xmlns:inkscape="http://www.inkscape.org/namespaces/inkscape"
   viewBox="0 0 611.99846 792.00494"
   id="templatemaker-shallowbox"
   width="8.5in"
   height="11in"
   version="1.1"
   sodipodi:docname="paperboard_dice_box.svg"
   inkscape:version="1.0.2 (e86c8708, 2021-01-15)">
  <metadata
     id="metadata870">
    <rdf:RDF>
      <cc:Work
         rdf:about="">
        <dc:format>image/svg+xml</dc:format>
        <dc:type
           rdf:resource="http://purl.org/dc/dcmitype/StillImage" />
        <dc:title>Shallow Box</dc:title>
      </cc:Work>
    </rdf:RDF>
  </metadata>
  <sodipodi:namedview
     pagecolor="#ffffff"
     bordercolor="#666666"
     borderopacity="1"
     objecttolerance="10"
     gridtolerance="10"
     guidetolerance="10"
     inkscape:pageopacity="0"
     inkscape:pageshadow="2"
     inkscape:window-width="1725"
     inkscape:window-height="1263"
     id="namedview868"
     showgrid="false"
     units="in"
     inkscape:zoom="0.96991895"
     inkscape:cx="313.70079"
     inkscape:cy="510.86743"
     inkscape:window-x="2582"
     inkscape:window-y="42"
     inkscape:window-maximized="0"
     inkscape:current-layer="templatemaker-shallowbox" />
  <title
     id="title833">Shallow Box</title>
  <defs
     id="defs837">
    <rect
       x="362.65875"
       y="33.250408"
       width="137.64122"
       height="48.715714"
       id="rect1065" />
    <style
       type="text/css"
       id="style835">
		text{  font-family:  -apple-system, BlinkMacSystemFont, &quot;Segoe UI&quot;, Roboto, Helvetica, Arial, sans-serif, &quot;Segoe UI Symbol&quot;; font-weight: 400; }
</style>
  </defs>
  <g
     id="page-fold"
     class="fold"
     fill="none"
     stroke="#00adee"
     stroke-width="0.75"
     stroke-dasharray="2"
     transform="rotate(90,282.44918,275.72213)"
     style="fill:none;fill-opacity:1;stroke:#00005a;stroke-opacity:1">
    <path
       id="page-fold-inner-rect-rectangle-1"
       d="M 235.28,491.46 H 351.5 V 304.38 H 119.06 v 187.08 h 116.22"
       style="fill:none;fill-opacity:1;stroke:#00005a;stroke-opacity:1" />
    <path
       id="page-fold-hor"
       d="M 119.06,256.19 H 351.5"
       style="fill:none;fill-opacity:1;stroke:#00005a;stroke-opacity:1" />
    <path
       id="page-fold-outline-flap-1"
       d="m 119.06,256.19 v 48.19"
       style="fill:none;fill-opacity:1;stroke:#00005a;stroke-opacity:1" />
    <path
       id="page-fold-fold"
       d="M 70.87,304.38 V 490.05"
       style="fill:none;fill-opacity:1;stroke:#00005a;stroke-opacity:1" />
    <path
       id="page-fold-outline-flap-2"
       d="m 119.06,491.46 v 48.19"
       style="fill:none;fill-opacity:1;stroke:#00005a;stroke-opacity:1" />
    <path
       id="page-fold-outline-flap-3"
       d="M 351.5,539.65 V 491.46"
       style="fill:none;fill-opacity:1;stroke:#00005a;stroke-opacity:1" />
    <path
       id="page-fold-outline-fold"
       d="M 399.69,491.46 V 304.38"
       style="fill:none;fill-opacity:1;stroke:#00005a;stroke-opacity:1" />
    <path
       id="page-fold-outline-flap-4"
       d="M 351.5,304.38 V 256.19"
       style="fill:none;fill-opacity:1;stroke:#00005a;stroke-opacity:1" />
    <path
       id="page-fold-anonymous-path-10"
       d="M 334.49,71.94 H 136.06"
       style="fill:none;fill-opacity:1;stroke:#00005a;stroke-opacity:1" />
  </g>
  <g
     id="page-cut"
     class="cut"
     fill="none"
     stroke="#d41a5a"
     stroke-width="2"
     transform="rotate(90,282.44918,275.72213)"
     style="fill:none;fill-opacity:1;stroke:#00005a;stroke-opacity:1">
    <path
       id="page-cut-outline"
       d="m 119.06,69.1 v 187.09 l -85.04,7.44 v 33.31 l 85.04,7.44 H 70.87 l -8.51,8.5 -34.01,2.98 v 161.68 l 25.51,6.84 5.67,5.67 h 11.34 v 1.41 h 48.19 l -85.04,7.44 v 33.31 l 85.04,7.44 h 94.96 v 0 a 5.31,5.31 0 0 0 5.31,-5.31 v 0 0 a 15.94,15.94 0 0 1 15.95,-15.95 v 0 a 15.94,15.94 0 0 1 15.94,15.95 v 0 0 a 5.31,5.31 0 0 0 5.32,5.31 v 0 h 94.96 l 85.04,-7.44 V 498.9 l -85.04,-7.44 h 48.19 v -1.41 h 11.33 l 5.67,-5.67 25.52,-6.84 V 315.86 l -34.02,-2.98 -8.5,-8.5 H 351.5 l 85.04,-7.44 V 263.63 L 351.5,256.19 V 69.1 h -14.18 l -2.83,2.84"
       style="fill:none;fill-opacity:1;stroke:#00005a;stroke-opacity:1" />
    <path
       id="page-cut-outline-slit2"
       d="M 136.06,71.94 133.23,69.1 H 119.06"
       style="fill:none;fill-opacity:1;stroke:#00005a;stroke-opacity:1" />
    <path
       id="page-cut-outline-tuck"
       d="m 350.08,69.1 v 0 A 41.1,41.1 0 0 0 308.98,28 h -147.4 a 41.1,41.1 0 0 0 -41.11,41.1 v 0"
       style="fill:none;fill-opacity:1;stroke:#00005a;stroke-opacity:1" />
  </g>
  <g
     id="page-labels"
     class="labels"
     fill="#75777a"
     stroke="none"
     transform="rotate(90,282.44918,275.72213)"
     style="fill:none;fill-opacity:1;stroke:#00005a;stroke-opacity:1">
    <text
       dominant-baseline="middle"
       text-anchor="middle"
       font-family="sans-serif"
       font-size="11.3px"
       text-decoration="none"
       transform="rotate(90,-168.84,228.37)"
       id="text861"
       style="text-decoration:none;text-decoration-line:none;fill:none;fill-opacity:1;stroke:#00005a;stroke-opacity:1" />
    <text
       dominant-baseline="middle"
       text-anchor="middle"
       font-family="sans-serif"
       font-size="11.3px"
       text-decoration="none"
       transform="rotate(-90,404.47,-6.55)"
       id="text863"
       style="text-decoration:none;text-decoration-line:none;fill:none;fill-opacity:1;stroke:#00005a;stroke-opacity:1" />
  </g>
  <text
     x="-744.2016"
     y="37.912113"
     id="text841-0"
     style="font-size:10px;fill:none;fill-opacity:1;stroke:#00005a;stroke-opacity:1;"
     transform="rotate(-90)"><tspan
   font-weight="600"
   id="tspan839-2"
   style="fill:none;fill-opacity:1;stroke:#00005a;stroke-opacity:1;">Shallow Box</tspan>82×66×17 (mm)</text>
  <text
     x="-746.52142"
     y="54.371964"
     id="text843-4"
     style="font-size:10px;fill:none;fill-opacity:1;stroke:#00005a;stroke-opacity:1;"
     transform="rotate(-90)">templatemaker.nl (C) Please, refer to the very permissive license!</text>
  <g
     id="page-fold-8"
     class="fold"
     fill="none"
     stroke="#00adee"
     stroke-width="0.75"
     stroke-dasharray="2"
     transform="rotate(-90,427.14092,374.01795)"
     style="fill:none;fill-opacity:1;stroke:#00005a;stroke-opacity:1">
    <path
       id="page-fold-inner-rect-rectangle-1-3"
       d="M 235.28,491.46 H 351.5 V 304.38 H 119.06 v 187.08 h 116.22"
       style="fill:none;fill-opacity:1;stroke:#00005a;stroke-opacity:1" />
    <path
       id="page-fold-hor-9"
       d="M 119.06,256.19 H 351.5"
       style="fill:none;fill-opacity:1;stroke:#00005a;stroke-opacity:1" />
    <path
       id="page-fold-outline-flap-1-0"
       d="m 119.06,256.19 v 48.19"
       style="fill:none;fill-opacity:1;stroke:#00005a;stroke-opacity:1" />
    <path
       id="page-fold-fold-5"
       d="M 70.87,304.38 V 490.05"
       style="fill:none;fill-opacity:1;stroke:#00005a;stroke-opacity:1" />
    <path
       id="page-fold-outline-flap-2-2"
       d="m 119.06,491.46 v 48.19"
       style="fill:none;fill-opacity:1;stroke:#00005a;stroke-opacity:1" />
    <path
       id="page-fold-outline-flap-3-2"
       d="M 351.5,539.65 V 491.46"
       style="fill:none;fill-opacity:1;stroke:#00005a;stroke-opacity:1" />
    <path
       id="page-fold-outline-fold-7"
       d="M 399.69,491.46 V 304.38"
       style="fill:none;fill-opacity:1;stroke:#00005a;stroke-opacity:1" />
    <path
       id="page-fold-outline-flap-4-3"
       d="M 351.5,304.38 V 256.19"
       style="fill:none;fill-opacity:1;stroke:#00005a;stroke-opacity:1" />
    <path
       id="page-fold-anonymous-path-10-7"
       d="M 334.49,71.94 H 136.06"
       style="fill:none;fill-opacity:1;stroke:#00005a;stroke-opacity:1" />
  </g>
  <g
     id="page-cut-9"
     class="cut"
     fill="none"
     stroke="#d41a5a"
     stroke-width="2"
     transform="rotate(-90,427.14092,374.01795)"
     style="fill:none;fill-opacity:1;stroke:#00005a;stroke-opacity:1">
    <path
       id="page-cut-outline-0"
       d="m 119.06,69.1 v 187.09 l -85.04,7.44 v 33.31 l 85.04,7.44 H 70.87 l -8.51,8.5 -34.01,2.98 v 161.68 l 25.51,6.84 5.67,5.67 h 11.34 v 1.41 h 48.19 l -85.04,7.44 v 33.31 l 85.04,7.44 h 94.96 v 0 a 5.31,5.31 0 0 0 5.31,-5.31 v 0 0 a 15.94,15.94 0 0 1 15.95,-15.95 v 0 a 15.94,15.94 0 0 1 15.94,15.95 v 0 0 a 5.31,5.31 0 0 0 5.32,5.31 v 0 h 94.96 l 85.04,-7.44 V 498.9 l -85.04,-7.44 h 48.19 v -1.41 h 11.33 l 5.67,-5.67 25.52,-6.84 V 315.86 l -34.02,-2.98 -8.5,-8.5 H 351.5 l 85.04,-7.44 V 263.63 L 351.5,256.19 V 69.1 h -14.18 l -2.83,2.84"
       style="fill:none;fill-opacity:1;stroke:#00005a;stroke-opacity:1" />
    <path
       id="page-cut-outline-slit2-2"
       d="M 136.06,71.94 133.23,69.1 H 119.06"
       style="fill:none;fill-opacity:1;stroke:#00005a;stroke-opacity:1" />
    <path
       id="page-cut-outline-tuck-3"
       d="m 350.08,69.1 v 0 A 41.1,41.1 0 0 0 308.98,28 h -147.4 a 41.1,41.1 0 0 0 -41.11,41.1 v 0"
       style="fill:none;fill-opacity:1;stroke:#00005a;stroke-opacity:1" />
  </g>
  <g
     id="page-labels-9"
     class="labels"
     fill="#75777a"
     stroke="none"
     transform="rotate(-90,427.14092,374.01795)"
     style="fill:none;fill-opacity:1;stroke:#00005a;stroke-opacity:1">
    <text
       dominant-baseline="middle"
       text-anchor="middle"
       font-family="sans-serif"
       font-size="11.3px"
       text-decoration="none"
       transform="rotate(90,-168.84,228.37)"
       id="text861-9"
       style="text-decoration:none;text-decoration-line:none;fill:none;fill-opacity:1;stroke:#00005a;stroke-opacity:1" />
    <text
       dominant-baseline="middle"
       text-anchor="middle"
       font-family="sans-serif"
       font-size="11.3px"
       text-decoration="none"
       transform="rotate(-90,404.47,-6.55)"
       id="text863-7"
       style="text-decoration:none;text-decoration-line:none;fill:none;fill-opacity:1;stroke:#00005a;stroke-opacity:1" />
  </g>
  <text
     xml:space="preserve"
     id="text1063"
     style="font-style:normal;font-weight:normal;font-size:30.00019999999999953px;line-height:1.25;font-family:sans-serif;white-space:pre;shape-inside:url(#rect1065);fill:#000000;fill-opacity:1;stroke:none;"><tspan
       x="362.6582"
       y="60.620092"><tspan
         style="font-style:normal;font-variant:normal;font-weight:normal;font-stretch:normal;font-size:12.0001px;font-family:sans-serif;-inkscape-font-specification:'sans-serif, Normal';font-variant-ligatures:normal;font-variant-caps:normal;font-variant-numeric:normal;font-variant-east-asian:normal">Fits 20 16mm dice</tspan></tspan></text>
</svg>
