<?xml version="1.0" encoding="UTF-8" standalone="no"?>
<!-- Created with Inkscape (http://www.inkscape.org/) -->

<svg
   xmlns:dc="http://purl.org/dc/elements/1.1/"
   xmlns:cc="http://creativecommons.org/ns#"
   xmlns:rdf="http://www.w3.org/1999/02/22-rdf-syntax-ns#"
   xmlns:svg="http://www.w3.org/2000/svg"
   xmlns="http://www.w3.org/2000/svg"
   xmlns:sodipodi="http://sodipodi.sourceforge.net/DTD/sodipodi-0.dtd"
   xmlns:inkscape="http://www.inkscape.org/namespaces/inkscape"
   id="svg8"
   version="1.1"
   viewBox="0 0 210 297"
   height="297mm"
   width="210mm"
   inkscape:version="0.92.2 5c3e80d, 2017-08-06"
   sodipodi:docname="e.svg">
  <defs
     id="defs2" />
  <sodipodi:namedview
     inkscape:window-maximized="1"
     inkscape:window-y="0"
     inkscape:window-x="0"
     inkscape:window-height="856"
     inkscape:window-width="1440"
     showgrid="false"
     inkscape:current-layer="layer1"
     inkscape:document-units="mm"
     inkscape:cy="823.36533"
     inkscape:cx="282.16782"
     inkscape:zoom="3.3710263"
     inkscape:pageshadow="2"
     inkscape:pageopacity="0.0"
     borderopacity="1.0"
     bordercolor="#666666"
     pagecolor="#ffffff"
     id="base" />
  <metadata
     id="metadata5">
    <rdf:RDF>
      <cc:Work
         rdf:about="">
        <dc:format>image/svg+xml</dc:format>
        <dc:type
           rdf:resource="http://purl.org/dc/dcmitype/StillImage" />
        <dc:title></dc:title>
      </cc:Work>
    </rdf:RDF>
  </metadata>
  <g
     inkscape:label="Layer 1"
     inkscape:groupmode="layer"
     id="layer1"
     style="display:inline">
    <g
       id="g1611"
       style="display:inline">
      <g
         id="g5447">
        <g
           style="display:inline;opacity:1"
           id="g1728">
          <g
             id="g1639"
             transform="translate(7.593663,1.9033212)">
            <g
               id="g1630">
              <g
                 id="flowRoot815"
                 style="font-style:normal;font-variant:normal;font-weight:normal;font-stretch:normal;font-size:40px;line-height:1.25;font-family:STSong;-inkscape-font-specification:STSong;letter-spacing:0px;word-spacing:0px;fill:#000000;fill-opacity:1;stroke:none"
                 transform="matrix(0.89662979,0,0,0.89662979,-132.37523,-193.89175)"
                 aria-label="e">
                <path
                   inkscape:connector-curvature="0"
                   id="path5419"
                   style="font-style:normal;font-variant:normal;font-weight:normal;font-stretch:normal;font-size:18.25533485px;font-family:'Marker Felt';-inkscape-font-specification:'Marker Felt, Normal';font-variant-ligatures:normal;font-variant-caps:normal;font-variant-numeric:normal;font-feature-settings:normal;text-align:start;writing-mode:lr-tb;text-anchor:start"
                   d="m 227.11958,305.71756 q -0.14604,0.69371 -0.98579,1.47869 -0.12778,0.20081 -1.00404,0.5294 -1.00404,0.38336 -1.73426,0.3286 -1.36915,-0.0913 -2.15413,-1.56996 -0.71196,-1.36915 -0.71196,-3.35898 0,-2.15413 0.80324,-3.77886 0.89451,-1.78902 2.39145,-2.00808 0.29208,-0.0365 0.56591,-0.0365 2.17239,0 2.39145,2.66527 0.10953,1.22311 -0.96753,2.66528 -1.16834,1.58822 -2.99388,2.22715 0.20081,0.73022 0.31035,0.94928 0.25557,0.45638 0.6937,0.45638 0.41987,0 0.89451,-0.32859 0.40162,-0.27383 0.54766,-0.52941 0.073,-0.0365 0.14604,-0.40161 0.073,-0.38337 0.38336,-0.54766 0.10954,-0.0548 0.25558,-0.0548 0.43813,0 0.83974,0.43813 0.41988,0.41987 0.3286,0.87625 z m -2.86609,-6.42587 q -0.73021,0 -1.18659,1.04055 -0.60243,1.38741 -0.4929,2.7383 0.858,-0.27383 1.58822,-1.27787 0.73021,-1.00405 0.73021,-1.78902 0,-0.71196 -0.63894,-0.71196 z" />
              </g>
              <path
                 id="path826"
                 d="m 248.38281,272.54883 c -6.62495,-0.14401 -13.672,2.51275 -11.27734,15.41211 2.99855,16.15233 21.32812,27.04297 21.32812,27.04297 0,0 18.32958,-10.89064 21.32813,-27.04297 4.25718,-22.93219 -21.32813,-13.49414 -21.32813,-13.49414 0,0 -4.89804,-1.80596 -10.05078,-1.91797 z"
                 style="fill:none;stroke:#000000;stroke-width:2.48933339;stroke-linecap:butt;stroke-linejoin:round;stroke-miterlimit:4;stroke-dasharray:none;stroke-opacity:1"
                 inkscape:connector-curvature="0"
                 transform="scale(0.26458333)" />
              <path
                 inkscape:connector-curvature="0"
                 id="path833"
                 d="M 68.93336,71.7108 A 0.48299718,0.48299718 0 0 1 68.450363,72.193797 0.48299718,0.48299718 0 0 1 67.967366,71.7108 0.48299718,0.48299718 0 0 1 68.450363,71.227803 0.48299718,0.48299718 0 0 1 68.93336,71.7108 Z"
                 style="opacity:1;fill:none;fill-opacity:1;stroke:#000000;stroke-width:0.3411361;stroke-linecap:butt;stroke-linejoin:round;stroke-miterlimit:4;stroke-dasharray:none;stroke-opacity:1;paint-order:stroke markers fill" />
            </g>
          </g>
        </g>
      </g>
    </g>
  </g>
</svg>
