<?xml version="1.0" encoding="UTF-8" standalone="no"?>
<!-- Created with Inkscape (http://www.inkscape.org/) -->

<svg
   xmlns:dc="http://purl.org/dc/elements/1.1/"
   xmlns:cc="http://creativecommons.org/ns#"
   xmlns:rdf="http://www.w3.org/1999/02/22-rdf-syntax-ns#"
   xmlns:svg="http://www.w3.org/2000/svg"
   xmlns="http://www.w3.org/2000/svg"
   xmlns:sodipodi="http://sodipodi.sourceforge.net/DTD/sodipodi-0.dtd"
   xmlns:inkscape="http://www.inkscape.org/namespaces/inkscape"
   id="svg8"
   version="1.1"
   viewBox="0 0 210 297"
   height="297mm"
   width="210mm"
   inkscape:version="0.92.2 5c3e80d, 2017-08-06"
   sodipodi:docname="e2.svg">
  <defs
     id="defs2" />
  <sodipodi:namedview
     inkscape:window-maximized="1"
     inkscape:window-y="0"
     inkscape:window-x="0"
     inkscape:window-height="856"
     inkscape:window-width="1440"
     showgrid="false"
     inkscape:current-layer="layer1"
     inkscape:document-units="mm"
     inkscape:cy="847.09698"
     inkscape:cx="322.39092"
     inkscape:zoom="53.936421"
     inkscape:pageshadow="2"
     inkscape:pageopacity="0.0"
     borderopacity="1.0"
     bordercolor="#666666"
     pagecolor="#ffffff"
     id="base"
     inkscape:measure-start="329.221,849.945"
     inkscape:measure-end="327.144,850.001" />
  <metadata
     id="metadata5">
    <rdf:RDF>
      <cc:Work
         rdf:about="">
        <dc:format>image/svg+xml</dc:format>
        <dc:type
           rdf:resource="http://purl.org/dc/dcmitype/StillImage" />
        <dc:title></dc:title>
      </cc:Work>
    </rdf:RDF>
  </metadata>
  <g
     inkscape:label="Layer 1"
     inkscape:groupmode="layer"
     id="layer1"
     style="display:inline">
    <path
       style="font-style:normal;font-variant:normal;font-weight:normal;font-stretch:normal;font-size:18.25533485px;line-height:1.25;font-family:'Marker Felt';-inkscape-font-specification:'Marker Felt, Normal';font-variant-ligatures:normal;font-variant-caps:normal;font-variant-numeric:normal;font-feature-settings:normal;text-align:start;letter-spacing:0px;word-spacing:0px;writing-mode:lr-tb;text-anchor:start;fill:none;fill-opacity:1;stroke:#000000;stroke-width:0.07055556;stroke-miterlimit:4;stroke-dasharray:none;stroke-opacity:1"
       d="m 86.747158,71.448146 a 0.48299719,0.48299719 0 0 0 -0.482658,0.482658 0.48299719,0.48299719 0 0 0 0.12609,0.325046 c -0.447267,-0.141779 -1.3184,-0.375658 -2.318202,-0.397393 -0.922954,-0.02006 -1.924236,0.148587 -2.625164,0.839742 -0.700929,0.691155 -1.019546,1.859704 -0.691431,3.627171 0.832477,4.484311 5.79913,7.378877 5.79913,7.378877 a 0.32935097,0.32935097 0 0 0 0.337447,0 c 0,0 4.966652,-2.894566 5.799129,-7.378877 0.291661,-1.571086 0.07924,-2.662013 -0.470773,-3.377057 -0.550013,-0.715042 -1.394973,-0.998485 -2.22467,-1.070219 -0.198556,-0.01717 -0.396523,-0.02318 -0.591695,-0.02067 -0.941012,0.0121 -1.784519,0.221041 -2.274279,0.366903 a 0.48299719,0.48299719 0 0 0 0.100251,-0.293524 0.48299719,0.48299719 0 0 0 -0.483175,-0.482657 z m -2.690275,1.068668 c 0.95373,0.02073 1.884669,0.276098 2.309421,0.408763 -0.84823,0.159917 -1.531234,0.749943 -2.045869,1.77922 -0.48014,0.971184 -0.720371,2.100783 -0.720371,3.388423 0,1.113266 0.188902,2.061707 0.561724,2.849954 -1.181764,-1.181214 -2.399448,-2.808692 -2.757456,-4.737179 -0.305472,-1.645489 -0.0073,-2.535066 0.503846,-3.039089 0.511151,-0.504026 1.318805,-0.668128 2.148705,-0.650092 z m 5.334558,0.0021 c 0.183489,-0.0043 0.367305,-10e-5 0.54777,0.0155 0.721868,0.06241 1.357638,0.291201 1.760101,0.814422 0.40246,0.523219 0.615177,1.394537 0.343648,2.857188 -0.35548,1.914863 -1.558964,3.531698 -2.733167,4.710824 0.09774,-0.170712 0.164778,-0.337362 0.198954,-0.499711 0.05456,-0.272804 -0.04357,-0.534503 -0.294555,-0.785481 -0.240065,-0.261896 -0.491033,-0.392743 -0.752925,-0.392743 -0.08729,0 -0.163447,0.01633 -0.228928,0.04909 -0.185521,0.09821 -0.300014,0.261765 -0.343649,0.490926 -0.04366,0.218245 -0.08763,0.338365 -0.131257,0.360186 -0.08729,0.152773 -0.250857,0.310705 -0.490927,0.474389 -0.283718,0.196417 -0.551039,0.295072 -0.802018,0.295072 -0.261892,0 -0.469416,-0.136475 -0.622183,-0.409276 -0.06548,-0.130945 -0.157986,-0.414621 -0.278019,-0.851112 1.091221,-0.381923 1.985695,-1.04793 2.684073,-1.997294 0.643816,-0.862061 0.93312,-1.658401 0.867648,-2.389519 -0.12202,-1.48459 -0.751332,-2.276964 -1.887225,-2.378149 0.471641,-0.137374 1.307952,-0.344104 2.162659,-0.364318 z m -2.452563,2.13682 c 0.381929,0 0.573093,0.212627 0.573093,0.638204 0,0.469218 -0.218255,1.003861 -0.654741,1.604037 -0.436491,0.600167 -0.91133,0.981982 -1.424204,1.145667 -0.06547,-0.807501 0.08225,-1.62582 0.442352,-2.455148 0.272801,-0.621993 0.627014,-0.93276 1.0635,-0.93276 z m 1.017508,7.469312 c -0.648803,0.514017 -1.138436,0.82114 -1.233516,0.880049 -0.06952,-0.04309 -0.363003,-0.231661 -0.758092,-0.520382 0.0677,0.0108 0.134879,0.02322 0.205155,0.0279 0.436491,0.03273 0.954775,-0.06592 1.554943,-0.295071 0.08641,-0.0324 0.157276,-0.06218 0.23151,-0.0925 z"
       id="path5419"
       inkscape:connector-curvature="0" />
    <circle
       style="opacity:1;fill:none;fill-opacity:1;stroke:#000000;stroke-width:0.07055556;stroke-linecap:butt;stroke-linejoin:round;stroke-miterlimit:4;stroke-dasharray:none;stroke-opacity:1;paint-order:stroke markers fill"
       id="path917"
       cx="86.747719"
       cy="71.912277"
       r="0.26924545" />
  </g>
</svg>
