<?xml version="1.0" encoding="UTF-8" standalone="no"?>
<!-- Created with Inkscape (http://www.inkscape.org/) -->

<svg
   xmlns:dc="http://purl.org/dc/elements/1.1/"
   xmlns:cc="http://creativecommons.org/ns#"
   xmlns:rdf="http://www.w3.org/1999/02/22-rdf-syntax-ns#"
   xmlns:svg="http://www.w3.org/2000/svg"
   xmlns="http://www.w3.org/2000/svg"
   xmlns:xlink="http://www.w3.org/1999/xlink"
   xmlns:sodipodi="http://sodipodi.sourceforge.net/DTD/sodipodi-0.dtd"
   xmlns:inkscape="http://www.inkscape.org/namespaces/inkscape"
   width="20in"
   height="12in"
   viewBox="0 0 500 300"
   version="1.1"
   id="svg8"
   inkscape:version="0.92.2 5c3e80d, 2017-08-06"
   sodipodi:docname="p.svg">
  <defs
     id="defs2" />
  <sodipodi:namedview
     id="base"
     pagecolor="#ffffff"
     bordercolor="#666666"
     borderopacity="1.0"
     inkscape:pageopacity="0.0"
     inkscape:pageshadow="2"
     inkscape:zoom="4.5825477"
     inkscape:cx="503.03212"
     inkscape:cy="862.34092"
     inkscape:document-units="in"
     inkscape:current-layer="layer1"
     showgrid="true"
     showguides="true"
     units="in"
     scale-x="1"
     width="20in"
     inkscape:measure-start="184.32,829.44"
     inkscape:measure-end="276.48,829.44"
     inkscape:snap-global="false"
     inkscape:window-width="1440"
     inkscape:window-height="856"
     inkscape:window-x="0"
     inkscape:window-y="0"
     inkscape:window-maximized="1">
    <inkscape:grid
       type="xygrid"
       id="grid819"
       units="in"
       spacingx="3"
       spacingy="3"
       color="#e93fff"
       opacity="0.1254902"
       dotted="false"
       empspacing="8" />
  </sodipodi:namedview>
  <metadata
     id="metadata5">
    <rdf:RDF>
      <cc:Work
         rdf:about="">
        <dc:format>image/svg+xml</dc:format>
        <dc:type
           rdf:resource="http://purl.org/dc/dcmitype/StillImage" />
        <dc:title></dc:title>
      </cc:Work>
    </rdf:RDF>
  </metadata>
  <g
     inkscape:label="Layer 1"
     inkscape:groupmode="layer"
     id="layer1"
     transform="translate(0,7.8000069)">
    <path
       style="fill:none;stroke:#000000;stroke-width:0.26041666px;stroke-linecap:butt;stroke-linejoin:miter;stroke-opacity:1"
       d="M 48.000001,76.199994 V 100.19999 L 58.704838,89.791175 c 9,-9 -0.392003,-20.145502 -10.704837,-13.591181 z"
       id="path821"
       inkscape:connector-curvature="0"
       sodipodi:nodetypes="cccc" />
    <use
       x="0"
       y="0"
       xlink:href="#path821"
       id="use823"
       transform="matrix(-1,0,0,1,96.000001,3.1e-6)"
       width="100%"
       height="100%" />
    <path
       style="fill:none;stroke:#000000;stroke-width:2.75590539;stroke-linecap:butt;stroke-linejoin:miter;stroke-miterlimit:4;stroke-dasharray:none;stroke-opacity:1"
       d="M 76.845686,73.294864 C 69.500181,73.149369 64.992928,81.6839 72.164798,88.855776 l 10.70455,10.408528 10.705057,-10.409036 c 8.999995,-9 -0.392221,-20.145326 -10.705057,-13.591003 -2.094795,-1.331346 -4.151276,-1.932315 -6.023662,-1.969401 z"
       id="path821-7"
       inkscape:connector-curvature="0" />
    <circle
       style="opacity:1;fill:none;fill-opacity:1;stroke:#000000;stroke-width:1.08847141;stroke-linecap:butt;stroke-linejoin:round;stroke-miterlimit:4;stroke-dasharray:none;stroke-opacity:1;paint-order:stroke markers fill"
       id="path854"
       cx="82.85511"
       cy="71.707657"
       r="1.6339767" />
    <text
       xml:space="preserve"
       style="font-style:italic;font-variant:normal;font-weight:bold;font-stretch:normal;font-size:27.40537453px;line-height:1.25;font-family:'Courier 10 Pitch';-inkscape-font-specification:'Courier 10 Pitch, Bold Italic';font-variant-ligatures:normal;font-variant-caps:normal;font-variant-numeric:normal;font-feature-settings:normal;text-align:start;letter-spacing:0px;word-spacing:0px;writing-mode:lr-tb;text-anchor:start;fill:#000000;fill-opacity:1;stroke:none;stroke-width:1.14189219"
       x="79.272652"
       y="92.33493"
       id="text858"
       transform="scale(0.95884339,1.0429232)"><tspan
         sodipodi:role="line"
         id="tspan856"
         x="79.272652"
         y="92.33493"
         style="font-style:normal;font-variant:normal;font-weight:bold;font-stretch:normal;font-size:27.40537453px;font-family:Menlo;-inkscape-font-specification:'Menlo, Bold';font-variant-ligatures:normal;font-variant-caps:normal;font-variant-numeric:normal;font-feature-settings:normal;text-align:start;writing-mode:lr-tb;text-anchor:start;stroke-width:1.14189219">P</tspan></text>
    <path
       style="fill:none;stroke:#000000;stroke-width:2.75590539;stroke-linecap:butt;stroke-linejoin:miter;stroke-miterlimit:4;stroke-dasharray:none;stroke-opacity:1"
       d="m 99.584601,53.136527 c -7.34551,-0.1455 -11.85276,8.38903 -4.68089,15.56091 l 10.704549,10.40853 10.70505,-10.40904 c 9.00001,-9 -0.39222,-20.14532 -10.70505,-13.591 -2.0948,-1.33135 -4.15128,-1.93232 -6.023659,-1.9694 z"
       id="path821-7-8"
       inkscape:connector-curvature="0" />
    <text
       xml:space="preserve"
       style="font-style:italic;font-variant:normal;font-weight:bold;font-stretch:normal;font-size:27.40537453px;line-height:1.25;font-family:'Courier 10 Pitch';-inkscape-font-specification:'Courier 10 Pitch, Bold Italic';font-variant-ligatures:normal;font-variant-caps:normal;font-variant-numeric:normal;font-feature-settings:normal;text-align:start;letter-spacing:0px;word-spacing:0px;writing-mode:lr-tb;text-anchor:start;fill:#000000;fill-opacity:1;stroke:none;stroke-width:1.14189219"
       x="142.57417"
       y="79.905952"
       id="text858-1"
       transform="scale(0.95884338,1.0429232)"><tspan
         sodipodi:role="line"
         id="tspan856-9"
         x="142.57417"
         y="79.905952"
         style="font-style:normal;font-variant:normal;font-weight:bold;font-stretch:normal;font-size:27.40537453px;font-family:Menlo;-inkscape-font-specification:'Menlo, Bold';font-variant-ligatures:normal;font-variant-caps:normal;font-variant-numeric:normal;font-feature-settings:normal;text-align:start;writing-mode:lr-tb;text-anchor:start;stroke-width:1.14189219">P</tspan></text>
    <circle
       style="opacity:1;fill:none;fill-opacity:1;stroke:#000000;stroke-width:1.08847141;stroke-linecap:butt;stroke-linejoin:round;stroke-miterlimit:4;stroke-dasharray:none;stroke-opacity:1;paint-order:stroke markers fill"
       id="path854-9"
       cx="53.872868"
       cy="114.89687"
       r="1.6339767" />
    <g
       id="g972"
       transform="translate(21.237351,-5.3559211)">
      <g
         id="g965">
        <g
           id="g978">
          <g
             id="g984">
            <path
               style="color:#000000;font-style:normal;font-variant:normal;font-weight:normal;font-stretch:normal;font-size:medium;line-height:normal;font-family:sans-serif;font-variant-ligatures:normal;font-variant-position:normal;font-variant-caps:normal;font-variant-numeric:normal;font-variant-alternates:normal;font-feature-settings:normal;text-indent:0;text-align:start;text-decoration:none;text-decoration-line:none;text-decoration-style:solid;text-decoration-color:#000000;letter-spacing:normal;word-spacing:normal;text-transform:none;writing-mode:lr-tb;direction:ltr;text-orientation:mixed;dominant-baseline:auto;baseline-shift:baseline;text-anchor:start;white-space:normal;shape-padding:0;clip-rule:nonzero;display:inline;overflow:visible;visibility:visible;opacity:1;isolation:auto;mix-blend-mode:normal;color-interpolation:sRGB;color-interpolation-filters:linearRGB;solid-color:#000000;solid-opacity:1;vector-effect:none;fill:none;fill-opacity:1;fill-rule:nonzero;stroke:#000000;stroke-width:0.26666668;stroke-linecap:butt;stroke-linejoin:miter;stroke-miterlimit:4;stroke-dasharray:none;stroke-dashoffset:0;stroke-opacity:1;color-rendering:auto;image-rendering:auto;shape-rendering:auto;text-rendering:auto;enable-background:accumulate"
               d="m 469.70312,267.85156 c -4.59475,0 -8.36324,3.76854 -8.36328,8.36328 0,1.60188 0.46653,3.09682 1.25782,4.37305 -5.41088,-2.21869 -10.76021,-3.46916 -15.86719,-3.57031 -16.17289,-0.32033 -29.74488,9.11329 -34.94336,22.74609 -5.19852,13.6328 -1.77896,31.13899 13.125,46.04297 l 0.0234,0.0234 44.82031,43.58203 44.82812,-43.58203 0.0215,-0.0234 c 18.70299,-18.703 18.99847,-41.57061 7.62109,-55.57422 -9.67925,-11.91355 -27.321,-16.56444 -45.64648,-9.28515 0.93394,-1.34912 1.48437,-2.97902 1.48437,-4.73243 0,-4.59474 -3.76657,-8.36328 -8.36133,-8.36328 z m 0,4.17774 c 2.33584,0 4.1836,1.8497 4.1836,4.18554 0,2.33585 -1.84776,4.18555 -4.1836,4.18555 -2.33583,0 -4.18554,-1.8497 -4.18554,-4.18555 0,-2.33584 1.84971,-4.18554 4.18554,-4.18554 z m 23.26954,15.44726 c 8.97979,-0.21713 16.33893,3.64462 21.03906,9.42969 7.91462,9.74154 8.96341,25.55404 -6.88477,41.4082 l -37.37109,36.33789 -4.12305,-4.00976 h 0.30078 v -29.95703 h 5.41993 c 10.14966,0 17.44262,-1.96455 21.87695,-5.89453 4.46717,-3.92999 6.69922,-10.30626 6.69922,-19.13086 0,-8.8246 -2.23205,-15.20283 -6.69922,-19.13282 -3.28655,-2.91274 -8.14814,-4.74411 -14.57422,-5.49804 5.08207,-2.34079 9.89604,-3.44585 14.31641,-3.55274 z m -46.45313,0.12305 c 4.12857,0.0818 8.62585,1.02348 13.35547,3.0332 h -8.47656 v 66.16992 l -19.00782,-18.48046 -0.008,-0.008 C 419.75413,325.681 418.05819,313.03368 421.6795,303.53693 c 3.62212,-9.49883 12.80597,-16.17586 24.83984,-15.9375 z m 19.41406,16.32422 h 5.96094 c 4.76279,0 8.09684,0.87437 10.00195,2.625 1.93797,1.75063 2.90821,4.78834 2.90821,9.11133 0,4.32298 -0.97024,7.35874 -2.90821,9.10937 -1.90511,1.75063 -5.23916,2.62695 -10.00195,2.62695 h -5.96094 z"
               transform="matrix(0.26041667,0,0,0.26041667,0,-7.8000069)"
               id="path821-7-4"
               inkscape:connector-curvature="0" />
            <g
               aria-label="P"
               transform="scale(0.95884338,1.0429232)"
               style="font-style:italic;font-variant:normal;font-weight:bold;font-stretch:normal;font-size:27.40537453px;line-height:1.25;font-family:'Courier 10 Pitch';-inkscape-font-specification:'Courier 10 Pitch, Bold Italic';font-variant-ligatures:normal;font-variant-caps:normal;font-variant-numeric:normal;font-feature-settings:normal;text-align:start;letter-spacing:0px;word-spacing:0px;writing-mode:lr-tb;text-anchor:start;fill:#000000;fill-opacity:1;stroke:none;stroke-width:1.14189219"
               id="text858-5" />
          </g>
        </g>
      </g>
    </g>
  </g>
</svg>
