<?xml version="1.0" encoding="UTF-8" standalone="no"?>
<!-- Created with Inkscape (http://www.inkscape.org/) -->

<svg
   xmlns:dc="http://purl.org/dc/elements/1.1/"
   xmlns:cc="http://creativecommons.org/ns#"
   xmlns:rdf="http://www.w3.org/1999/02/22-rdf-syntax-ns#"
   xmlns:svg="http://www.w3.org/2000/svg"
   xmlns="http://www.w3.org/2000/svg"
   xmlns:sodipodi="http://sodipodi.sourceforge.net/DTD/sodipodi-0.dtd"
   xmlns:inkscape="http://www.inkscape.org/namespaces/inkscape"
   width="20in"
   height="12in"
   viewBox="0 0 500 300"
   version="1.1"
   id="svg8"
   inkscape:version="0.92.2 5c3e80d, 2017-08-06"
   sodipodi:docname="p2.svg">
  <defs
     id="defs2" />
  <sodipodi:namedview
     id="base"
     pagecolor="#ffffff"
     bordercolor="#666666"
     borderopacity="1.0"
     inkscape:pageopacity="0.0"
     inkscape:pageshadow="2"
     inkscape:zoom="1.145637"
     inkscape:cx="674.16912"
     inkscape:cy="832.63631"
     inkscape:document-units="in"
     inkscape:current-layer="layer1"
     showgrid="true"
     showguides="true"
     units="in"
     scale-x="1"
     width="20in"
     inkscape:measure-start="184.32,829.44"
     inkscape:measure-end="276.48,829.44"
     inkscape:snap-global="false"
     inkscape:window-width="1440"
     inkscape:window-height="856"
     inkscape:window-x="0"
     inkscape:window-y="0"
     inkscape:window-maximized="1">
    <inkscape:grid
       type="xygrid"
       id="grid819"
       units="in"
       spacingx="3"
       spacingy="3"
       color="#e93fff"
       opacity="0.1254902"
       dotted="false"
       empspacing="8" />
  </sodipodi:namedview>
  <metadata
     id="metadata5">
    <rdf:RDF>
      <cc:Work
         rdf:about="">
        <dc:format>image/svg+xml</dc:format>
        <dc:type
           rdf:resource="http://purl.org/dc/dcmitype/StillImage" />
        <dc:title />
      </cc:Work>
    </rdf:RDF>
  </metadata>
  <g
     inkscape:label="Layer 1"
     inkscape:groupmode="layer"
     id="layer1"
     transform="translate(0,7.8000069)">
    <path
       style="color:#000000;font-style:normal;font-variant:normal;font-weight:normal;font-stretch:normal;font-size:medium;line-height:normal;font-family:sans-serif;font-variant-ligatures:normal;font-variant-position:normal;font-variant-caps:normal;font-variant-numeric:normal;font-variant-alternates:normal;font-feature-settings:normal;text-indent:0;text-align:start;text-decoration:none;text-decoration-line:none;text-decoration-style:solid;text-decoration-color:#000000;letter-spacing:normal;word-spacing:normal;text-transform:none;writing-mode:lr-tb;direction:ltr;text-orientation:mixed;dominant-baseline:auto;baseline-shift:baseline;text-anchor:start;white-space:normal;shape-padding:0;clip-rule:nonzero;display:inline;overflow:visible;visibility:visible;opacity:1;isolation:auto;mix-blend-mode:normal;color-interpolation:sRGB;color-interpolation-filters:linearRGB;solid-color:#000000;solid-opacity:1;vector-effect:none;fill:none;fill-opacity:1;fill-rule:nonzero;stroke:#000000;stroke-width:0.26666667;stroke-linecap:butt;stroke-linejoin:miter;stroke-miterlimit:4;stroke-dasharray:none;stroke-dashoffset:0;stroke-opacity:1;color-rendering:auto;image-rendering:auto;shape-rendering:auto;text-rendering:auto;enable-background:accumulate"
       d="M 998.98438 80.089844 C 991.30672 80.089844 985.00586 86.392643 985.00586 94.070312 C 985.00586 95.29375 985.18034 96.4754 985.48047 97.609375 C 982.29409 96.84749 979.1425 96.412534 976.06445 96.351562 C 959.00468 96.013643 944.4953 106.03603 938.95898 120.55469 C 933.4227 135.07334 937.2038 153.61785 952.59375 169.00781 L 952.63281 169.04492 L 999.04688 214.17383 L 1045.459 169.04492 L 1045.498 169.00781 C 1064.8109 149.695 1065.3959 125.319 1053.2773 110.40234 C 1044.2981 99.349916 1028.8819 94.116427 1012.4199 97.898438 C 1012.7716 96.678363 1012.9727 95.397697 1012.9727 94.070312 C 1012.9727 86.392643 1006.6621 80.089844 998.98438 80.089844 z M 998.98438 87.650391 C 1002.5768 87.650391 1005.4121 90.477858 1005.4121 94.070312 C 1005.4121 97.662763 1002.5768 100.49609 998.98438 100.49609 C 995.39194 100.49609 992.56445 97.662763 992.56445 94.070312 C 992.56445 90.477858 995.39194 87.650391 998.98438 87.650391 z M 1022.627 111.28125 C 1030.8 111.16354 1037.3395 114.76159 1041.543 119.93555 C 1048.7165 128.76555 1050.0527 143.06768 1034.8066 158.31445 L 1034.8066 158.31641 L 1020.9219 171.81641 C 1021.2241 169.84187 1020.4751 167.94189 1018.6523 166.11914 C 1016.8317 164.13294 1014.9296 163.14062 1012.9434 163.14062 C 1012.2813 163.14062 1011.7016 163.26344 1011.2051 163.51172 C 1009.7982 164.25655 1008.9287 165.4984 1008.5977 167.23633 C 1008.2666 168.8915 1007.9365 169.80128 1007.6055 169.9668 C 1006.9434 171.12542 1005.7015 172.32698 1003.8809 173.56836 C 1001.7291 175.05801 999.70227 175.80273 997.79883 175.80273 C 995.81262 175.80273 994.2387 174.76818 993.08008 172.69922 C 992.58353 171.70612 991.88105 169.55448 990.9707 166.24414 C 999.24655 163.34759 1006.0316 158.29765 1011.3281 151.09766 C 1016.2109 144.55973 1018.4048 138.51943 1017.9082 132.97461 C 1017.1148 123.32135 1013.4866 117.53669 1007.041 115.5957 C 1012.0302 113.00612 1016.7083 111.67185 1020.9707 111.35547 C 1021.5299 111.31396 1022.0821 111.2891 1022.627 111.28125 z M 975.76367 111.46484 C 980.8595 111.56579 986.63644 113.05048 992.83984 116.57227 C 988.31858 118.669 984.54845 122.72732 981.53516 128.75391 C 977.89378 136.11941 976.07422 144.68371 976.07422 154.44922 C 976.07422 161.95257 977.2083 168.46885 979.44141 174.02539 L 963.28516 158.31641 L 963.2832 158.31445 C 951.13509 146.16517 949.79982 134.55388 953.08398 125.94141 C 956.3683 117.32842 964.61673 111.24405 975.76367 111.46484 z M 1001.3984 128.38086 C 1004.295 128.38086 1005.7422 129.99507 1005.7422 133.22266 C 1005.7422 136.78127 1004.0877 140.83695 1000.7773 145.38867 C 997.467 149.94039 993.86621 152.83675 989.97656 154.07812 C 989.48001 147.95399 990.59905 141.74668 993.33008 135.45703 C 995.39904 130.7398 998.0881 128.38086 1001.3984 128.38086 z M 1006.1719 186.16016 L 999.04688 193.08789 L 993.50391 187.69922 C 994.1744 187.82725 994.85982 187.91982 995.56445 187.9668 C 998.5824 188.19314 1002.1222 187.58464 1006.1719 186.16016 z "
       transform="matrix(0.26041667,0,0,0.26041667,0,-7.8000069)"
       id="path821" />
    <path
       style="fill:none;stroke:#000000;stroke-width:2.75590539;stroke-linecap:butt;stroke-linejoin:miter;stroke-miterlimit:4;stroke-dasharray:none;stroke-opacity:1"
       d="M 76.845686,73.294864 C 69.500181,73.149369 64.992928,81.6839 72.164798,88.855776 l 10.70455,10.408528 10.705057,-10.409036 c 8.999995,-9 -0.392221,-20.145326 -10.705057,-13.591003 -2.094795,-1.331346 -4.151276,-1.932315 -6.023662,-1.969401 z"
       id="path821-7"
       inkscape:connector-curvature="0" />
    <circle
       style="opacity:1;fill:none;fill-opacity:1;stroke:#000000;stroke-width:1.08847141;stroke-linecap:butt;stroke-linejoin:round;stroke-miterlimit:4;stroke-dasharray:none;stroke-opacity:1;paint-order:stroke markers fill"
       id="path854"
       cx="82.85511"
       cy="71.707657"
       r="1.6339767" />
    <text
       xml:space="preserve"
       style="font-style:italic;font-variant:normal;font-weight:bold;font-stretch:normal;font-size:27.40537453px;line-height:1.25;font-family:'Courier 10 Pitch';-inkscape-font-specification:'Courier 10 Pitch, Bold Italic';font-variant-ligatures:normal;font-variant-caps:normal;font-variant-numeric:normal;font-feature-settings:normal;text-align:start;letter-spacing:0px;word-spacing:0px;writing-mode:lr-tb;text-anchor:start;fill:#000000;fill-opacity:1;stroke:none;stroke-width:1.14189219"
       x="79.272652"
       y="92.33493"
       id="text858"
       transform="scale(0.95884339,1.0429232)"><tspan
         sodipodi:role="line"
         id="tspan856"
         x="79.272652"
         y="92.33493"
         style="font-style:normal;font-variant:normal;font-weight:bold;font-stretch:normal;font-size:27.40537453px;font-family:Menlo;-inkscape-font-specification:'Menlo, Bold';font-variant-ligatures:normal;font-variant-caps:normal;font-variant-numeric:normal;font-feature-settings:normal;text-align:start;writing-mode:lr-tb;text-anchor:start;stroke-width:1.14189219">P</tspan></text>
    <path
       style="fill:none;stroke:#000000;stroke-width:2.75590539;stroke-linecap:butt;stroke-linejoin:miter;stroke-miterlimit:4;stroke-dasharray:none;stroke-opacity:1"
       d="m 99.584601,53.136527 c -7.34551,-0.1455 -11.85276,8.38903 -4.68089,15.56091 l 10.704549,10.40853 10.70505,-10.40904 c 9.00001,-9 -0.39222,-20.14532 -10.70505,-13.591 -2.0948,-1.33135 -4.15128,-1.93232 -6.023659,-1.9694 z"
       id="path821-7-8"
       inkscape:connector-curvature="0" />
    <text
       xml:space="preserve"
       style="font-style:italic;font-variant:normal;font-weight:bold;font-stretch:normal;font-size:27.40537453px;line-height:1.25;font-family:'Courier 10 Pitch';-inkscape-font-specification:'Courier 10 Pitch, Bold Italic';font-variant-ligatures:normal;font-variant-caps:normal;font-variant-numeric:normal;font-feature-settings:normal;text-align:start;letter-spacing:0px;word-spacing:0px;writing-mode:lr-tb;text-anchor:start;fill:#000000;fill-opacity:1;stroke:none;stroke-width:1.14189219"
       x="142.57417"
       y="79.905952"
       id="text858-1"
       transform="scale(0.95884338,1.0429232)"><tspan
         sodipodi:role="line"
         id="tspan856-9"
         x="142.57417"
         y="79.905952"
         style="font-style:normal;font-variant:normal;font-weight:bold;font-stretch:normal;font-size:27.40537453px;font-family:Menlo;-inkscape-font-specification:'Menlo, Bold';font-variant-ligatures:normal;font-variant-caps:normal;font-variant-numeric:normal;font-feature-settings:normal;text-align:start;writing-mode:lr-tb;text-anchor:start;stroke-width:1.14189219">P</tspan></text>
    <circle
       style="opacity:1;fill:none;fill-opacity:1;stroke:#000000;stroke-width:1.08847141;stroke-linecap:butt;stroke-linejoin:round;stroke-miterlimit:4;stroke-dasharray:none;stroke-opacity:1;paint-order:stroke markers fill"
       id="path854-9"
       cx="53.872868"
       cy="114.89687"
       r="1.6339767" />
    <g
       id="g972"
       transform="translate(21.237351,-5.3559211)">
      <g
         id="g965">
        <g
           id="g978">
          <g
             id="g984">
            <path
               style="color:#000000;font-style:normal;font-variant:normal;font-weight:normal;font-stretch:normal;font-size:medium;line-height:normal;font-family:sans-serif;font-variant-ligatures:normal;font-variant-position:normal;font-variant-caps:normal;font-variant-numeric:normal;font-variant-alternates:normal;font-feature-settings:normal;text-indent:0;text-align:start;text-decoration:none;text-decoration-line:none;text-decoration-style:solid;text-decoration-color:#000000;letter-spacing:normal;word-spacing:normal;text-transform:none;writing-mode:lr-tb;direction:ltr;text-orientation:mixed;dominant-baseline:auto;baseline-shift:baseline;text-anchor:start;white-space:normal;shape-padding:0;clip-rule:nonzero;display:inline;overflow:visible;visibility:visible;opacity:1;isolation:auto;mix-blend-mode:normal;color-interpolation:sRGB;color-interpolation-filters:linearRGB;solid-color:#000000;solid-opacity:1;vector-effect:none;fill:none;fill-opacity:1;fill-rule:nonzero;stroke:#000000;stroke-width:0.26666668;stroke-linecap:butt;stroke-linejoin:miter;stroke-miterlimit:4;stroke-dasharray:none;stroke-dashoffset:0;stroke-opacity:1;color-rendering:auto;image-rendering:auto;shape-rendering:auto;text-rendering:auto;enable-background:accumulate"
               d="m 469.70312,267.85156 c -4.59475,0 -8.36324,3.76854 -8.36328,8.36328 0,1.60188 0.46653,3.09682 1.25782,4.37305 -5.41088,-2.21869 -10.76021,-3.46916 -15.86719,-3.57031 -16.17289,-0.32033 -29.74488,9.11329 -34.94336,22.74609 -5.19852,13.6328 -1.77896,31.13899 13.125,46.04297 l 0.0234,0.0234 44.82031,43.58203 44.82812,-43.58203 0.0215,-0.0234 c 18.70299,-18.703 18.99847,-41.57061 7.62109,-55.57422 -9.67925,-11.91355 -27.321,-16.56444 -45.64648,-9.28515 0.93394,-1.34912 1.48437,-2.97902 1.48437,-4.73243 0,-4.59474 -3.76657,-8.36328 -8.36133,-8.36328 z m 0,4.17774 c 2.33584,0 4.1836,1.8497 4.1836,4.18554 0,2.33585 -1.84776,4.18555 -4.1836,4.18555 -2.33583,0 -4.18554,-1.8497 -4.18554,-4.18555 0,-2.33584 1.84971,-4.18554 4.18554,-4.18554 z m 23.26954,15.44726 c 8.97979,-0.21713 16.33893,3.64462 21.03906,9.42969 7.91462,9.74154 8.96341,25.55404 -6.88477,41.4082 l -37.37109,36.33789 -4.12305,-4.00976 h 0.30078 v -29.95703 h 5.41993 c 10.14966,0 17.44262,-1.96455 21.87695,-5.89453 4.46717,-3.92999 6.69922,-10.30626 6.69922,-19.13086 0,-8.8246 -2.23205,-15.20283 -6.69922,-19.13282 -3.28655,-2.91274 -8.14814,-4.74411 -14.57422,-5.49804 5.08207,-2.34079 9.89604,-3.44585 14.31641,-3.55274 z m -46.45313,0.12305 c 4.12857,0.0818 8.62585,1.02348 13.35547,3.0332 h -8.47656 v 66.16992 l -19.00782,-18.48046 -0.008,-0.008 C 419.75413,325.681 418.05819,313.03368 421.6795,303.53693 c 3.62212,-9.49883 12.80597,-16.17586 24.83984,-15.9375 z m 19.41406,16.32422 h 5.96094 c 4.76279,0 8.09684,0.87437 10.00195,2.625 1.93797,1.75063 2.90821,4.78834 2.90821,9.11133 0,4.32298 -0.97024,7.35874 -2.90821,9.10937 -1.90511,1.75063 -5.23916,2.62695 -10.00195,2.62695 h -5.96094 z"
               transform="matrix(0.26041667,0,0,0.26041667,0,-7.8000069)"
               id="path821-7-4"
               inkscape:connector-curvature="0" />
            <g
               aria-label="P"
               transform="scale(0.95884338,1.0429232)"
               style="font-style:italic;font-variant:normal;font-weight:bold;font-stretch:normal;font-size:27.40537453px;line-height:1.25;font-family:'Courier 10 Pitch';-inkscape-font-specification:'Courier 10 Pitch, Bold Italic';font-variant-ligatures:normal;font-variant-caps:normal;font-variant-numeric:normal;font-feature-settings:normal;text-align:start;letter-spacing:0px;word-spacing:0px;writing-mode:lr-tb;text-anchor:start;fill:#000000;fill-opacity:1;stroke:none;stroke-width:1.14189219"
               id="text858-5" />
          </g>
        </g>
      </g>
    </g>
    <path
       style="fill:none;stroke:#000000;stroke-width:9.44881878;stroke-linecap:butt;stroke-linejoin:miter;stroke-opacity:1;stroke-miterlimit:4;stroke-dasharray:none"
       d="M 711.83008 104.0957 C 683.62335 103.537 666.31547 136.30961 693.85547 163.84961 L 734.96289 203.81836 L 776.06836 163.84961 C 810.62836 129.28961 774.56416 86.48961 734.96289 111.6582 C 726.91888 106.54583 719.02003 104.23812 711.83008 104.0957 z "
       transform="matrix(0.26041667,0,0,0.26041667,0,-7.8000069)"
       id="path821-4" />
    <text
       xml:space="preserve"
       style="font-style:italic;font-variant:normal;font-weight:bold;font-stretch:normal;font-size:27.41802406px;line-height:1.25;font-family:'Courier 10 Pitch';-inkscape-font-specification:'Courier 10 Pitch, Bold Italic';font-variant-ligatures:normal;font-variant-caps:normal;font-variant-numeric:normal;font-feature-settings:normal;text-align:start;letter-spacing:0px;word-spacing:0px;writing-mode:lr-tb;text-anchor:start;fill:#000000;fill-opacity:1;stroke:none;stroke-width:1.14241922"
       x="192.25429"
       y="40.601772"
       id="text858-2"
       transform="scale(0.95928598,1.042442)"><tspan
         sodipodi:role="line"
         id="tspan856-98"
         x="192.25429"
         y="40.601772"
         style="font-style:normal;font-variant:normal;font-weight:bold;font-stretch:normal;font-size:27.41802406px;font-family:Menlo;-inkscape-font-specification:'Menlo, Bold';font-variant-ligatures:normal;font-variant-caps:normal;font-variant-numeric:normal;font-feature-settings:normal;text-align:start;writing-mode:lr-tb;text-anchor:start;stroke-width:1.14241922">P</tspan></text>
    <circle
       style="opacity:1;fill:none;fill-opacity:1;stroke:#000000;stroke-width:1.96850394;stroke-linecap:butt;stroke-linejoin:round;stroke-miterlimit:4;stroke-dasharray:none;stroke-opacity:1;paint-order:stroke markers fill"
       id="path854-9-1"
       cx="191.66109"
       cy="17.165236"
       r="2.657078" />
    <g
       id="g990">
      <path
         style="color:#000000;font-style:normal;font-variant:normal;font-weight:normal;font-stretch:normal;font-size:medium;line-height:normal;font-family:sans-serif;font-variant-ligatures:normal;font-variant-position:normal;font-variant-caps:normal;font-variant-numeric:normal;font-variant-alternates:normal;font-feature-settings:normal;text-indent:0;text-align:start;text-decoration:none;text-decoration-line:none;text-decoration-style:solid;text-decoration-color:#000000;letter-spacing:normal;word-spacing:normal;text-transform:none;writing-mode:lr-tb;direction:ltr;text-orientation:mixed;dominant-baseline:auto;baseline-shift:baseline;text-anchor:start;white-space:normal;shape-padding:0;clip-rule:nonzero;display:inline;overflow:visible;visibility:visible;opacity:1;isolation:auto;mix-blend-mode:normal;color-interpolation:sRGB;color-interpolation-filters:linearRGB;solid-color:#000000;solid-opacity:1;vector-effect:none;fill:none;fill-opacity:1;fill-rule:nonzero;stroke:#000000;stroke-width:0.26666668;stroke-linecap:butt;stroke-linejoin:miter;stroke-miterlimit:4;stroke-dasharray:none;stroke-dashoffset:0;stroke-opacity:1;color-rendering:auto;image-rendering:auto;shape-rendering:auto;text-rendering:auto;enable-background:accumulate"
         d="M 753.48828 261.80664 C 745.81062 261.80664 739.5 268.10944 739.5 275.78711 C 739.5 277.69111 739.88911 279.50954 740.58984 281.16992 C 736.78613 280.01005 733.04503 279.36849 729.42969 279.29688 L 729.42773 279.29688 C 713.47657 278.98092 700.14724 288.26639 695.0332 301.67773 C 689.91913 315.08907 693.24094 332.32885 708.02344 347.11133 L 708.04492 347.13477 L 733.69531 372.07422 L 733.69531 372.40234 L 734.0332 372.40234 L 752.46875 390.32812 L 796.89062 347.13477 L 796.92188 347.11133 C 815.47242 328.56079 815.69528 306.07865 804.50391 292.30273 C 796.21346 282.09766 781.97958 277.24919 766.4707 280.92188 C 767.10739 279.3279 767.4668 277.59817 767.4668 275.78711 C 767.4668 268.10944 761.16598 261.80664 753.48828 261.80664 z M 753.48828 269.36719 C 757.08075 269.36719 759.9082 272.19466 759.9082 275.78711 C 759.9082 279.37956 757.08075 282.21484 753.48828 282.21484 C 749.89585 282.21484 747.06055 279.37956 747.06055 275.78711 C 747.06055 272.19466 749.89585 269.36719 753.48828 269.36719 z M 775.67578 288.62695 C 784.821 288.41249 792.35797 292.33698 797.16797 298.25781 C 805.26822 308.22874 806.24271 324.41398 790.23828 340.42188 L 752.4668 377.15039 L 747.58398 372.40234 L 748.24414 372.40234 L 748.24414 342.44531 L 753.66797 342.44531 C 763.82701 342.44531 771.12604 340.48076 775.56445 336.55078 C 780.03575 332.6208 782.27148 326.24257 782.27148 317.41797 C 782.27148 308.59337 780.03575 302.21709 775.56445 298.28711 C 772.12825 295.24454 766.97048 293.38429 760.10547 292.69727 C 765.6314 289.99436 770.87496 288.73954 775.67578 288.62695 z M 729.24805 288.74023 C 733.84062 288.8312 738.85833 289.94409 744.13477 292.39062 L 733.69531 292.39062 L 733.69531 358.89648 L 714.70508 340.42969 L 714.69727 340.42188 C 701.94724 327.66705 700.15358 314.76311 703.85938 305.04492 C 707.56593 295.32463 716.99246 288.49748 729.24805 288.74023 z M 748.24414 305.68164 L 754.21094 305.68164 C 758.97813 305.68164 762.31578 306.55601 764.22266 308.30664 C 766.16241 310.05727 767.13086 313.09499 767.13086 317.41797 C 767.13086 321.74095 766.16241 324.77867 764.22266 326.5293 C 762.31578 328.27993 758.97813 329.1543 754.21094 329.1543 L 748.24414 329.1543 L 748.24414 305.68164 z "
         transform="matrix(0.26041667,0,0,0.26041667,0,-7.8000069)"
         id="path821-4-1" />
    </g>
  </g>
</svg>
