<?xml version="1.0" encoding="utf-8"?>
<!-- Generator: Adobe Illustrator 21.1.0, SVG Export Plug-In . SVG Version: 6.00 Build 0)  -->
<svg version="1.1" xmlns="http://www.w3.org/2000/svg" xmlns:xlink="http://www.w3.org/1999/xlink" x="0px" y="0px"
	 viewBox="0 0 2880 1728" style="enable-background:new 0 0 2880 1728;" xml:space="preserve">
<style type="text/css">
	.st0{fill:#FFFFFF;}
	.st1{display:none;fill:none;stroke:#3D0000;stroke-width:0.2;}
	.st2{display:none;}
	.st3{display:inline;fill:none;stroke:#000000;stroke-width:0.2;}
	.st4{fill:none;stroke:#000000;stroke-width:0.2;stroke-linecap:round;}
	.st5{display:none;fill:none;stroke:#000000;stroke-width:0.2;stroke-linecap:round;}
	.st6{display:none;enable-background:new    ;}
	.st7{font-family:'ClarendonBT-Black';}
	.st8{font-size:24px;}
	.st9{font-family:'Mallory-Ultra';}
	.st10{font-size:40px;}
	.st11{fill:none;stroke:#000000;stroke-width:5.3333;}
</style>
<g id="Layer_2">
	<g>
		
			<image style="overflow:visible;enable-background:new    ;" width="236" height="294" id="image4696" xlink:href="574B37F9.png"  transform="matrix(0.3285 0 0 0.3285 303.0132 68.0192)">
		</image>
		
			<rect x="314.4" y="122.1" transform="matrix(0.7404 0.6721 -0.6721 0.7404 192.6 -190.217)" class="st0" width="56.3" height="64.4"/>
	</g>
</g>
<g id="Layer_1" inkscape:version="0.92.2 5c3e80d, 2017-08-06" sodipodi:docname="sunEdit.svg" xmlns:cc="http://creativecommons.org/ns#" xmlns:dc="http://purl.org/dc/elements/1.1/" xmlns:inkscape="http://www.inkscape.org/namespaces/inkscape" xmlns:rdf="http://www.w3.org/1999/02/22-rdf-syntax-ns#" xmlns:sodipodi="http://sodipodi.sourceforge.net/DTD/sodipodi-0.dtd" xmlns:svg="http://www.w3.org/2000/svg">
	<circle id="path3797" class="st1" cx="342.6" cy="122.5" r="101.5"/>
	<g id="use4720" transform="translate(0,-241.51165)" class="st2">
		<ellipse id="path4655_1_" class="st3" cx="342.6" cy="39.1" rx="7.2" ry="7.2"/>
	</g>
	
		<image style="overflow:visible;enable-background:new    ;" width="2048" height="2048" id="image5005" xlink:href="574B3820.png"  transform="matrix(7.211266e-02 0 0 7.211266e-02 45.5323 277.2877)">
	</image>
	
		<sodipodi:namedview  bordercolor="#666666" borderopacity="1" gridtolerance="10" guidetolerance="10" id="namedview68" inkscape:current-layer="layer1" inkscape:cx="488.24177" inkscape:cy="1968.2929" inkscape:measure-end="513.55,2231.15" inkscape:measure-start="748.876,2073.65" inkscape:object-paths="false" inkscape:pageopacity="0" inkscape:pageshadow="2" inkscape:snap-global="true" inkscape:snap-intersection-paths="false" inkscape:snap-nodes="true" inkscape:window-height="856" inkscape:window-maximized="0" inkscape:window-width="1440" inkscape:window-x="0" inkscape:window-y="0" inkscape:zoom="0.98280622" objecttolerance="10" pagecolor="#ffffff" showgrid="false" units="in">
		</sodipodi:namedview>
	<path id="path61" inkscape:connector-curvature="0" class="st4" d="M71.5,161.1"/>
	<path id="path63" inkscape:connector-curvature="0" class="st5" d="M71.5,73.1c-7.2-14.8-10.8-33.4-4.9-49.3c0.2-0.2,0.6-0.3,1-0.4
		c4.7,16.6,24.6,19.5,34,31.7c0,0-0.7-0.8,0,0c0.6-7.8,1-16.4,4.2-23.5c2.8-8.5,8.5-17.2,16.2-22.1c0.2,0.5,0.1,1.8,0.1,2.5
		c-5,15.2,10.6,27,12,41.9c0,0-0.1-0.9,0,0c10.3-12.6,24.5-27.1,42.3-28.2c-12.2,11.9-6.2,30.5-12.3,44.8c0,0,0.5-1.3,0,0
		c14.7-7.1,34-10.5,49.9-4.1c-4.2,2.7-6.4,4.2-6.4,4.2c-11.4,6.6-25.4,29.5-25.4,29.5s0.8-1.2,0,0c16.2,1,35,6.8,44.4,20.7
		c0,0-0.3-0.4,0,0c-16.6-4.5-29.2,13.2-44.3,13.7c14,8.5,26.9,22.8,28.6,39.7c-12-11.6-31.1-5.4-45.6-10.6
		c8.1,14.1,11.8,32.8,5.5,48.6c-0.3,0,0.3,0.1,0,0c-3.7-16.7-25.3-20-33.7-32.1c-1.9,16.3-6,33.4-19.2,44.1
		c-0.4,0.4-0.9,0.6-1.3,0.4c3.9-16.6-11.9-28.9-13.9-43.9c-8.9,13.9-22.8,26.9-39.5,28.6c0-0.5,0.2-0.9,0.4-1.3
		c10.9-10.7,6.8-30.2,10.5-43.6c-14.4,7.1-32.9,12.2-48.6,5.7c4-3.2,8.1-4.9,11.7-8.1c7.5-6.8,10.8-18.7,19.8-24.7
		c-16.4-1.2-35.5-8.1-44.8-22.3c0.1-0.2,0.3-0.3,0.5-0.4c16.4,4.5,28.1-10.1,43.2-12C42.4,93.5,29.2,79,27,62.1
		c1.3-0.7,2.8,1.3,3.7,2.1C42.5,73.4,58.7,67.2,71.5,73.1"/>
	<circle id="circle65" class="st5" cx="114.9" cy="40.4" r="5.7"/>
	<text transform="matrix(1 0 0 1 269.8289 69.916)" class="st6 st7 st8">Elkephants</text>
	<path id="path3763" inkscape:connector-curvature="0" class="st5" d="M167.2,307.1c12.7-5.9,29,0.3,40.7-8.9
		c0.9-0.8,2.4-2.9,3.7-2.1c-2.2,16.9-15.4,31.4-28.9,40.5c15.1,1.9,26.8,16.5,43.2,12c0.2,0.1,0.4,0.2,0.5,0.4
		c-9.3,14.2-28.4,21-44.8,22.3c9,6,12.3,17.9,19.8,24.7c3.5,3.2,7.6,5,11.7,8.1c-15.6,6.4-34.1,1.4-48.6-5.7
		c3.7,13.4-0.4,32.9,10.5,43.6c0.2,0.4,0.4,0.9,0.4,1.3c-16.7-1.7-30.6-14.7-39.5-28.6c-2,15-17.8,27.3-13.9,43.9
		c-0.4,0.2-0.9-0.1-1.3-0.4c-13.2-10.7-17.3-27.9-19.2-44.1c-8.5,12.1-30,15.4-33.7,32.1c-0.3,0.1,0.3,0,0,0
		c-6.2-15.8-2.6-34.4,5.5-48.6c-14.5,5.2-33.6-0.9-45.6,10.6c1.7-16.9,14.7-31.1,28.6-39.7c-15.1-0.5-27.7-18.3-44.3-13.7
		c0.3-0.4,0,0,0,0c9.4-14,28.2-19.7,44.4-20.7c-0.8-1.2,0,0,0,0s-14-22.9-25.4-29.5c0,0-2.3-1.6-6.4-4.2c15.9-6.4,35.2-2.9,49.9,4.1
		c-0.5-1.3,0,0,0,0c-6.1-14.3-0.2-32.9-12.3-44.8c17.8,1.1,32,15.7,42.3,28.2c0.1-0.9,0,0,0,0c1.4-14.9,17-26.7,12-41.9
		c0-0.7-0.1-2,0.1-2.5c7.6,4.8,13.4,13.6,16.2,22.1c3.2,7.1,3.7,15.6,4.2,23.5c0.7-0.8,0,0,0,0c9.4-12.2,29.3-15.1,34-31.7
		c0.4,0,0.8,0.1,1,0.4C178,273.8,174.4,292.3,167.2,307.1"/>
	<text transform="matrix(1 0 0 1 92.556 94.3262)" class="st9 st8">NSO</text>
	<text transform="matrix(1 0 0 1 93.0602 158.2588)" class="st9 st8">DGC</text>
	<text transform="matrix(1 0 0 1 104.9957 131.5024)" class="st9 st10">1</text>
	
		<image style="display:none;overflow:visible;enable-background:new    ;" width="2048" height="2048" id="image5069" xlink:href="574B3821.png"  transform="matrix(5.493164e-02 0 0 5.493164e-02 15.2052 465.224)">
	</image>
	
		<image style="display:none;overflow:visible;enable-background:new    ;" width="2048" height="2048" id="image5182" xlink:href="574B3822.png"  transform="matrix(5.493164e-02 0 0 5.493164e-02 127.7052 473.1812)">
	</image>
	
		<image style="display:none;overflow:visible;enable-background:new    ;" width="2048" height="2048" id="image5244" xlink:href="574B3823.png"  transform="matrix(5.493164e-02 0 0 5.493164e-02 240.2052 473.1812)">
	</image>
	
		<image style="display:none;overflow:visible;enable-background:new    ;" width="2048" height="2048" id="image5306" xlink:href="574B3824.png"  transform="matrix(5.493164e-02 0 0 5.493164e-02 240.2052 360.6812)">
	</image>
	<circle id="path3767" class="st11" cx="119.4" cy="116.9" r="55.2"/>
	
		<image style="display:none;overflow:visible;enable-background:new    ;" width="800" height="800" id="image82" xlink:href="574B3825.png"  transform="matrix(0.1213 0 0 0.1213 294.0552 111.499)">
	</image>
	<g id="use4720_1_" transform="translate(0,-241.51165)" class="st2">
		<ellipse id="path4655_2_" class="st3" cx="342.6" cy="209.1" rx="7.2" ry="7.2"/>
	</g>
</g>
</svg>
